<svg width="44" height="55" fill="none" xmlns="http://www.w3.org/2000/svg"><path d="M44 22.563c0 16.2-22 32.4-22 32.4s-22-16.2-22-32.4C0 16.834 2.318 11.34 6.444 7.289 10.569 3.24 16.165.963 22 .963c5.835 0 11.43 2.276 15.556 6.326C41.682 11.34 44 16.834 44 22.563Z" fill="#212721"/><path fill-rule="evenodd" clip-rule="evenodd" d="M26 16.463a3.5 3.5 0 1 1-7 0 3.5 3.5 0 0 1 7 0Zm-.69 3.515a4.5 4.5 0 1 0-7.132-4.77 3.5 3.5 0 1 0-5.11 4.77H9.499v12.34h18.798v-2.263l4.458 2.492.744.416V19.626l-.744.416-4.458 2.492v-2.555h-2.989Zm-6.608-1.1c.267.419.602.791.989 1.1h-1.758a3.5 3.5 0 0 0 .77-1.1ZM15.5 19.963a2.5 2.5 0 1 0 0-5 2.5 2.5 0 0 0 0 5Zm12.798 3.717v5.228l4.202 2.35V21.33l-4.202 2.349ZM10.5 20.979v10.34h16.798v-10.34H10.5Zm7.5 3.198h-6v-1h6v1Zm3 0h-2v-1h2v1Z" fill="#fff"/></svg>