<svg width="44" height="54" viewBox="0 0 44 54" fill="none" xmlns="http://www.w3.org/2000/svg">
<path d="M44 21.6C44 37.8 22 54 22 54C22 54 0 37.8 0 21.6C0 15.8713 2.31785 10.3773 6.44365 6.32649C10.5695 2.27571 16.1652 0 22 0C27.8348 0 33.4305 2.27571 37.5564 6.32649C41.6822 10.3773 44 15.8713 44 21.6Z" fill="#212721"/>
<path fill-rule="evenodd" clip-rule="evenodd" d="M22.0101 12L22.1622 12.0479L32.7712 15.3911L33.1209 15.5013V15.868V21.2019C33.2749 21.3646 33.3942 21.5836 33.4424 21.8198C33.5075 22.1393 33.444 22.4813 33.2155 22.7837L33.9616 24.4555L34.005 24.5527V24.6592C34.005 24.8857 33.9399 25.2127 33.7312 25.4969C33.5042 25.806 33.1334 26.026 32.6209 26.026C32.1055 26.026 31.7338 25.8006 31.5301 25.4546C31.3497 25.1482 31.3362 24.8077 31.3684 24.5871L31.3739 24.5494L31.385 24.5129C31.4936 24.1581 31.7557 23.3722 32.0316 22.754C31.8181 22.4458 31.7431 22.118 31.8091 21.7972C31.8597 21.5514 31.9845 21.3553 32.1209 21.2115V16.5422L29.5846 17.3119V22.059V22.2619L29.4432 22.4074C28.5182 23.3596 25.7996 25.1592 22.0119 25.1592C18.2228 25.1592 15.584 23.3581 14.6981 22.3981L14.5655 22.2545V22.059V17.2962L11.507 16.3454L10 15.877L11.5019 15.3922L21.8583 12.049L22.0101 12ZM15.5655 17.607V21.855C16.4114 22.6713 18.7176 24.1592 22.0119 24.1592C25.3063 24.1592 27.6911 22.6711 28.5846 21.8478V17.6153L22.1571 19.5658L22.0101 19.6104L21.8635 19.5648L15.5655 17.607ZM29.3707 15.368L22.0137 13.0496L13.3109 15.859L15.2139 16.4506L22.0137 18.5643L28.9394 16.4626L29.2513 16.368H22.0119V15.368H29.3707ZM32.635 23.9366C32.5181 24.2565 32.4177 24.5593 32.3551 24.7605C32.3539 24.7843 32.3546 24.8136 32.3591 24.8445C32.3656 24.8894 32.3782 24.924 32.3919 24.9473C32.4037 24.9673 32.4171 24.981 32.4378 24.9923C32.4598 25.0044 32.513 25.026 32.6209 25.026C32.7279 25.026 32.793 25.0046 32.8318 24.985C32.8708 24.9653 32.9005 24.9386 32.9252 24.905C32.9608 24.8566 32.9832 24.7965 32.9949 24.7431L32.635 23.9366ZM12.7738 24.6451C13.2107 24.2844 13.6416 24.2831 13.8025 24.2831H13.9257L14.0347 24.3402C16.2235 25.488 18.0362 26.33 19.6749 26.9989C20.2338 27.2271 20.7729 27.4352 21.3 27.6287C23.0325 28.2643 24.6394 28.7414 26.4127 29.2464C27.605 29.4337 28.3721 30.1073 28.7193 30.9928C29.0584 31.8577 28.9771 32.869 28.6144 33.7363C28.2507 34.606 27.578 35.3931 26.6552 35.7706C25.7129 36.1561 24.5839 36.0842 23.3948 35.3641C21.9389 34.4825 20.4976 33.7597 19.0753 33.1557C19.1512 33.3605 19.2588 33.5417 19.3714 33.6989C19.4626 33.8262 19.5467 33.9245 19.6237 34.0145C19.6479 34.0428 19.6713 34.0702 19.6941 34.0975C19.7163 34.1241 19.7419 34.1554 19.7651 34.1873C19.7839 34.2131 19.8228 34.2679 19.8515 34.3378C19.8677 34.3772 19.9657 34.6213 19.7899 34.8556C19.6326 35.0653 19.3995 35.065 19.3613 35.0649H19.3596C19.2264 35.0649 19.0968 35.0281 19.0086 34.9989C18.9668 34.9851 18.9244 34.9695 18.8823 34.9528C18.8647 34.9785 18.8444 35.0038 18.8211 35.0281C18.7314 35.1218 18.6054 35.1901 18.456 35.2026C18.3193 35.214 18.2056 35.1752 18.1292 35.1377L18.089 35.118L18.0531 35.0916C17.5078 34.6906 17.2378 34.0391 17.1022 33.4762C17.0733 33.3562 17.0495 33.2362 17.0302 33.1179C16.6819 33.5076 16.294 33.7575 15.9432 33.9095C15.6511 34.0362 15.3808 34.0969 15.1753 34.1137C15.0816 34.1213 14.9654 34.1231 14.8574 34.0983C14.8275 34.0914 14.786 34.0797 14.7404 34.0589C14.7 34.0405 14.6225 33.9997 14.5537 33.9182C14.4736 33.8234 14.4111 33.6769 14.4389 33.5055C14.4419 33.4868 14.4459 33.4688 14.4506 33.4518C14.373 33.4285 14.2955 33.4051 14.2313 33.3841C14.1923 33.3713 14.1508 33.3571 14.1133 33.3423L14.1108 33.3413C14.0879 33.3323 14.0119 33.3026 13.9434 33.2503C13.9217 33.2338 13.8818 33.201 13.8433 33.1503C13.8067 33.1021 13.7415 32.9981 13.7398 32.8495C13.7378 32.6821 13.8165 32.5544 13.8962 32.4783C13.9654 32.4123 14.0365 32.3819 14.0704 32.3691C14.1392 32.3432 14.2004 32.3371 14.2227 32.335C14.2538 32.3321 14.2834 32.3314 14.3077 32.3314C14.5662 32.3314 14.9084 32.1952 15.2719 31.9615C15.3345 31.9213 15.3956 31.8796 15.4547 31.8372C14.0008 31.3871 12.5708 31.0298 11.1685 30.7194L10.9548 30.6721L10.8446 30.483C10.1846 29.3506 10.0833 28.378 10.2917 27.6032C10.496 26.8437 10.9832 26.3319 11.4019 26.0856L11.6116 25.9623L11.838 26.0511L11.9342 26.0888C12.1412 25.3795 12.4348 24.925 12.7738 24.6451ZM12.8781 26.4252C14.1834 26.8459 15.8836 27.489 16.6373 27.7846L16.2722 28.7155C15.4316 28.3859 13.4353 27.6329 12.1425 27.2429L12.1232 27.2371L12.1044 27.2297L11.728 27.0821C11.5476 27.244 11.3538 27.5044 11.2574 27.863C11.1396 28.3011 11.1534 28.9388 11.6044 29.792C13.228 30.1564 14.9004 30.5885 16.6097 31.1578C16.5197 29.9032 16.833 28.9558 17.342 28.2722C17.5969 27.9298 17.8939 27.6632 18.1983 27.4615C16.851 26.8756 15.3787 26.171 13.69 25.2885C13.6112 25.2989 13.5162 25.3289 13.4104 25.4163C13.2647 25.5366 13.0489 25.809 12.8781 26.4252ZM19.4398 27.9828C19.051 28.0825 18.5303 28.3507 18.144 28.8694C17.7517 29.3963 17.4621 30.2307 17.6558 31.5224C17.7034 31.5397 17.751 31.5572 17.7987 31.5747C17.6585 30.3765 18.0154 29.463 18.6203 28.8102C18.9183 28.4886 19.2662 28.2415 19.6218 28.056C19.5614 28.0319 19.5007 28.0075 19.4398 27.9828ZM21.0743 28.6108C20.5336 28.7001 19.8346 28.9711 19.3538 29.4899C18.8974 29.9824 18.5815 30.7571 18.8918 31.9972C20.0651 32.4719 21.2527 33.0229 22.4514 33.6715C22.2847 33.068 22.278 32.5056 22.3365 32.0277C22.3877 31.61 22.4878 31.2605 22.5654 31.0144C22.3606 30.9348 22.089 30.8346 21.7887 30.7263C21.1682 30.5027 20.4386 30.2499 19.956 30.0853L20.2788 29.1388C20.7645 29.3045 21.5 29.5593 22.1277 29.7856C22.4411 29.8985 22.731 30.0055 22.9505 30.0913C23.0595 30.1339 23.1562 30.1732 23.2314 30.2065C23.2685 30.2229 23.3063 30.2404 23.3402 30.2582C23.3409 30.2585 23.3417 30.2589 23.3426 30.2594C23.3615 30.2692 23.4353 30.3074 23.4986 30.3694C23.6013 30.4701 23.6359 30.5855 23.6483 30.6533C23.6608 30.7216 23.6581 30.78 23.6551 30.8147C23.6491 30.8834 23.6326 30.9478 23.6214 30.9889C23.605 31.0487 23.5795 31.1273 23.5545 31.2046C23.5449 31.2343 23.5354 31.2637 23.5264 31.2919C23.455 31.5169 23.3709 31.8077 23.3291 32.1492C23.2492 32.8024 23.3206 33.6551 23.9922 34.5557C24.9148 35.0888 25.6847 35.0872 26.2765 34.8451C26.9048 34.588 27.4083 34.0286 27.6918 33.3505C27.9764 32.67 28.0135 31.9323 27.7883 31.3578C27.5756 30.8153 27.1108 30.3655 26.2482 30.2328C26.1499 30.2277 25.9637 30.2865 25.7289 30.5277C25.4995 30.7634 25.2924 31.1086 25.1716 31.4834C25.0501 31.8609 25.0309 32.2206 25.1151 32.4989C25.1908 32.749 25.3571 32.9652 25.7001 33.0973C25.7851 33.1174 25.845 33.1031 25.8959 33.0758C25.9598 33.0414 26.0312 32.9727 26.0901 32.8669C26.1488 32.7614 26.181 32.6434 26.1854 32.5428C26.19 32.4372 26.1635 32.395 26.1615 32.3923C25.9937 32.173 26.0355 31.8592 26.2548 31.6914C26.4741 31.5236 26.788 31.5654 26.9557 31.7847C27.1431 32.0297 27.1956 32.328 27.1844 32.5861C27.173 32.8492 27.0947 33.1181 26.964 33.3531C26.7048 33.8189 26.1531 34.263 25.4134 34.0558L25.3943 34.0505L25.3757 34.0436C24.7224 33.8034 24.3255 33.3422 24.1579 32.7886C23.9975 32.2582 24.0572 31.6815 24.2198 31.1768C24.3769 30.6889 24.6439 30.2238 24.9725 29.872C23.6661 29.4895 22.4063 29.0957 21.0743 28.6108ZM22.8768 31.1443C22.8878 31.1501 22.8855 31.1497 22.8751 31.1435C22.8757 31.1438 22.8763 31.1441 22.8768 31.1443ZM16.2485 32.4909C16.0217 32.7334 15.781 32.8861 15.5716 32.9805C15.5673 32.9721 15.5629 32.9637 15.5581 32.9553C15.6472 32.9058 15.7324 32.8543 15.8126 32.8027C15.9674 32.7032 16.1141 32.5968 16.2485 32.4909Z" fill="white"/>
</svg>
