<svg width="44" height="55" fill="none" xmlns="http://www.w3.org/2000/svg"><path d="M44 22.563c0 16.2-22 32.4-22 32.4s-22-16.2-22-32.4C0 16.834 2.318 11.34 6.444 7.289 10.569 3.24 16.165.963 22 .963c5.835 0 11.43 2.276 15.556 6.326C41.682 11.34 44 16.834 44 22.563Z" fill="#212721"/><path fill-rule="evenodd" clip-rule="evenodd" d="M16.434 12.598c-3.367.428-5.822 3.801-5.376 7.622.36 3.087 2.492 5.416 5.073 5.97v-2.395l-2.32-2.452a.5.5 0 0 1 .727-.687l1.593 1.684v-5.353a.5.5 0 1 1 1 0v4.048l2.58-2.714a.5.5 0 0 1 .724.69l-3.304 3.476v3.826a5.623 5.623 0 0 0 2.008-.298 2.039 2.039 0 0 1 1.633-3.26h2a.503.503 0 0 1 .045-.198 7.432 7.432 0 0 0 .587-3.908c-.445-3.82-3.603-6.48-6.97-6.051Zm7.383 10.157a8.455 8.455 0 0 0 .58-4.232c-.5-4.28-4.079-7.427-8.079-6.918-4 .509-6.751 4.462-6.252 8.741.413 3.544 2.938 6.311 6.065 6.87v4.46a2.931 2.931 0 0 0-.683.137 2.351 2.351 0 0 0-1.76-.797c-.675 0-1.267.243-1.69.673-.422.429-.65 1.017-.65 1.66 0 .456.084.865.196 1.2h-.681a.5.5 0 1 0 0 1h22.645a.5.5 0 1 0 0-1h-2.534c.053-.151.081-.314.081-.484v-2.103h.422a2.039 2.039 0 1 0 0-4.078H30.07v-1.052h.423a2.039 2.039 0 0 0 0-4.077h-6.676Zm5.253 4.078v1.051h-6.876v-1.052h6.876Zm-7.876 0v1.051h-1.407a2.039 2.039 0 0 0 0 4.078h.422v2.103c0 .17.029.333.081.485h-1.05v-.01c0-.88-.283-1.605-.772-2.114a2.484 2.484 0 0 0-1.337-.72v-4.39a6.716 6.716 0 0 0 2.758-.519.505.505 0 0 0 .152-.1c.227.088.473.136.73.136h.423Zm6.348 7.717h.625a1.483 1.483 0 0 1-.081-.485v-2.103h-4.907v2.103c0 .17-.029.333-.081.485h4.444Zm1.544-.485a.485.485 0 0 0 .97 0v-1.763h-.97v1.763Zm-7.392.485a.484.484 0 0 1-.485-.485v-1.763h.97v1.763a.485.485 0 0 1-.485.485Zm-9.072 0h5.618v-.01c0-.66-.209-1.125-.493-1.42a1.522 1.522 0 0 0-1.116-.46c-.363 0-.757.009-1.1.206l-.446.256-.244-.454a1.37 1.37 0 0 0-1.153-.652c-.43 0-.757.15-.977.374-.222.226-.363.554-.363.958 0 .524.151.953.274 1.202Zm7.11-9.756c0-.574.466-1.04 1.04-1.04h9.721a1.039 1.039 0 1 1 0 2.078h-9.722a1.039 1.039 0 0 1-1.038-1.038Zm.055 4.09a1.039 1.039 0 1 0 0 2.078h11.69a1.039 1.039 0 1 0 0-2.078h-11.69Z" fill="#fff"/></svg>