<svg width="44" height="55" fill="none" xmlns="http://www.w3.org/2000/svg"><path d="M44 22.563c0 16.2-22 32.4-22 32.4s-22-16.2-22-32.4C0 16.834 2.318 11.34 6.444 7.289 10.569 3.24 16.165.963 22 .963c5.835 0 11.43 2.276 15.556 6.326C41.682 11.34 44 16.834 44 22.563Z" fill="#212721"/><path fill-rule="evenodd" clip-rule="evenodd" d="M12.498 11.963a1.5 1.5 0 0 0-1.5 1.5v.244h2.398v-1.744h-.898Zm1.898 0v1.744h1.614v-1.744h-1.614Zm2.614 0v1.744h1.875v-1.744H17.01Zm2.875 0v1.744h1.745v-1.744h-1.745Zm2.745 0v1.744h1.744v-1.744H22.63Zm2.744 0v1.744h1.745v-1.744h-1.745Zm2.745 0v1.744h1.744v-1.744H28.12Zm2.744 0v1.744H33v-.244a1.5 1.5 0 0 0-1.5-1.5h-.637Zm.654 2.744H34v-1.244a2.5 2.5 0 0 0-2.5-2.5H12.498a2.5 2.5 0 0 0-2.5 2.5v1.244h2.745v9.979h-.068a1.5 1.5 0 0 0-1.5 1.5v.09a1.5 1.5 0 0 0 1.176 1.465v4.724a2.5 2.5 0 0 0 2.5 2.5h14.427a2.5 2.5 0 0 0 2.5-2.5v-4.7a1.5 1.5 0 0 0 1.307-1.489v-.09a1.5 1.5 0 0 0-1.5-1.5h-.068v-9.979Zm-1 0H13.743v9.979h.597c.058-.49.205-.894.424-1.221a2.15 2.15 0 0 1 .757-.695c.047-.832.283-1.481.695-1.938.47-.521 1.103-.72 1.732-.72.792 0 1.29.532 1.563 1.11.225.476.335 1.046.365 1.58.563.331.981.959 1.092 1.884h1.054v-.592a1.5 1.5 0 0 1 1.5-1.5h.166v-.983a1.5 1.5 0 0 1 1.5-1.5h1.43a1.5 1.5 0 0 1 1.5 1.5v.983h.07a1.5 1.5 0 0 1 1.5 1.5v.591h.829v-9.978Zm-1.83 9.979v-.592a.5.5 0 0 0-.5-.5h-1.832v1.091h2.332Zm-3.332 0v-1.092h-1.833a.5.5 0 0 0-.5.5v.591h2.333Zm1.764-2.092v-.983a.5.5 0 0 0-.5-.5h-1.43a.5.5 0 0 0-.5.5v.983h2.429Zm-7.16 2.091c-.114-.702-.465-.991-.746-1.094a.903.903 0 0 0-.616-.005c.173.31.292.676.344 1.1h1.018Zm-2.029 0c-.065-.384-.205-.654-.362-.836a1.057 1.057 0 0 0-.797-.385c-.185 0-.392.028-.586.1a1.18 1.18 0 0 0-.59.457c-.104.156-.196.37-.245.665h2.58Zm-.016-1.86c.143-.1.303-.173.465-.22a1.83 1.83 0 0 1 .468-.071 3.046 3.046 0 0 0-.24-.885c-.185-.39-.406-.538-.66-.538-.416 0-.751.128-.988.39-.175.195-.33.5-.404.97a3.24 3.24 0 0 1 .216-.007c.387 0 .79.117 1.143.361Zm12.864 4.951H13.351v4.689a1.5 1.5 0 0 0 1.5 1.5h14.427a1.5 1.5 0 0 0 1.5-1.5v-4.689Zm-18.103-2.09a.5.5 0 0 0-.5.5v.09a.5.5 0 0 0 .5.5h18.91a.5.5 0 0 0 .5-.5v-.09a.5.5 0 0 0-.5-.5h-18.91Z" fill="#fff"/></svg>