<svg width="44" height="54" viewBox="0 0 44 54" fill="none" xmlns="http://www.w3.org/2000/svg">
<path d="M44 21.6C44 37.8 22 54 22 54C22 54 0 37.8 0 21.6C0 15.8713 2.31785 10.3773 6.44365 6.32649C10.5695 2.27571 16.1652 0 22 0C27.8348 0 33.4305 2.27571 37.5564 6.32649C41.6822 10.3773 44 15.8713 44 21.6Z" fill="#212721"/>
<path d="M21.5365 13.2388C16.277 13.2388 11.998 17.5177 11.998 22.7772C11.998 28.0367 16.277 32.3157 21.5365 32.3157C26.796 32.3157 31.0749 28.0367 31.0749 22.7772C31.0749 17.5177 26.796 13.2388 21.5365 13.2388ZM21.5365 31.5731C16.6865 31.5731 12.7407 27.6273 12.7407 22.7772C12.7407 17.9272 16.6865 13.9814 21.5365 13.9814C26.3866 13.9814 30.3323 17.9272 30.3323 22.7772C30.3323 27.6273 26.3866 31.5731 21.5365 31.5731Z" fill="white"/>
<g clip-path="url(#clip0_3231_8552)">
<path d="M21.5368 16.6145C18.1387 16.6145 15.374 19.3791 15.374 22.7773C15.374 23.3257 15.4462 23.8698 15.5885 24.3944L16.3052 24.1999C16.18 23.7387 16.1166 23.26 16.1166 22.7772C16.1166 19.7885 18.5481 17.3571 21.5367 17.3571C22.4071 17.3571 23.2381 17.5569 24.0067 17.9512L24.3456 17.2903C23.4712 16.8419 22.5262 16.6145 21.5368 16.6145Z" fill="white"/>
<path d="M16.6548 25.1345L15.9863 25.458C16.3759 26.2632 16.9495 26.9886 17.645 27.5557L18.1143 26.9801C17.5022 26.4811 16.9976 25.8429 16.6548 25.1345Z" fill="white"/>
<path d="M25.2945 17.8928L24.8413 18.481C26.1854 19.5168 26.9563 21.0826 26.9563 22.7771C26.9563 25.7658 24.5248 28.1973 21.5361 28.1973C20.4721 28.1973 19.4423 27.8892 18.558 27.3066L18.1494 27.9267C19.1554 28.5895 20.3264 28.9399 21.5361 28.9399C24.9343 28.9399 27.6989 26.1753 27.6989 22.7771C27.6988 20.8505 26.8225 19.0703 25.2945 17.8928Z" fill="white"/>
<path d="M12.1223 11.3467V15.6467H11.3038V11.3467H10.5611V15.6467H9.74263V11.3467H9V15.6467V16.2869V16.3894H9.00278C9.04966 17.2821 9.70523 18.0159 10.5612 18.1832V31.9445H11.3038V18.1832C12.1597 18.0159 12.8153 17.2821 12.8622 16.3893H12.865V16.2869V15.6467V11.3467H12.1223ZM10.9325 17.4767C10.3109 17.4767 9.79912 16.9976 9.74702 16.3893H12.118C12.0658 16.9976 11.554 17.4767 10.9325 17.4767Z" fill="white"/>
<path d="M33.3816 11.0626C32.2837 11.7331 31.6016 12.9487 31.6016 14.2352V22.3608H33.2578V31.9443H34.0004V22.3608V17.8479V10.6843L33.3816 11.0626ZM33.2578 17.8479V21.6181H32.3442V14.2352C32.3442 13.4234 32.6834 12.647 33.2578 12.0918V17.8479Z" fill="white"/>
</g>
<defs>
<clipPath id="clip0_3231_8552">
<rect width="25" height="25" fill="white" transform="translate(9 9)"/>
</clipPath>
</defs>
</svg>
