<svg width="44" height="54" viewBox="0 0 44 54" fill="none" xmlns="http://www.w3.org/2000/svg">
<path d="M44 21.6C44 37.8 22 54 22 54C22 54 0 37.8 0 21.6C0 15.8713 2.31785 10.3773 6.44365 6.32649C10.5695 2.27571 16.1652 0 22 0C27.8348 0 33.4305 2.27571 37.5564 6.32649C41.6822 10.3773 44 15.8713 44 21.6Z" fill="#212721"/>
<path d="M22.0371 16C23.7371 16 25.0371 14.7 25.0371 13C25.0371 11.3 23.7371 10 22.0371 10C20.3371 10 19.0371 11.3 19.0371 13C19.0371 14.7 20.3371 16 22.0371 16Z" fill="white"/>
<path d="M35.7375 18.2999L28.7375 11.7999C28.4375 11.4999 28.0375 11.4999 27.6375 11.5999C27.2375 11.7999 27.0375 12.1999 27.0375 12.5999C27.0375 12.6999 27.0375 12.8999 27.0375 12.9999C27.0375 15.7999 24.8375 17.9999 22.0375 17.9999C19.2375 17.9999 17.0375 15.7999 17.0375 12.9999C17.0375 12.8999 17.0375 12.6999 17.0375 12.5999C17.0375 12.1999 16.8375 11.7999 16.4375 11.5999C16.0375 11.3999 15.6375 11.4999 15.3375 11.7999L8.3375 18.2999C8.0375 18.4999 7.9375 18.8999 8.0375 19.2999C8.1375 19.6999 8.3375 19.8999 8.7375 19.9999L17.6375 22.7999C16.1375 23.2999 15.0375 24.1999 15.0375 25.4999C15.0375 25.9999 15.2375 26.7999 16.1375 27.4999C16.5375 27.7999 17.2375 27.6999 17.5375 27.2999C17.8375 26.8999 17.7375 26.1999 17.3375 25.8999C17.0375 25.6999 17.0375 25.4999 17.0375 25.4999C17.0375 25.1999 18.4375 24.1999 21.0375 23.9999V26.9999C18.7375 27.2999 17.0375 28.3999 17.0375 29.8999C17.0375 30.8999 17.7375 31.6999 18.8375 32.2999C18.9375 32.3999 19.1375 32.3999 19.2375 32.3999C19.6375 32.3999 19.9375 32.1999 20.1375 31.7999C20.3375 31.2999 20.1375 30.6999 19.6375 30.4999C19.2375 30.2999 19.0375 30.0999 19.0375 29.9999C19.0375 29.7999 19.7375 29.2999 21.0375 29.0999V33.9999C21.0375 34.5999 21.4375 34.9999 22.0375 34.9999C22.6375 34.9999 23.0375 34.5999 23.0375 33.9999V33.1999C23.6375 33.3999 24.0375 33.7999 24.0375 33.9999C24.0375 34.3999 23.2375 34.9999 22.0375 34.9999C20.8375 34.9999 20.0375 34.3999 20.0375 33.9999C20.0375 33.3999 19.6375 32.9999 19.0375 32.9999C18.4375 32.9999 18.0375 33.3999 18.0375 33.9999C18.0375 35.6999 19.8375 36.9999 22.0375 36.9999C24.2375 36.9999 26.0375 35.6999 26.0375 33.9999C26.0375 32.5999 24.7375 31.3999 23.0375 31.0999V28.9999C26.1375 28.7999 29.0375 27.5999 29.0375 25.4999C29.0375 24.1999 27.9375 23.2999 26.4375 22.6999L35.3375 19.8999C35.6375 19.7999 35.9375 19.4999 36.0375 19.1999C36.1375 18.8999 35.9375 18.4999 35.7375 18.2999ZM27.0375 25.4999C27.0375 25.7999 25.6375 26.7999 23.0375 26.9999V23.9999C25.6375 24.1999 27.0375 25.1999 27.0375 25.4999Z" fill="white"/>
</svg>
