<svg width="44" height="55" fill="none" xmlns="http://www.w3.org/2000/svg"><path d="M44 22.563c0 16.2-22 32.4-22 32.4s-22-16.2-22-32.4C0 16.834 2.318 11.34 6.444 7.289 10.569 3.24 16.165.963 22 .963c5.835 0 11.43 2.276 15.556 6.326C41.682 11.34 44 16.834 44 22.563Z" fill="#212721"/><path fill-rule="evenodd" clip-rule="evenodd" d="m26.895 25.702 2.242 5.26H34l-.42-1-6.241-14.867-.476-1.132-.646 1.045-3.63 5.87-.587.95-.588-.95-3.634-5.87-.647-1.045-.475 1.132-6.236 14.868-.42 1h4.864l2.24-5.261.463-1.085.675.967 3.148 4.506.61.873.61-.873 3.148-4.506.675-.967.462 1.085ZM22 29.217l3.614-5.172 1.032-1.479.707 1.66 2.445 5.737h2.698L26.693 16.14l-3.843 6.214-.85 1.374-.85-1.374-3.847-6.214-5.8 13.823h2.7l2.444-5.738.707-1.659 1.032 1.479L22 29.217Z" fill="#fff"/></svg>