<svg width="44" height="55" viewBox="0 0 44 55" fill="none" xmlns="http://www.w3.org/2000/svg">
<path d="M44 22.5629C44 38.7629 22 54.9629 22 54.9629C22 54.9629 0 38.7629 0 22.5629C0 16.8342 2.31785 11.3402 6.44365 7.28938C10.5695 3.2386 16.1652 0.962891 22 0.962891C27.8348 0.962891 33.4305 3.2386 37.5564 7.28938C41.6822 11.3402 44 16.8342 44 22.5629Z" fill="#212721"/>
<path d="M27.1384 18.1032C29.0968 18.1032 30.69 16.51 30.69 14.5516C30.69 12.5932 29.0968 11 27.1384 11C25.1801 11 23.5869 12.5932 23.5869 14.5516C23.5869 16.51 25.1801 18.1032 27.1384 18.1032ZM27.1384 12.8254C28.0902 12.8254 28.8646 13.5998 28.8646 14.5516C28.8646 15.5034 28.0902 16.2778 27.1384 16.2778C26.1866 16.2778 25.4123 15.5034 25.4123 14.5516C25.4123 13.5998 26.1866 12.8254 27.1384 12.8254Z" fill="white"/>
<path d="M34.7373 19.7117C34.3835 19.3528 33.8056 19.3483 33.4466 19.7023C33.4255 19.7235 30.9932 21.6611 23.7538 18.5671C20.6227 17.2289 18.1051 17.1027 16.2707 18.1917C14.0314 19.521 13.757 22.1339 13.7464 22.2445C13.6985 22.7443 14.0638 23.1864 14.5633 23.237C14.5943 23.2401 14.6252 23.2417 14.6557 23.2417C15.1169 23.2417 15.513 22.8916 15.5629 22.4234C15.5649 22.4053 15.7735 20.599 17.2165 19.7531C18.5037 18.9984 20.5163 19.1687 23.0362 20.2457C26.4564 21.7073 28.9726 22.1591 30.7774 22.159C33.43 22.1588 34.545 21.1826 34.7278 21.0024C35.0869 20.6486 35.0911 20.0707 34.7373 19.7117Z" fill="white"/>
<path d="M23.1383 22.5072C22.7906 22.1437 22.2145 22.13 21.85 22.4766C17.4848 26.6257 10.832 32.9273 10.3544 33.3212C9.9604 33.6257 9.88282 34.1913 10.1827 34.5909C10.362 34.8299 10.6361 34.956 10.9135 34.956C11.104 34.956 11.2963 34.8964 11.4605 34.7733C11.8762 34.4614 19.2853 27.4313 22.4481 24.4264L26.8468 29.0251C27.0418 29.229 26.977 29.4521 26.94 29.5386C26.9031 29.625 26.7868 29.8261 26.5046 29.8261H20.4835C19.9794 29.8261 19.5708 30.2347 19.5708 30.7388C19.5708 31.2428 19.9794 31.6515 20.4835 31.6515H26.5045C27.4407 31.6515 28.2508 31.1166 28.6185 30.2558C28.9863 29.3949 28.8129 28.4399 28.1658 27.7635L23.1383 22.5072Z" fill="white"/>
</svg>
