<svg width="44" height="55" fill="none" xmlns="http://www.w3.org/2000/svg"><path d="M44 22.563c0 16.2-22 32.4-22 32.4s-22-16.2-22-32.4C0 16.834 2.318 11.34 6.444 7.289 10.569 3.24 16.165.963 22 .963c5.835 0 11.43 2.276 15.556 6.326C41.682 11.34 44 16.834 44 22.563Z" fill="#212721"/><path fill-rule="evenodd" clip-rule="evenodd" d="m22.005 10.963.152.048 10.61 3.343.349.11v5.701c.154.163.273.382.321.618.066.32.002.661-.226.964l.746 1.671.043.098v.106c0 .227-.065.554-.274.838-.227.309-.598.529-1.11.529-.516 0-.887-.226-1.09-.572a1.365 1.365 0 0 1-.163-.867l.006-.038.011-.036c.109-.355.37-1.14.647-1.759-.214-.308-.289-.636-.223-.957.05-.246.176-.442.312-.586v-4.669l-2.536.77v4.95l-.142.145c-.925.953-3.643 2.752-7.431 2.752-3.79 0-6.428-1.8-7.314-2.761l-.133-.144V16.26l-3.058-.95-1.507-.47 1.502-.484 10.356-3.343.152-.05Zm-6.444 5.607v4.248c.845.816 3.152 2.304 6.446 2.304 3.294 0 5.68-1.488 6.573-2.311v-4.233l-6.428 1.95-.147.045-.146-.045-6.299-1.958Zm13.805-2.24-7.357-2.318-8.703 2.81 1.903.591 6.8 2.114 6.925-2.102.312-.094h-7.24v-1h7.36Zm3.264 8.57c-.117.32-.217.622-.28.823a.44.44 0 0 0 .004.084.31.31 0 0 0 .033.103.11.11 0 0 0 .046.045.383.383 0 0 0 .183.034.46.46 0 0 0 .21-.041.258.258 0 0 0 .094-.08.437.437 0 0 0 .07-.162l-.36-.806Zm-19.861.708c.437-.36.868-.362 1.028-.362h.124l.109.057c2.188 1.148 4.001 1.99 5.64 2.659.559.228 1.098.436 1.625.63 1.732.635 3.34 1.112 5.113 1.617 1.192.188 1.96.861 2.306 1.747.34.865.258 1.876-.105 2.743-.363.87-1.036 1.657-1.959 2.035-.942.385-2.071.313-3.26-.407a33.857 33.857 0 0 0-4.32-2.208c.076.205.184.386.296.543.092.127.176.226.253.316l.07.082c.022.027.048.058.071.09a.73.73 0 0 1 .086.15.526.526 0 0 1-.061.519.532.532 0 0 1-.429.209h-.001c-.134 0-.263-.037-.351-.066a2.3 2.3 0 0 1-.127-.046.57.57 0 0 1-.426.25.622.622 0 0 1-.327-.065l-.04-.02-.036-.027c-.545-.4-.815-1.052-.95-1.615a4.896 4.896 0 0 1-.073-.358c-.348.39-.736.64-1.087.791a2.495 2.495 0 0 1-.768.205c-.093.007-.21.009-.318-.016a.533.533 0 0 1-.304-.18.512.512 0 0 1-.102-.466 10.157 10.157 0 0 1-.22-.068 2.19 2.19 0 0 1-.118-.042h-.002a.701.701 0 0 1-.168-.092.507.507 0 0 1 .28-.915.918.918 0 0 1 .085-.004c.258 0 .6-.136.964-.37.063-.04.124-.081.183-.124a53.552 53.552 0 0 0-4.286-1.118l-.214-.047-.11-.19c-.66-1.131-.762-2.104-.553-2.879.204-.76.691-1.271 1.11-1.517l.21-.124.226.089.096.038c.207-.71.5-1.164.84-1.444Zm.104 1.78a75.33 75.33 0 0 1 3.76 1.36l-.366.93c-.84-.33-2.837-1.082-4.13-1.472l-.019-.006-.019-.007-.376-.148c-.18.162-.374.422-.47.78-.118.439-.105 1.077.346 1.93 1.624.364 3.296.796 5.006 1.366-.09-1.255.223-2.202.732-2.886.255-.342.552-.609.856-.81a69.937 69.937 0 0 1-4.508-2.174.538.538 0 0 0-.28.128c-.145.12-.361.393-.532 1.01Zm6.562 1.558c-.389.1-.91.368-1.296.886-.392.527-.682 1.362-.488 2.653l.143.053c-.14-1.198.216-2.112.821-2.765a3.679 3.679 0 0 1 1.002-.754l-.182-.073Zm1.634.628c-.54.089-1.24.36-1.72.879-.457.492-.773 1.267-.462 2.507a35.255 35.255 0 0 1 3.56 1.674 4.215 4.215 0 0 1-.116-1.643 5.59 5.59 0 0 1 .23-1.014c-.205-.08-.477-.18-.777-.288a118.8 118.8 0 0 0-1.833-.64l.323-.947c.485.165 1.221.42 1.849.646.313.113.603.22.822.306.11.043.206.082.281.115.038.017.075.034.11.052l.002.001c.018.01.092.048.156.11a.53.53 0 0 1 .15.284c.012.069.01.127.006.162a1.004 1.004 0 0 1-.034.174 3.75 3.75 0 0 1-.067.215l-.028.088a4.663 4.663 0 0 0-.197.857c-.08.653-.008 1.506.663 2.407.923.533 1.693.531 2.285.289.628-.257 1.131-.816 1.415-1.495.284-.68.322-1.418.096-1.992-.212-.543-.677-.993-1.54-1.125-.098-.005-.284.053-.52.295-.229.235-.436.58-.556.955-.122.378-.141.738-.057 1.016.076.25.242.466.585.598.085.02.145.006.196-.021a.519.519 0 0 0 .194-.21.758.758 0 0 0 .095-.323c.005-.106-.021-.148-.023-.15a.5.5 0 0 1 .794-.608c.187.245.24.543.228.801a1.76 1.76 0 0 1-.22.767c-.26.466-.81.91-1.55.703l-.02-.006-.018-.006c-.654-.24-1.05-.702-1.218-1.255-.16-.53-.1-1.107.062-1.612.157-.488.424-.953.753-1.305a62.562 62.562 0 0 1-3.899-1.261Zm1.803 2.533Zm-6.628 1.347a2.122 2.122 0 0 1-.677.49.618.618 0 0 0-.014-.026c.09-.05.174-.1.255-.152.154-.1.301-.206.436-.312Zm-1.45 1.069Zm-.328-1.152Z" fill="#fff"/></svg>