<svg width="86" height="86" viewBox="0 0 86 86" fill="none" xmlns="http://www.w3.org/2000/svg">
<g clip-path="url(#clip0_3395_3400)">
<path d="M84.0024 47.768C78.9949 44.5474 76.4012 39.145 76.4611 33.4162C76.4311 31.4274 75.0218 29.6761 73.0428 29.1715C69.3396 28.2216 64.512 25.9212 62.473 20.3259C61.9332 18.8417 60.5989 17.7731 59.0097 17.5356C55.2915 16.9865 51.8282 15.161 49.2644 12.3708C48.17 11.1686 47.2554 9.818 46.5507 8.36353C45.8761 6.93873 45.4113 5.41005 45.1714 3.83683C44.8116 1.49186 42.8176 -0.125876 40.4787 0.00769868C16.6853 1.62543 -1.42581 22.1514 0.0884456 45.7644C1.46777 67.2699 18.8893 84.5307 40.6286 85.9109C41.5882 85.9703 42.5477 86 43.4922 86C63.8223 86 81.4087 72.2567 85.8915 52.4134C86.2963 50.6176 85.5467 48.7624 84.0024 47.768ZM76.2812 44.0576L72.3082 42.9445L73.4776 38.8482L74.1223 39.0263C74.587 40.7924 75.3217 42.4992 76.2812 44.0576ZM46.5807 13.8698C46.5507 14.0182 46.5058 14.1814 46.4608 14.315C45.8761 15.9327 44.062 16.7936 42.4278 16.2296C40.7936 15.6508 39.924 13.8549 40.4937 12.2372C40.9585 10.9757 42.1579 10.1742 43.5072 10.1742C43.7021 10.1742 43.912 10.189 44.1219 10.2336C44.7966 11.5099 45.6362 12.7566 46.5807 13.8698ZM82.9679 51.7604C78.5901 71.099 60.8687 84.2042 40.8235 82.9426C20.5834 81.6662 4.36136 65.6076 3.08698 45.5714C1.67767 23.591 18.5294 4.47502 40.6736 2.97602C40.7036 2.97602 40.7336 2.97602 40.7636 2.97602C41.4682 2.97602 42.0679 3.52516 42.1879 4.28208C42.3378 5.29131 42.5777 6.27086 42.8775 7.23556C40.5837 7.47303 38.4997 8.95719 37.6601 11.2428C36.5356 14.4041 38.2148 17.8918 41.4083 19.0346C42.0829 19.2721 42.7576 19.376 43.4473 19.376C45.6812 19.376 47.8101 18.159 48.9046 16.1405C51.6482 18.4261 54.9916 19.9548 58.5449 20.4743C59.0546 20.5485 59.4744 20.875 59.6393 21.3351C61.6034 26.7226 65.9812 30.433 72.2782 32.0359C72.9678 32.214 73.4326 32.778 73.4476 33.4607L73.4626 34.0544C73.4626 34.6777 73.5076 35.2862 73.5526 35.8947C72.2182 35.865 70.9738 36.711 70.584 38.0468L69.4146 42.143C68.9648 43.7162 69.8943 45.3488 71.4836 45.7941L75.6215 46.9517C76.4761 47.1892 77.3007 47.0408 78.0953 46.5362C79.3247 47.9609 80.734 49.2225 82.3532 50.2466C82.863 50.5731 83.1029 51.1667 82.9679 51.7604Z" fill="#D38D7E"/>
<path d="M43.1161 28.9355L38.5733 27.7778C37.2389 27.4365 35.8596 27.6294 34.6752 28.327C33.4908 29.0245 32.6512 30.1228 32.3064 31.4437L31.1369 35.9407C30.7921 37.2616 30.987 38.627 31.6917 39.7995C32.3963 40.972 33.5058 41.8032 34.8401 42.1445L39.3829 43.3022C39.8177 43.406 40.2375 43.4654 40.6723 43.4654C41.5868 43.4654 42.4714 43.2279 43.281 42.753C44.4654 42.0555 45.305 40.9572 45.6498 39.6363L46.8193 35.1393C47.1641 33.8184 46.9692 32.4529 46.2645 31.2804C45.5749 30.108 44.4504 29.2768 43.1161 28.9355ZM43.9257 34.3972L42.7562 38.8942C42.6063 39.4433 42.2615 39.9034 41.7667 40.2003C41.272 40.4822 40.6873 40.5713 40.1325 40.4229L35.5897 39.2652C35.035 39.1317 34.5702 38.7755 34.2704 38.2857C33.9705 37.7959 33.8956 37.2171 34.0455 36.668L35.2149 32.1709C35.3649 31.6218 35.7097 31.1617 36.2044 30.8649C36.5343 30.6719 36.9091 30.5681 37.2989 30.5681C37.4788 30.5681 37.6587 30.5829 37.8386 30.6423L42.3814 31.7999C42.9362 31.9335 43.4009 32.2897 43.7008 32.7795C43.9856 33.2692 44.0606 33.848 43.9257 34.3972Z" fill="#D38D7E"/>
<path d="M23.103 48.2442C21.9335 47.0866 20.0295 47.0866 18.86 48.2442L15.8165 51.2571C14.6471 52.4147 14.6471 54.2996 15.8165 55.4572L18.86 58.4701C19.4448 59.0489 20.2094 59.3309 20.974 59.3309C21.7386 59.3309 22.5033 59.0341 23.088 58.4701L26.1315 55.4572C27.3009 54.2996 27.3009 52.4147 26.1315 51.2571L23.103 48.2442ZM20.989 56.3626L17.9455 53.3497L20.989 50.3369L24.0325 53.3497L20.989 56.3626Z" fill="#D38D7E"/>
<path d="M58.6503 65.1332C58.2155 64.4653 57.5559 64.0052 56.7613 63.8271C55.9816 63.6639 55.172 63.7974 54.4974 64.2278L50.8691 66.5283C50.1945 66.9587 49.7297 67.6117 49.5648 68.3835C49.3849 69.1552 49.5348 69.9567 49.9696 70.6246L52.2934 74.2162C52.7282 74.8841 53.3879 75.3442 54.1825 75.5223C54.3924 75.5668 54.6173 75.5965 54.8272 75.5965C55.3969 75.5965 55.9517 75.4332 56.4314 75.1216L60.0596 72.8211C60.7343 72.3907 61.1991 71.7377 61.364 70.9659C61.5439 70.1942 61.394 69.3927 60.9592 68.7248L58.6503 65.1332ZM54.8122 72.6133L52.4883 69.0217L56.1166 66.7212L58.4404 70.3129L54.8122 72.6133Z" fill="#D38D7E"/>
<path d="M37.4763 60.7686C35.0025 60.7686 32.9785 62.7722 32.9785 65.221C32.9785 67.6699 35.0025 69.6735 37.4763 69.6735C39.9501 69.6735 41.9741 67.6699 41.9741 65.221C41.9741 62.7722 39.9501 60.7686 37.4763 60.7686ZM37.4763 66.7052C36.6517 66.7052 35.9771 66.0373 35.9771 65.221C35.9771 64.4047 36.6517 63.7369 37.4763 63.7369C38.3009 63.7369 38.9756 64.4047 38.9756 65.221C38.9756 66.0373 38.3009 66.7052 37.4763 66.7052Z" fill="#D38D7E"/>
<path d="M19.4897 32.5706C19.4897 30.1218 17.4657 28.1182 14.9919 28.1182C12.5182 28.1182 10.4941 30.1218 10.4941 32.5706C10.4941 35.0195 12.5182 37.0231 14.9919 37.0231C17.4657 37.0231 19.4897 35.0195 19.4897 32.5706ZM13.4927 32.5706C13.4927 31.7544 14.1673 31.0865 14.9919 31.0865C15.8165 31.0865 16.4912 31.7544 16.4912 32.5706C16.4912 33.3869 15.8165 34.0548 14.9919 34.0548C14.1673 34.0548 13.4927 33.3869 13.4927 32.5706Z" fill="#D38D7E"/>
<path d="M58.4658 44.4443C55.1524 44.4443 52.4688 47.101 52.4688 50.381C52.4688 53.661 55.1524 56.3176 58.4658 56.3176C61.7792 56.3176 64.4629 53.661 64.4629 50.381C64.4629 47.101 61.7792 44.4443 58.4658 44.4443ZM58.4658 53.3493C56.8166 53.3493 55.4673 52.0136 55.4673 50.381C55.4673 48.7484 56.8166 47.4127 58.4658 47.4127C60.115 47.4127 61.4644 48.7484 61.4644 50.381C61.4644 52.0136 60.115 53.3493 58.4658 53.3493Z" fill="#D38D7E"/>
</g>
<defs>
<clipPath id="clip0_3395_3400">
<rect width="86" height="86" fill="white"/>
</clipPath>
</defs>
</svg>
