<svg width="500" height="104" viewBox="0 0 500 104" fill="none" xmlns="http://www.w3.org/2000/svg">
<path d="M16.3962 43.8961V69.4459C16.3962 73.1039 17.0118 75.2987 18.2988 76.0866C19.3621 76.7056 21.2087 77.1558 23.8388 77.4372V80.3636C18.8025 79.8009 14.8293 79.4632 11.9754 79.4632C9.06547 79.4632 5.09233 79.7446 0.0559597 80.3636V77.4372C2.63011 77.1558 4.47678 76.7056 5.59597 76.0866C6.21153 75.7489 6.65921 75.2987 6.88304 74.7359C7.33072 73.6667 7.4986 71.8658 7.4986 69.4459V10.9177C7.4986 7.25974 6.88304 5.06493 5.59597 4.27706C4.36486 3.60173 2.51819 3.15152 0 2.92641V0H24.5104C32.1209 0 37.6049 1.9697 40.9066 5.90909C44.488 10.1861 46.2787 15.5325 46.2787 21.9481C46.2787 25.381 45.7191 28.645 44.5439 31.684C43.4247 34.7229 41.8019 37.1991 39.7874 39C36.3179 42.2641 31.5053 43.8961 25.4617 43.8961H16.3962ZM16.3962 40.1818H22.272C26.6368 40.1818 29.9384 39.1126 32.0649 37.0303C35.4785 33.6537 37.2132 28.5325 37.2132 21.5541C37.2132 16.9394 36.2619 12.8312 34.4152 9.22944C32.4566 5.51515 28.6514 3.65801 22.8875 3.65801H16.3962V40.1818Z" fill="#212721"/>
<path d="M61.9478 2.75756C60.7726 1.46292 59.3736 0.84375 57.7508 0.84375C56.1839 0.84375 54.8968 1.35035 53.7776 2.36354C52.4906 3.5456 51.875 4.95281 51.875 6.64146C51.875 8.16125 52.3786 9.45588 53.33 10.5817C54.5051 11.8763 55.9041 12.4955 57.6389 12.4955C59.1498 12.4955 60.4368 11.9889 61.556 10.9757C62.8431 9.8499 63.4587 8.44269 63.4587 6.69775C63.4587 5.17796 62.955 3.82704 61.9478 2.75756Z" fill="#212721"/>
<path d="M114.493 77.9441V80.364C110.296 79.9138 106.77 79.7449 103.972 79.7449C101.118 79.7449 97.593 79.9701 93.5639 80.364V77.9441C96.8096 77.719 98.3765 76.9874 98.3765 75.5804C98.3765 74.7926 98.0407 73.667 97.3692 72.2601L89.8146 55.6584L81.2528 71.1908C80.1896 73.048 79.6859 74.5112 79.6859 75.5804C79.6859 76.9311 81.3647 77.719 84.7783 77.9441V80.364C81.1968 80.0263 78.5667 79.8575 76.776 79.8575C75.4889 79.8575 71.4039 80.1952 69.5572 80.3077C68.9417 80.364 68.3261 80.364 67.7665 80.3077C63.7374 79.9138 60.4917 79.6887 58.0855 79.6887C55.5113 79.6887 51.9299 79.9138 47.4531 80.364V77.9441C49.6356 77.7752 51.2024 77.4376 52.2097 76.8748C53.3289 76.2558 53.8885 74.4549 53.8885 71.4722V33.4852C53.8885 29.9397 53.3289 27.8575 52.1537 27.2384C51.3143 26.7882 49.7475 26.5068 47.5091 26.4506V24.4246C52.7133 23.8055 57.6378 22.7363 62.2824 21.2168V71.4722C62.2824 74.4549 62.842 76.2558 63.9053 76.8748C64.7447 77.325 65.9758 77.6627 67.5986 77.8315C68.438 77.9441 69.2774 77.9441 70.0608 77.7752C70.7324 77.6627 71.5158 77.5501 72.3552 77.2688C73.9221 76.6497 75.7128 74.5675 77.7273 70.9657L88.1918 52.1129L78.175 30.39C76.9999 27.8012 75.4889 26.2817 73.6982 25.7752C72.9708 25.5501 71.9075 25.3813 70.6204 25.3813V22.9614C74.5936 23.4116 78.0071 23.6367 80.7492 23.6367C83.5471 23.6367 86.8488 23.4116 90.71 22.9614V25.3813C87.7441 25.6064 86.2892 26.338 86.2892 27.6324C86.2892 28.2514 86.6809 29.377 87.4084 30.9527L93.1162 43.5025L100.111 31.009C100.895 29.6021 101.286 28.4203 101.286 27.5198C101.286 26.2817 99.7195 25.5501 96.5858 25.3813V22.9614C99.6635 23.299 102.238 23.4116 104.364 23.4116C106.491 23.4116 109.121 23.2428 112.254 22.9614V25.3813C110.632 25.4939 109.345 25.719 108.449 26.0566C106.938 26.6194 105.483 28.1389 104.084 30.6151L94.7391 46.9917L106.099 71.6973C107.666 75.0739 109.456 77.0437 111.415 77.5501C112.087 77.7753 113.15 77.8878 114.493 77.9441Z" fill="#212721"/>
<path d="M142.978 61.5105H146.783C146.335 66.6317 144.88 70.9651 142.474 74.5668C139.62 78.9564 135.423 81.1512 129.939 81.1512C123.504 81.1512 118.635 78.2248 115.333 72.372C112.2 66.8006 110.633 59.8785 110.633 51.5495C110.633 43.333 112.2 36.5235 115.277 31.0646C117.012 28.0819 119.251 25.7746 122.049 24.0863C124.175 22.7919 126.581 22.1729 129.267 22.1729C132.793 22.1729 136.039 23.4109 138.948 25.8871C143.033 29.32 145.552 35.7356 146.447 45.0213C146.615 46.4283 146.727 48.1729 146.727 50.3114H119.195C119.307 55.2638 119.53 59.2594 119.866 62.1858C121.041 72.2032 124.735 77.1555 131.002 77.1555C134.64 77.1555 137.382 75.6923 139.34 72.7096C141.299 69.727 142.53 66.0127 142.978 61.5105ZM138.333 46.2594C137.997 32.2464 134.919 25.2118 129.155 25.2118C126.861 25.2118 124.903 26.5062 123.336 29.0387C121.097 32.5278 119.866 38.2681 119.474 46.2594H138.333Z" fill="#212721"/>
<path d="M146.166 26.2243V24.1983C150.923 23.7481 155.176 22.9603 158.813 21.9473C159.428 24.3109 159.876 27.6875 160.212 32.0771C163.066 25.4927 166.983 22.1724 172.075 22.1724C177.392 22.1724 181.7 25.0425 185.002 30.7828C188.248 36.4105 189.815 43.3325 189.815 51.6053C189.815 59.9343 188.248 66.9126 185.058 72.5403C181.868 78.2243 177.615 81.0382 172.299 81.0382C169.445 81.0382 167.095 80.2503 165.192 78.6183C163.793 77.4364 162.394 75.5793 160.995 72.9906V95.0512C160.995 97.6962 161.387 99.3845 162.17 100.116C163.01 100.96 164.745 101.41 167.431 101.579V103.999C163.066 103.493 159.428 103.211 156.575 103.211C153.721 103.211 150.251 103.493 146.166 103.999V101.579C148.013 101.467 149.356 101.185 150.307 100.791C151.035 100.454 151.594 100.116 151.874 99.6096C152.378 98.8217 152.657 97.3022 152.657 95.0512V33.4841C152.657 29.7135 152.042 27.575 150.755 26.8996C149.915 26.6183 148.404 26.3369 146.166 26.2243ZM171.236 25.549C168.382 25.549 166.088 27.181 164.297 30.3888C162.059 34.5533 160.939 41.4191 160.939 50.9299C160.939 68.7135 164.409 77.6615 171.348 77.6615C177.839 77.6615 181.085 69.0512 181.085 51.8867C181.085 34.3282 177.783 25.549 171.236 25.549Z" fill="#212721"/>
<path d="M213.822 26.3931V71.471C213.822 74.4537 214.381 76.2546 215.5 76.8736C216.508 77.4364 218.074 77.774 220.257 77.9429V80.3628C215.724 79.9126 212.199 79.6875 209.625 79.6875C206.994 79.6875 203.469 79.9126 198.992 80.3628V77.9429C201.175 77.774 202.797 77.4364 203.805 76.8736C204.868 76.2546 205.428 74.4537 205.428 71.471V26.3931H203.637C201.063 26.3931 199.16 26.9559 197.929 28.0251C196.698 29.0944 195.579 31.0078 194.627 33.6528C194.236 34.6658 193.676 36.4104 192.949 38.8866H190.486L192.669 23.2979H226.636L228.819 38.8866H226.357C225.069 34.6095 224.006 31.7957 223.223 30.445C222.383 28.9818 221.432 27.9688 220.481 27.4061C219.25 26.7308 217.683 26.3931 215.668 26.3931H213.822Z" fill="#212721"/>
<path d="M371.348 0V2.92641C369.39 3.09524 367.935 3.37662 366.983 3.77056C365.92 4.1645 365.137 4.671 364.689 5.34632C364.13 6.24675 363.85 8.1039 363.85 10.9177V69.4459C363.85 72.7099 364.297 74.7922 365.193 75.5801C366.144 76.4805 368.215 77.0996 371.292 77.3809V80.3074C366.368 79.7446 362.395 79.4069 359.485 79.4069C356.575 79.4069 352.546 79.6883 347.509 80.3074V77.3809C349.804 77.1558 351.483 76.8182 352.546 76.3117C353.273 75.974 353.833 75.5238 354.113 75.0173C354.672 74.1169 355.008 72.2597 355.008 69.3896V11.6493C355.008 8.49784 354.672 6.52814 353.945 5.74026C353.105 4.78355 351.651 4.1645 349.58 3.88312C348.629 3.77056 346.166 3.71429 342.193 3.71429C337.605 3.71429 334.807 3.82684 333.743 4.05195C331.841 4.44589 330.61 5.12121 329.994 6.02164C329.434 6.97835 329.155 8.8355 329.155 11.6493V69.3896C329.155 72.6537 329.602 74.7359 330.498 75.5238C331.449 76.4242 333.52 77.0433 336.597 77.3247V80.2511C331.505 79.6883 327.532 79.3506 324.622 79.3506C321.656 79.3506 317.683 79.632 312.814 80.2511V77.3247C314.885 77.1558 316.452 76.8182 317.459 76.368C318.41 76.0303 319.026 75.5238 319.418 74.961C319.977 74.0043 320.257 72.1472 320.257 69.3333V10.8052C320.257 7.54112 319.809 5.45887 318.914 4.671C317.907 3.77056 315.892 3.15151 312.814 2.87013V0H371.348Z" fill="#212721"/>
<path d="M411.137 76.8173V79.9688C408.898 80.5316 406.996 80.8129 405.429 80.8129C401.008 80.8129 398.49 77.5489 397.986 70.9645C395.412 77.6614 391.215 81.038 385.507 81.038C381.646 81.038 378.456 79.6311 376.05 76.8735C373.588 74.0034 372.301 70.2891 372.301 65.7307C372.301 59.5402 374.651 54.7567 379.408 51.38C384.164 48.0034 389.928 45.7523 396.699 44.6268V36.1289C396.699 31.5705 395.86 28.5315 394.181 27.0683C392.95 25.9991 391.383 25.4363 389.536 25.4363C387.186 25.4363 385.283 26.2242 383.828 27.7437C382.821 28.8129 382.318 30.2199 382.318 32.0207C382.318 32.4709 382.318 32.9774 382.374 33.5402C382.429 34.3281 382.43 35.0034 382.43 35.5662C382.43 38.9428 381.031 40.6311 378.233 40.6311C375.882 40.6311 374.763 39.2805 374.763 36.5229C374.763 32.5835 376.386 29.1506 379.576 26.2805C382.597 23.5792 386.235 22.2285 390.432 22.2285C393.957 22.2285 397.035 23.2415 399.553 25.2112C402.127 27.2372 403.806 30.1073 404.59 33.8216C404.925 35.6787 405.093 38.2112 405.093 41.419V66.5186C405.093 72.2025 405.653 75.5229 406.772 76.5359C407.276 76.9861 407.891 77.2112 408.675 77.2112C409.346 77.2112 410.13 77.0986 411.137 76.8173ZM396.755 47.722C393.286 48.5662 390.432 49.5792 388.193 50.8735C383.325 53.7437 380.919 58.4147 380.919 64.8865C380.919 69.2199 381.87 72.3151 383.828 74.116C385.06 75.2415 386.515 75.8043 388.193 75.8043C393.901 75.8043 396.755 69.8952 396.755 58.1333V47.722Z" fill="#212721"/>
<path d="M408.73 26.2243V24.1983C413.487 23.7481 417.74 22.9603 421.377 21.9473C421.993 24.3109 422.441 27.6875 422.776 32.0771C425.63 25.4927 429.547 22.1724 434.64 22.1724C439.956 22.1724 444.265 25.0425 447.566 30.7828C450.812 36.4105 452.379 43.3325 452.379 51.6053C452.379 59.9343 450.812 66.9126 447.622 72.5403C444.433 78.2243 440.18 81.0382 434.864 81.0382C432.01 81.0382 429.659 80.2503 427.757 78.6183C426.358 77.4364 424.959 75.5793 423.56 72.9906V95.0512C423.56 97.6962 423.951 99.3845 424.735 100.116C425.574 100.96 427.309 101.41 429.995 101.579V103.999C425.63 103.493 421.993 103.211 419.139 103.211C416.285 103.211 412.816 103.493 408.73 103.999V101.579C410.577 101.467 411.92 101.185 412.871 100.791C413.599 100.454 414.159 100.116 414.438 99.6096C414.942 98.8217 415.222 97.3022 415.222 95.0512V33.4841C415.222 29.7135 414.606 27.575 413.319 26.8996C412.48 26.6183 410.969 26.3369 408.73 26.2243ZM433.8 25.549C430.946 25.549 428.652 27.181 426.861 30.3888C424.623 34.5533 423.504 41.4191 423.504 50.9299C423.504 68.7135 426.973 77.6615 433.912 77.6615C440.404 77.6615 443.649 69.0512 443.649 51.8867C443.649 34.3282 440.348 25.549 433.8 25.549Z" fill="#212721"/>
<path d="M466.816 58.0222V71.6975C466.816 74.5113 467.375 76.2559 468.494 76.9875C469.446 77.5503 470.845 77.9442 472.635 78.0568V80.4204C468.606 79.9702 465.137 79.7451 462.339 79.7451C459.597 79.7451 456.127 79.9702 451.986 80.4204V78.0005C454.169 77.8317 455.736 77.494 456.743 76.9312C457.862 76.3122 458.422 74.5113 458.422 71.5286V31.797C458.422 28.8144 457.862 27.0135 456.743 26.3945C455.736 25.8317 454.113 25.494 451.986 25.3252V22.9053C456.127 23.3555 459.597 23.5806 462.339 23.5806C465.193 23.5806 468.606 23.3555 472.635 22.9053V25.3252C470.845 25.4377 469.446 25.7754 468.494 26.3945C467.375 27.0698 466.816 28.8706 466.816 31.6845V52.9009L481.421 33.0351C482.932 30.9529 483.715 29.3209 483.715 28.1953C483.715 26.6196 481.981 25.6628 478.455 25.4377V23.0178C481.701 23.4118 484.611 23.5806 487.185 23.5806C489.815 23.5806 493.005 23.4118 496.698 23.0178V25.4377C494.236 25.7191 492.389 26.2256 491.214 26.9009C490.039 27.5763 488.696 28.9832 487.073 31.1217L476.944 44.5719L491.438 71.4724C492.893 74.1174 494.068 75.862 494.963 76.6499C495.803 77.3815 497.482 77.8317 500 78.0005V80.4204C495.747 80.0265 492.501 79.8576 490.207 79.8576C487.912 79.8576 484.611 80.0265 480.358 80.4204V78.0568C480.917 78.0005 481.309 77.9442 481.533 77.8879C483.883 77.7191 485.003 77.0438 485.003 75.9745C485.003 75.468 484.667 74.5676 483.939 73.2732L471.964 51.2689L466.816 58.0222Z" fill="#212721"/>
<path d="M296.699 43.953C298.378 41.1392 299.945 39.3383 301.511 38.4941C302.966 37.7063 304.757 37.3123 306.828 37.2561L307.779 33.598H290.655L289.704 37.2561C291.942 37.3686 293.285 38.1002 293.621 39.4509C293.957 40.8015 293.118 43.334 290.935 47.0483C286.067 54.927 282.709 60.2734 280.75 62.8058L280.247 63.5374L272.692 36.2431L272.972 36.0742C281.646 30.1089 287.074 23.4119 289.144 16.2084C290.264 11.8751 290.264 8.38592 289.032 5.7409C287.801 3.15216 285.227 1.91406 281.03 1.91406C275.043 1.91406 269.614 5.12185 265.082 11.4812C260.493 17.7842 259.486 25.3816 261.892 33.9357L263.347 39.1132L263.011 39.3383C251.148 46.1478 243.649 54.8145 240.851 64.9444C239.228 71.0786 239.9 76.0309 242.866 79.4638C245.832 82.953 249.917 84.7539 255.009 84.7539C260.997 84.7539 267.208 81.8275 273.308 76.031L273.755 75.5807L274.035 76.1998C276.218 81.8838 280.918 84.7539 287.969 84.7539C294.684 84.7539 298.825 82.0526 300.448 76.5937H296.867C296.363 78.1132 295.524 79.2387 294.293 79.9703C293.062 80.7582 291.663 81.1522 290.208 81.1522C288.305 81.1522 286.794 80.5894 285.675 79.5764C284.612 78.5071 283.716 76.5937 282.877 73.7236L281.142 67.4206L281.31 67.2517C284.835 62.8621 289.984 55.0396 296.699 43.953ZM270.286 17.6154C271.013 13.7322 272.245 10.7496 274.035 8.66731C275.77 6.64134 277.785 5.57207 279.967 5.57207C281.758 5.57207 283.157 6.19112 283.996 7.31666C285.395 9.1738 285.395 12.4941 283.996 17.4465C282.037 24.0872 278.232 29.5461 272.524 33.6543L272.077 33.992L271.517 32.0786C269.95 26.3946 269.558 21.4985 270.286 17.6154ZM272.692 72.2041C267.88 76.65 263.235 78.9011 259.038 78.9011C255.289 78.9011 252.491 77.3253 250.812 74.1738C249.133 71.0786 249.021 66.8015 250.532 61.3989C252.938 52.676 257.359 46.0915 263.571 41.8708L264.074 41.5331L272.86 72.0353L272.692 72.2041Z" fill="#212721"/>
</svg>
