<svg xmlns="http://www.w3.org/2000/svg" width="1200" height="801" fill="none" viewBox="0 0 1200 801" data-about-map>
    <image href="./assets/images/about/about-map.png" width="1200" height="801" x="0" y="0"/>
  <g class="about-map__about-map">
    <g class="about-map__вул. about-map__Кирилівська">
      <mask id="about-map__a" width="122" height="17" x="540" y="746" fill="#000" class="about-map__a" maskUnits="userSpaceOnUse">
        <path fill="#fff" d="M540 746h122v17H540z"/>
        <path d="M541.634 750.392h3.744c2.09 0 3.136.731 3.136 2.192 0 .928-.4 1.557-1.2 1.888 1.034.299 1.552.971 1.552 2.016 0 .853-.294 1.488-.88 1.904-.587.405-1.371.608-2.352.608h-4v-8.608Zm1.456 3.616h2.192c.565 0 .992-.091 1.28-.272.288-.192.432-.523.432-.992 0-.416-.144-.699-.432-.848-.288-.16-.731-.24-1.328-.24h-2.144v2.352Zm0 1.2v2.528h2.32c1.29 0 1.936-.421 1.936-1.264 0-.469-.16-.795-.48-.976-.31-.192-.811-.288-1.504-.288h-2.272Zm6.329 6.592v-1.216h.592c.544 0 .933-.08 1.168-.24.245-.16.459-.549.64-1.168l.064-.176-3.104-8.608h1.616l2.192 6.64 2.128-6.64h1.52l-3.072 8.976c-.235.672-.453 1.163-.656 1.472-.192.32-.469.56-.832.72-.363.16-.864.24-1.504.24h-.752Zm13.797-11.408V759h-1.456v-7.344h-2.896l-.128 2.08c-.107 1.803-.384 3.131-.832 3.984-.448.853-1.157 1.28-2.128 1.28h-.272v-1.264h.16c.971 0 1.531-1.467 1.68-4.4l.128-2.944h5.744ZM566.69 759h-1.84v-1.84h1.84V759Zm11.974 0-4.032-5.28h-1.216V759h-1.632v-11.6h1.632v4.912h1.168l3.904-4.912h1.968l-4.48 5.488 4.64 6.112h-1.952Zm8.612 0v-6.496L582.828 759h-1.456v-8.608h1.456v6.496l4.448-6.496h1.456V759h-1.456Zm3.284-8.608h1.456v1.36c.576-1.003 1.514-1.504 2.816-1.504 1.034 0 1.904.405 2.608 1.216.714.811 1.072 1.899 1.072 3.264 0 1.376-.358 2.469-1.072 3.28-.704.8-1.574 1.2-2.608 1.2-1.302 0-2.24-.501-2.816-1.504v4.096h-1.456v-11.408Zm2.112 1.92c-.48.544-.72 1.349-.72 2.416s.24 1.872.72 2.416c.49.544 1.088.816 1.792.816.757 0 1.354-.283 1.792-.848.448-.576.672-1.371.672-2.384s-.224-1.803-.672-2.368c-.438-.576-1.035-.864-1.792-.864-.704 0-1.302.272-1.792.816ZM605.574 759v-6.496L601.126 759h-1.456v-8.608h1.456v6.496l4.448-6.496h1.456V759h-1.456Zm10.084-8.608V759h-1.456v-7.344h-2.896l-.128 2.08c-.107 1.803-.384 3.131-.832 3.984-.448.853-1.157 1.28-2.128 1.28h-.272v-1.264h.16c.971 0 1.531-1.467 1.68-4.4l.128-2.944h5.744Zm1.826 0h1.456V759h-1.456v-8.608Zm0-2.992h1.456v1.76h-1.456v-1.76Zm3.235 2.992h3.744c2.09 0 3.136.731 3.136 2.192 0 .928-.4 1.557-1.2 1.888 1.034.299 1.552.971 1.552 2.016 0 .853-.294 1.488-.88 1.904-.587.405-1.371.608-2.352.608h-4v-8.608Zm1.456 3.616h2.192c.565 0 .992-.091 1.28-.272.288-.192.432-.523.432-.992 0-.416-.144-.699-.432-.848-.288-.16-.731-.24-1.328-.24h-2.144v2.352Zm0 1.2v2.528h2.32c1.29 0 1.936-.421 1.936-1.264 0-.469-.16-.795-.48-.976-.31-.192-.811-.288-1.504-.288h-2.272Zm10.329-4.96c.992 0 1.808.304 2.448.912.651.608 1.035 1.312 1.152 2.112h-1.472a2.086 2.086 0 0 0-.768-1.248c-.405-.331-.891-.496-1.456-.496-.693 0-1.28.272-1.76.816-.48.544-.72 1.328-.72 2.352 0 1.035.24 1.835.72 2.4.48.555 1.067.832 1.76.832.587 0 1.088-.165 1.504-.496.416-.341.677-.752.784-1.232h1.504c-.16.832-.597 1.541-1.312 2.128-.704.587-1.547.88-2.528.88-1.227 0-2.203-.416-2.928-1.248-.725-.832-1.088-1.915-1.088-3.248 0-1.301.379-2.368 1.136-3.2.757-.843 1.765-1.264 3.024-1.264Zm6.234 3.184h2.048c1.12 0 1.936.224 2.448.672.512.437.768 1.12.768 2.048 0 1.013-.277 1.744-.832 2.192-.554.437-1.354.656-2.4.656h-3.488v-8.608h1.456v3.04Zm0 4.304h1.904c.662 0 1.147-.123 1.456-.368.32-.245.48-.651.48-1.216 0-.544-.16-.923-.48-1.136-.309-.213-.805-.32-1.488-.32h-1.872v3.04Zm11.8 1.264-2.96-3.824h-1.104V759h-1.472v-8.608h1.472v3.52h1.072l2.736-3.52h1.728l-3.248 4.064 3.584 4.544h-1.808Zm7.699-3.6v-.544c-1.461.139-2.549.341-3.264.608-.704.267-1.056.677-1.056 1.232 0 .416.149.747.448.992.299.245.704.368 1.216.368.768 0 1.403-.208 1.904-.624.501-.416.752-1.093.752-2.032Zm-2.976 3.808c-.843 0-1.547-.219-2.112-.656-.565-.448-.848-1.056-.848-1.824 0-.491.128-.912.384-1.264.267-.352.672-.64 1.216-.864a9.151 9.151 0 0 1 1.808-.544 30.164 30.164 0 0 1 2.416-.352v-.208c0-1.397-.651-2.096-1.952-2.096-.597 0-1.067.149-1.408.448-.341.299-.528.72-.56 1.264h-1.504c.064-.885.432-1.589 1.104-2.112a3.763 3.763 0 0 1 2.352-.784c1.184 0 2.053.288 2.608.864.555.576.827 1.472.816 2.688l-.016 1.984c-.011 1.397.064 2.48.224 3.248h-1.472a9.678 9.678 0 0 1-.112-1.184c-.544.928-1.525 1.392-2.944 1.392Z"/>
      </mask>
      <path fill="#000" d="M541.634 750.392h3.744c2.09 0 3.136.731 3.136 2.192 0 .928-.4 1.557-1.2 1.888 1.034.299 1.552.971 1.552 2.016 0 .853-.294 1.488-.88 1.904-.587.405-1.371.608-2.352.608h-4v-8.608Zm1.456 3.616h2.192c.565 0 .992-.091 1.28-.272.288-.192.432-.523.432-.992 0-.416-.144-.699-.432-.848-.288-.16-.731-.24-1.328-.24h-2.144v2.352Zm0 1.2v2.528h2.32c1.29 0 1.936-.421 1.936-1.264 0-.469-.16-.795-.48-.976-.31-.192-.811-.288-1.504-.288h-2.272Zm6.329 6.592v-1.216h.592c.544 0 .933-.08 1.168-.24.245-.16.459-.549.64-1.168l.064-.176-3.104-8.608h1.616l2.192 6.64 2.128-6.64h1.52l-3.072 8.976c-.235.672-.453 1.163-.656 1.472-.192.32-.469.56-.832.72-.363.16-.864.24-1.504.24h-.752Zm13.797-11.408V759h-1.456v-7.344h-2.896l-.128 2.08c-.107 1.803-.384 3.131-.832 3.984-.448.853-1.157 1.28-2.128 1.28h-.272v-1.264h.16c.971 0 1.531-1.467 1.68-4.4l.128-2.944h5.744ZM566.69 759h-1.84v-1.84h1.84V759Zm11.974 0-4.032-5.28h-1.216V759h-1.632v-11.6h1.632v4.912h1.168l3.904-4.912h1.968l-4.48 5.488 4.64 6.112h-1.952Zm8.612 0v-6.496L582.828 759h-1.456v-8.608h1.456v6.496l4.448-6.496h1.456V759h-1.456Zm3.284-8.608h1.456v1.36c.576-1.003 1.514-1.504 2.816-1.504 1.034 0 1.904.405 2.608 1.216.714.811 1.072 1.899 1.072 3.264 0 1.376-.358 2.469-1.072 3.28-.704.8-1.574 1.2-2.608 1.2-1.302 0-2.24-.501-2.816-1.504v4.096h-1.456v-11.408Zm2.112 1.92c-.48.544-.72 1.349-.72 2.416s.24 1.872.72 2.416c.49.544 1.088.816 1.792.816.757 0 1.354-.283 1.792-.848.448-.576.672-1.371.672-2.384s-.224-1.803-.672-2.368c-.438-.576-1.035-.864-1.792-.864-.704 0-1.302.272-1.792.816ZM605.574 759v-6.496L601.126 759h-1.456v-8.608h1.456v6.496l4.448-6.496h1.456V759h-1.456Zm10.084-8.608V759h-1.456v-7.344h-2.896l-.128 2.08c-.107 1.803-.384 3.131-.832 3.984-.448.853-1.157 1.28-2.128 1.28h-.272v-1.264h.16c.971 0 1.531-1.467 1.68-4.4l.128-2.944h5.744Zm1.826 0h1.456V759h-1.456v-8.608Zm0-2.992h1.456v1.76h-1.456v-1.76Zm3.235 2.992h3.744c2.09 0 3.136.731 3.136 2.192 0 .928-.4 1.557-1.2 1.888 1.034.299 1.552.971 1.552 2.016 0 .853-.294 1.488-.88 1.904-.587.405-1.371.608-2.352.608h-4v-8.608Zm1.456 3.616h2.192c.565 0 .992-.091 1.28-.272.288-.192.432-.523.432-.992 0-.416-.144-.699-.432-.848-.288-.16-.731-.24-1.328-.24h-2.144v2.352Zm0 1.2v2.528h2.32c1.29 0 1.936-.421 1.936-1.264 0-.469-.16-.795-.48-.976-.31-.192-.811-.288-1.504-.288h-2.272Zm10.329-4.96c.992 0 1.808.304 2.448.912.651.608 1.035 1.312 1.152 2.112h-1.472a2.086 2.086 0 0 0-.768-1.248c-.405-.331-.891-.496-1.456-.496-.693 0-1.28.272-1.76.816-.48.544-.72 1.328-.72 2.352 0 1.035.24 1.835.72 2.4.48.555 1.067.832 1.76.832.587 0 1.088-.165 1.504-.496.416-.341.677-.752.784-1.232h1.504c-.16.832-.597 1.541-1.312 2.128-.704.587-1.547.88-2.528.88-1.227 0-2.203-.416-2.928-1.248-.725-.832-1.088-1.915-1.088-3.248 0-1.301.379-2.368 1.136-3.2.757-.843 1.765-1.264 3.024-1.264Zm6.234 3.184h2.048c1.12 0 1.936.224 2.448.672.512.437.768 1.12.768 2.048 0 1.013-.277 1.744-.832 2.192-.554.437-1.354.656-2.4.656h-3.488v-8.608h1.456v3.04Zm0 4.304h1.904c.662 0 1.147-.123 1.456-.368.32-.245.48-.651.48-1.216 0-.544-.16-.923-.48-1.136-.309-.213-.805-.32-1.488-.32h-1.872v3.04Zm11.8 1.264-2.96-3.824h-1.104V759h-1.472v-8.608h1.472v3.52h1.072l2.736-3.52h1.728l-3.248 4.064 3.584 4.544h-1.808Zm7.699-3.6v-.544c-1.461.139-2.549.341-3.264.608-.704.267-1.056.677-1.056 1.232 0 .416.149.747.448.992.299.245.704.368 1.216.368.768 0 1.403-.208 1.904-.624.501-.416.752-1.093.752-2.032Zm-2.976 3.808c-.843 0-1.547-.219-2.112-.656-.565-.448-.848-1.056-.848-1.824 0-.491.128-.912.384-1.264.267-.352.672-.64 1.216-.864a9.151 9.151 0 0 1 1.808-.544 30.164 30.164 0 0 1 2.416-.352v-.208c0-1.397-.651-2.096-1.952-2.096-.597 0-1.067.149-1.408.448-.341.299-.528.72-.56 1.264h-1.504c.064-.885.432-1.589 1.104-2.112a3.763 3.763 0 0 1 2.352-.784c1.184 0 2.053.288 2.608.864.555.576.827 1.472.816 2.688l-.016 1.984c-.011 1.397.064 2.48.224 3.248h-1.472a9.678 9.678 0 0 1-.112-1.184c-.544.928-1.525 1.392-2.944 1.392Z"/>
      <path fill="#fff" d="M541.634 750.392v-1h-1v1h1Zm5.68 4.08-.382-.924-2.643 1.092 2.747.793.278-.961Zm.672 3.92.568.823.01-.007-.578-.816Zm-6.352.608h-1v1h1v-1Zm1.456-4.992h-1v1h1v-1Zm3.472-.272.532.846.011-.007.011-.007-.554-.832Zm0-1.84-.486.874.012.007.013.007.461-.888Zm-3.472-.24v-1h-1v1h1Zm0 3.552v-1h-1v1h1Zm0 2.528h-1v1h1v-1Zm3.776-2.24-.528.85.017.01.018.01.493-.87Zm-5.232-4.104h3.744v-2h-3.744v2Zm3.744 0c.959 0 1.501.173 1.779.368.213.148.357.365.357.824h2c0-1.002-.379-1.882-1.212-2.464-.767-.536-1.793-.728-2.924-.728v2Zm2.136 1.192c0 .32-.069.512-.144.632-.073.114-.197.232-.438.332l.764 1.848c.558-.231 1.034-.592 1.362-1.108.324-.51.456-1.096.456-1.704h-2Zm-.478 2.849c.369.106.552.251.649.377.095.124.181.324.181.678h2c0-.691-.174-1.35-.596-1.898-.42-.546-1.013-.886-1.679-1.079l-.555 1.922Zm.83 1.055c0 .598-.188.896-.459 1.088l1.157 1.632c.903-.64 1.302-1.611 1.302-2.72h-2Zm-.449 1.081c-.367.254-.931.431-1.783.431v2c1.11 0 2.114-.228 2.92-.785l-1.137-1.646Zm-1.783.431h-4v2h4v-2Zm-3 1v-8.608h-2V759h2Zm.456-3.992h2.192v-2h-2.192v2Zm2.192 0c.642 0 1.291-.098 1.812-.426l-1.065-1.692c-.055.034-.259.118-.747.118v2Zm1.834-.44c.66-.44.878-1.151.878-1.824h-2c0 .137-.022.193-.025.201-.001.002.002-.005.011-.016a.1.1 0 0 1 .027-.025l1.109 1.664Zm.878-1.824c0-.665-.255-1.364-.972-1.736l-.921 1.776a.256.256 0 0 1-.106-.11c-.019-.036-.001-.028-.001.07h2Zm-.947-1.722c-.513-.285-1.164-.366-1.813-.366v2c.545 0 .779.079.842.114l.971-1.748Zm-1.813-.366h-2.144v2h2.144v-2Zm-3.144 1v2.352h2v-2.352h-2Zm0 3.552v2.528h2v-2.528h-2Zm1 3.528h2.32v-2h-2.32v2Zm2.32 0c.722 0 1.437-.112 1.998-.479.636-.415.938-1.063.938-1.785h-2c0 .082-.016.105-.012.098.005-.01.009-.006-.019.013-.084.054-.337.153-.905.153v2Zm2.936-2.264c0-.714-.265-1.437-.987-1.846l-.986 1.74a.141.141 0 0 1-.045-.049c-.004-.009.018.03.018.155h2Zm-.953-1.826c-.556-.345-1.293-.438-2.031-.438v2c.648 0 .913.099.976.138l1.055-1.7Zm-2.031-.438h-2.272v2h2.272v-2Zm4.057 7.592h-1v1h1v-1Zm0-1.216v-1h-1v1h1Zm1.76-.24-.546-.838-.009.006-.008.006.563.826Zm.64-1.168-.94-.342-.011.03-.009.031.96.281Zm.064-.176.94.342.124-.341-.123-.34-.941.339Zm-3.104-8.608v-1h-1.424l.483 1.339.941-.339Zm1.616 0 .95-.313-.227-.687h-.723v1Zm2.192 6.64-.95.313.964 2.92.938-2.928-.952-.305Zm2.128-6.64v-1h-.73l-.222.695.952.305Zm1.52 0 .946.324.453-1.324h-1.399v1Zm-3.072 8.976.944.33.002-.006-.946-.324Zm-.656 1.472-.836-.548-.011.017-.01.017.857.514Zm-.832.72-.404-.915.404.915Zm-1.256.24v-1.216h-2v1.216h2Zm-1-.216h.592v-2h-.592v2Zm.592 0c.589 0 1.237-.077 1.731-.414l-1.126-1.652c.026-.018.007.003-.106.026a2.51 2.51 0 0 1-.499.04v2Zm1.714-.402c.314-.205.527-.499.675-.769a4.86 4.86 0 0 0 .379-.956l-1.92-.562a2.872 2.872 0 0 1-.213.556c-.065.119-.082.1-.013.055l1.092 1.676Zm1.034-1.664.064-.176-1.88-.684-.064.176 1.88.684Zm.065-.857-3.104-8.608-1.882.678 3.104 8.608 1.882-.678Zm-4.045-7.269h1.616v-2h-1.616v2Zm.666-.687 2.192 6.64 1.9-.626-2.192-6.64-1.9.626Zm4.094 6.632 2.128-6.64-1.904-.61-2.128 6.64 1.904.61Zm1.176-5.945h1.52v-2h-1.52v2Zm.574-1.324-3.072 8.976 1.892.648 3.072-8.976-1.892-.648Zm-3.07 8.97c-.228.652-.414 1.049-.548 1.254l1.673 1.096c.271-.414.522-.998.763-1.69l-1.888-.66Zm-.569 1.288a.78.78 0 0 1-.379.319l.808 1.83c.539-.238.98-.612 1.286-1.121l-1.715-1.028Zm-.379.319c-.181.08-.524.155-1.1.155v2c.704 0 1.363-.085 1.908-.325l-.808-1.83Zm-1.1.155h-.752v2h.752v-2Zm13.045-10.408h1v-1h-1v1Zm0 8.608v1h1v-1h-1Zm-1.456 0h-1v1h1v-1Zm0-7.344h1v-1h-1v1Zm-2.896 0v-1h-.94l-.058.939.998.061Zm-.128 2.08-.998-.061v.002l.998.059Zm-.832 3.984-.885-.465.885.465Zm-2.4 1.28h-1v1h1v-1Zm0-1.264v-1h-1v1h1Zm1.84-4.4.999.051v-.008l-.999-.043Zm.128-2.944v-1h-.957l-.042.957.999.043Zm4.744 0V759h2v-8.608h-2Zm1 7.608h-1.456v2h1.456v-2Zm-.456 1v-7.344h-2V759h2Zm-1-8.344h-2.896v2h2.896v-2Zm-3.894.939-.128 2.08 1.996.122.128-2.08-1.996-.122Zm-.128 2.082c-.105 1.763-.372 2.917-.719 3.578l1.77.93c.55-1.046.836-2.548.945-4.39l-1.996-.118Zm-.719 3.578c-.153.292-.325.464-.498.568-.174.105-.41.177-.745.177v2c.635 0 1.24-.141 1.776-.463.535-.322.943-.79 1.237-1.352l-1.77-.93Zm-1.243.745h-.272v2h.272v-2Zm.728 1v-1.264h-2V759h2Zm-1-.264h.16v-2h-.16v2Zm.16 0c1.129 0 1.758-.893 2.082-1.743.337-.883.521-2.109.597-3.606l-1.998-.102c-.073 1.437-.244 2.41-.467 2.994-.236.617-.372.457-.214.457v2Zm2.679-5.357.128-2.944-1.998-.086-.128 2.944 1.998.086Zm-.871-1.987h5.744v-2h-5.744v2ZM566.69 759v1h1v-1h-1Zm-1.84 0h-1v1h1v-1Zm0-1.84v-1h-1v1h1Zm1.84 0h1v-1h-1v1Zm0 .84h-1.84v2h1.84v-2Zm-.84 1v-1.84h-2V759h2Zm-1-.84h1.84v-2h-1.84v2Zm.84-1V759h2v-1.84h-2Zm12.974 1.84-.794.607.3.393h.494v-1Zm-4.032-5.28.795-.607-.3-.393h-.495v1Zm-1.216 0v-1h-1v1h1Zm0 5.28v1h1v-1h-1Zm-1.632 0h-1v1h1v-1Zm0-11.6v-1h-1v1h1Zm1.632 0h1v-1h-1v1Zm0 4.912h-1v1h1v-1Zm1.168 0v1h.483l.3-.378-.783-.622Zm3.904-4.912v-1h-.482l-.3.378.782.622Zm1.968 0 .775.632 1.333-1.632h-2.108v1Zm-4.48 5.488-.774-.632-.498.61.476.627.796-.605Zm4.64 6.112v1h2.015l-1.218-1.605-.797.605Zm-1.157-.607-4.032-5.28-1.589 1.214 4.032 5.28 1.589-1.214Zm-4.827-5.673h-1.216v2h1.216v-2Zm-2.216 1V759h2v-5.28h-2Zm1 4.28h-1.632v2h1.632v-2Zm-.632 1v-11.6h-2V759h2Zm-1-10.6h1.632v-2h-1.632v2Zm.632-1v4.912h2V747.4h-2Zm1 5.912h1.168v-2h-1.168v2Zm1.951-.378 3.904-4.912-1.565-1.244-3.904 4.912 1.565 1.244Zm3.121-4.534h1.968v-2h-1.968v2Zm1.194-1.632-4.48 5.488 1.549 1.264 4.48-5.488-1.549-1.264Zm-4.502 6.725 4.64 6.112 1.593-1.21-4.64-6.112-1.593 1.21Zm5.436 4.507h-1.952v2h1.952v-2Zm6.66 1h-1v1h1v-1Zm0-6.496h1v-3.23l-1.825 2.665.825.565ZM582.828 759v1h.527l.298-.435-.825-.565Zm-1.456 0h-1v1h1v-1Zm0-8.608v-1h-1v1h1Zm1.456 0h1v-1h-1v1Zm0 6.496h-1v3.23l1.825-2.665-.825-.565Zm4.448-6.496v-1h-.528l-.297.435.825.565Zm1.456 0h1v-1h-1v1Zm0 8.608v1h1v-1h-1Zm-.456 0v-6.496h-2V759h2Zm-1.825-7.061-4.448 6.496 1.65 1.13 4.448-6.496-1.65-1.13ZM582.828 758h-1.456v2h1.456v-2Zm-.456 1v-8.608h-2V759h2Zm-1-7.608h1.456v-2h-1.456v2Zm.456-1v6.496h2v-6.496h-2Zm1.825 7.061 4.448-6.496-1.65-1.13-4.448 6.496 1.65 1.13Zm3.623-6.061h1.456v-2h-1.456v2Zm.456-1V759h2v-8.608h-2Zm1 7.608h-1.456v2h1.456v-2Zm1.828-7.608v-1h-1v1h1Zm1.456 0h1v-1h-1v1Zm0 1.36h-1v3.748l1.867-3.25-.867-.498Zm5.424-.288-.755.656.005.005.75-.661Zm0 6.544-.75-.661h-.001l.751.661Zm-5.424-.304.867-.498-1.867-3.25v3.748h1Zm0 4.096v1h1v-1h-1Zm-1.456 0h-1v1h1v-1Zm2.112-9.488-.743-.67-.007.008.75.662Zm0 4.832-.75.662.007.008.743-.67Zm3.584-.032-.79-.614-.001.002.791.612Zm0-4.752-.797.605.007.008.006.008.784-.621Zm-5.696-.968h1.456v-2h-1.456v2Zm.456-1v1.36h2v-1.36h-2Zm1.867 1.858c.372-.648.951-1.002 1.949-1.002v-2c-1.605 0-2.904.649-3.683 2.006l1.734.996Zm1.949-1.002c.733 0 1.331.27 1.853.872l1.51-1.312c-.886-1.02-2.027-1.56-3.363-1.56v2Zm1.858.877c.514.584.822 1.415.822 2.603h2c0-1.543-.407-2.888-1.322-3.925l-1.5 1.322Zm.822 2.603c0 1.201-.309 2.036-.822 2.619l1.5 1.322c.916-1.039 1.322-2.39 1.322-3.941h-2Zm-.823 2.619c-.521.592-1.12.861-1.857.861v2c1.332 0 2.471-.531 3.359-1.539l-1.502-1.322Zm-1.857.861c-.998 0-1.577-.354-1.949-1.002l-1.734.996c.779 1.357 2.078 2.006 3.683 2.006v-2Zm-3.816-.504v4.096h2v-4.096h-2Zm1 3.096h-1.456v2h1.456v-2Zm-.456 1v-11.408h-2V761.8h2Zm.362-10.15c-.703.797-.97 1.88-.97 3.078h2c0-.935.212-1.463.47-1.754l-1.5-1.324Zm-.97 3.078c0 1.198.267 2.281.97 3.078l1.5-1.324c-.258-.291-.47-.819-.47-1.754h-2Zm.977 3.086c.672.744 1.535 1.146 2.535 1.146v-2c-.408 0-.74-.142-1.05-.486l-1.485 1.34Zm2.535 1.146c1.045 0 1.943-.41 2.583-1.236l-1.582-1.224c-.235.304-.532.46-1.001.46v2Zm2.581-1.234c.629-.809.883-1.847.883-2.998h-2c0 .876-.194 1.427-.462 1.77l1.579 1.228Zm.883-2.998c0-1.149-.253-2.188-.888-2.989l-1.568 1.242c.261.329.456.87.456 1.747h2Zm-.876-2.973c-.636-.838-1.535-1.259-2.588-1.259v2c.462 0 .757.155.995.469l1.593-1.21Zm-2.588-1.259c-1 0-1.863.402-2.535 1.146l1.485 1.34c.31-.344.642-.486 1.05-.486v-2Zm11.11 8.504h-1v1h1v-1Zm0-6.496h1v-3.23l-1.825 2.665.825.565ZM601.126 759v1h.527l.298-.435-.825-.565Zm-1.456 0h-1v1h1v-1Zm0-8.608v-1h-1v1h1Zm1.456 0h1v-1h-1v1Zm0 6.496h-1v3.23l1.825-2.665-.825-.565Zm4.448-6.496v-1h-.527l-.298.435.825.565Zm1.456 0h1v-1h-1v1Zm0 8.608v1h1v-1h-1Zm-.456 0v-6.496h-2V759h2Zm-1.825-7.061-4.448 6.496 1.65 1.13 4.448-6.496-1.65-1.13ZM601.126 758h-1.456v2h1.456v-2Zm-.456 1v-8.608h-2V759h2Zm-1-7.608h1.456v-2h-1.456v2Zm.456-1v6.496h2v-6.496h-2Zm1.825 7.061 4.448-6.496-1.65-1.13-4.448 6.496 1.65 1.13Zm3.623-6.061h1.456v-2h-1.456v2Zm.456-1V759h2v-8.608h-2Zm1 7.608h-1.456v2h1.456v-2Zm8.628-7.608h1v-1h-1v1Zm0 8.608v1h1v-1h-1Zm-1.456 0h-1v1h1v-1Zm0-7.344h1v-1h-1v1Zm-2.896 0v-1h-.94l-.058.939.998.061Zm-.128 2.08-.998-.061v.002l.998.059Zm-.832 3.984-.885-.465.885.465Zm-2.4 1.28h-1v1h1v-1Zm0-1.264v-1h-1v1h1Zm1.84-4.4.999.051v-.008l-.999-.043Zm.128-2.944v-1h-.958l-.041.957.999.043Zm4.744 0V759h2v-8.608h-2Zm1 7.608h-1.456v2h1.456v-2Zm-.456 1v-7.344h-2V759h2Zm-1-8.344h-2.896v2h2.896v-2Zm-3.894.939-.128 2.08 1.996.122.128-2.08-1.996-.122Zm-.128 2.082c-.105 1.763-.373 2.917-.719 3.578l1.77.93c.549-1.046.836-2.548.945-4.39l-1.996-.118Zm-.719 3.578c-.154.292-.325.464-.499.568-.173.105-.409.177-.744.177v2c.635 0 1.24-.141 1.775-.463.536-.322.943-.79 1.238-1.352l-1.77-.93Zm-1.243.745h-.272v2h.272v-2Zm.728 1v-1.264h-2V759h2Zm-1-.264h.16v-2h-.16v2Zm.16 0c1.129 0 1.758-.893 2.082-1.743.337-.883.52-2.109.597-3.606l-1.998-.102c-.073 1.437-.244 2.41-.467 2.994-.236.617-.373.457-.214.457v2Zm2.679-5.357.128-2.944-1.998-.086-.128 2.944 1.998.086Zm-.871-1.987h5.744v-2h-5.744v2Zm7.57-1v-1h-1v1h1Zm1.456 0h1v-1h-1v1Zm0 8.608v1h1v-1h-1Zm-1.456 0h-1v1h1v-1Zm0-11.6v-1h-1v1h1Zm1.456 0h1v-1h-1v1Zm0 1.76v1h1v-1h-1Zm-1.456 0h-1v1h1v-1Zm0 2.232h1.456v-2h-1.456v2Zm.456-1V759h2v-8.608h-2Zm1 7.608h-1.456v2h1.456v-2Zm-.456 1v-8.608h-2V759h2Zm-1-10.6h1.456v-2h-1.456v2Zm.456-1v1.76h2v-1.76h-2Zm1 .76h-1.456v2h1.456v-2Zm-.456 1v-1.76h-2v1.76h2Zm2.235 1.232v-1h-1v1h1Zm5.68 4.08-.382-.924-2.643 1.092 2.747.793.278-.961Zm.672 3.92.568.823.01-.007-.578-.816Zm-6.352.608h-1v1h1v-1Zm1.456-4.992h-1v1h1v-1Zm3.472-.272.532.846.011-.007.011-.007-.554-.832Zm0-1.84-.486.874.012.007.013.007.461-.888Zm-3.472-.24v-1h-1v1h1Zm0 3.552v-1h-1v1h1Zm0 2.528h-1v1h1v-1Zm3.776-2.24-.528.85.017.01.018.01.493-.87Zm-5.232-4.104h3.744v-2h-3.744v2Zm3.744 0c.959 0 1.501.173 1.779.368.213.148.357.365.357.824h2c0-1.002-.379-1.882-1.212-2.464-.767-.536-1.793-.728-2.924-.728v2Zm2.136 1.192c0 .32-.069.512-.144.632-.073.114-.197.232-.438.332l.764 1.848c.558-.231 1.034-.592 1.362-1.108.324-.51.456-1.096.456-1.704h-2Zm-.478 2.849c.369.106.552.251.649.377.095.124.181.324.181.678h2c0-.691-.174-1.35-.596-1.898-.42-.546-1.013-.886-1.679-1.079l-.555 1.922Zm.83 1.055c0 .598-.188.896-.459 1.088l1.157 1.632c.903-.64 1.302-1.611 1.302-2.72h-2Zm-.449 1.081c-.367.254-.931.431-1.783.431v2c1.11 0 2.114-.228 2.92-.785l-1.137-1.646Zm-1.783.431h-4v2h4v-2Zm-3 1v-8.608h-2V759h2Zm.456-3.992h2.192v-2h-2.192v2Zm2.192 0c.642 0 1.291-.098 1.812-.426l-1.065-1.692c-.055.034-.259.118-.747.118v2Zm1.834-.44c.66-.44.878-1.151.878-1.824h-2c0 .137-.022.193-.025.201-.001.002.002-.005.011-.016a.1.1 0 0 1 .027-.025l1.109 1.664Zm.878-1.824c0-.665-.255-1.364-.972-1.736l-.921 1.776a.256.256 0 0 1-.106-.11c-.019-.036-.001-.028-.001.07h2Zm-.947-1.722c-.513-.285-1.164-.366-1.813-.366v2c.545 0 .779.079.842.114l.971-1.748Zm-1.813-.366h-2.144v2h2.144v-2Zm-3.144 1v2.352h2v-2.352h-2Zm0 3.552v2.528h2v-2.528h-2Zm1 3.528h2.32v-2h-2.32v2Zm2.32 0c.722 0 1.437-.112 1.998-.479.636-.415.938-1.063.938-1.785h-2c0 .082-.016.105-.012.098.005-.01.009-.006-.019.013-.084.054-.337.153-.905.153v2Zm2.936-2.264c0-.714-.265-1.437-.987-1.846l-.986 1.74a.141.141 0 0 1-.045-.049c-.004-.009.018.03.018.155h2Zm-.953-1.826c-.556-.345-1.293-.438-2.031-.438v2c.648 0 .913.099.976.138l1.055-1.7Zm-2.031-.438h-2.272v2h2.272v-2Zm10.505-3.048-.689.725.006.006.683-.731Zm1.152 2.112v1h1.157l-.168-1.145-.989.145Zm-1.472 0-.979.204.166.796h.813v-1Zm-.768-1.248-.632.775.006.005.006.005.62-.785Zm-3.216 5.072-.762.647.006.007.756-.654Zm3.264.336.622.783.006-.005.006-.005-.634-.773Zm.784-1.232v-1h-.802l-.174.783.976.217Zm1.504 0 .982.189.229-1.189H636.2v1Zm-1.312 2.128-.634-.773-.006.005.64.768Zm-5.456-.368.754-.657-.754.657Zm.048-6.448.74.673.004-.005-.744-.668Zm3.024-.264c.77 0 1.329.228 1.759.637l1.378-1.45c-.85-.807-1.923-1.187-3.137-1.187v2Zm1.765.643c.503.47.765.973.846 1.526l1.978-.29c-.153-1.047-.66-1.952-1.458-2.698l-1.366 1.462Zm1.835.381h-1.472v2h1.472v-2Zm-.493.796a3.084 3.084 0 0 0-1.127-1.829l-1.24 1.57c.219.172.35.382.409.667l1.958-.408Zm-1.115-1.819c-.599-.488-1.312-.721-2.088-.721v2c.355 0 .612.098.824.271l1.264-1.55Zm-2.088-.721c-.995 0-1.85.407-2.51 1.154l1.5 1.324c.3-.341.618-.478 1.01-.478v-2Zm-2.51 1.154c-.697.79-.97 1.846-.97 3.014h2c0-.88.207-1.392.47-1.69l-1.5-1.324Zm-.97 3.014c0 1.179.273 2.241.958 3.047l1.524-1.294c-.275-.325-.482-.862-.482-1.753h-2Zm.964 3.054c.657.76 1.514 1.178 2.516 1.178v-2c-.384 0-.701-.137-1.004-.486l-1.512 1.308Zm2.516 1.178c.788 0 1.515-.227 2.126-.713l-1.244-1.566c-.221.175-.496.279-.882.279v2Zm2.138-.723c.572-.469.966-1.069 1.126-1.788l-1.952-.434c-.054.241-.182.462-.442.676l1.268 1.546Zm.15-1.005h1.504v-2h-1.504v2Zm.522-1.189c-.112.581-.413 1.091-.964 1.544l1.269 1.546c.877-.72 1.451-1.629 1.659-2.712l-1.964-.378Zm-.97 1.549c-.511.426-1.123.648-1.888.648v2c1.197 0 2.271-.364 3.168-1.112l-1.28-1.536Zm-1.888.648c-.974 0-1.661-.317-2.174-.905l-1.508 1.314c.938 1.076 2.202 1.591 3.682 1.591v-2Zm-2.174-.905c-.535-.614-.842-1.447-.842-2.591h-2c0 1.522.419 2.855 1.334 3.905l1.508-1.314Zm-.842-2.591c0-1.094.312-1.908.876-2.527l-1.479-1.346c-.951 1.045-1.397 2.364-1.397 3.873h2Zm.88-2.532c.545-.606 1.27-.932 2.28-.932v-2c-1.507 0-2.798.517-3.768 1.596l1.488 1.336Zm8.514 1.252h-1v1h1v-1Zm4.496.672-.658.753.009.007.649-.76Zm-.064 4.24.62.785.009-.007-.629-.778Zm-5.888.656h-1v1h1v-1Zm0-8.608v-1h-1v1h1Zm1.456 0h1v-1h-1v1Zm0 7.344h-1v1h1v-1Zm3.36-.368-.608-.794-.007.005-.006.006.621.783Zm0-2.352-.567.823.006.005.007.004.554-.832Zm-3.36-.32v-1h-1v1h1Zm0-.264h2.048v-2h-2.048v2Zm2.048 0c1.024 0 1.546.211 1.79.425l1.317-1.506c-.78-.682-1.89-.919-3.107-.919v2Zm1.799.432c.214.184.417.537.417 1.288h2c0-1.105-.309-2.117-1.118-2.808l-1.299 1.52Zm.417 1.288c0 .844-.227 1.226-.46 1.414l1.257 1.556c.876-.708 1.203-1.788 1.203-2.97h-2Zm-.451 1.407c-.311.245-.856.441-1.781.441v2c1.167 0 2.221-.241 3.019-.871l-1.238-1.57Zm-1.781.441h-3.488v2h3.488v-2Zm-2.488 1v-8.608h-2V759h2Zm-1-7.608h1.456v-2h-1.456v2Zm.456-1v3.04h2v-3.04h-2Zm1 8.344h1.904v-2h-1.904v2Zm1.904 0c.748 0 1.507-.132 2.078-.585l-1.243-1.566c-.048.037-.26.151-.835.151v2Zm2.065-.574c.656-.503.871-1.266.871-2.01h-2a.999.999 0 0 1-.05.361c-.019.048-.034.058-.038.061l1.217 1.588Zm.871-2.01c0-.728-.222-1.499-.925-1.968l-1.109 1.664c-.015-.009-.016-.021-.007.001a.83.83 0 0 1 .041.303h2Zm-.912-1.959c-.565-.39-1.314-.497-2.056-.497v2c.624 0 .867.106.921.143l1.135-1.646Zm-2.056-.497h-1.872v2h1.872v-2Zm-2.872 1v3.04h2v-3.04h-2Zm12.8 4.304-.791.612.3.388h.491v-1Zm-2.96-3.824.79-.612-.3-.388h-.49v1Zm-1.104 0v-1h-1v1h1Zm0 3.824v1h1v-1h-1Zm-1.472 0h-1v1h1v-1Zm0-8.608v-1h-1v1h1Zm1.472 0h1v-1h-1v1Zm0 3.52h-1v1h1v-1Zm1.072 0v1h.489l.3-.386-.789-.614Zm2.736-3.52v-1h-.49l-.3.386.79.614Zm1.728 0 .781.624 1.298-1.624h-2.079v1Zm-3.248 4.064-.781-.624-.496.62.492.623.785-.619Zm3.584 4.544v1h2.062l-1.277-1.619-.785.619Zm-1.018-.612-2.96-3.824-1.581 1.224 2.96 3.824 1.581-1.224Zm-3.75-4.212h-1.104v2h1.104v-2Zm-2.104 1V759h2v-3.824h-2Zm1 2.824h-1.472v2h1.472v-2Zm-.472 1v-8.608h-2V759h2Zm-1-7.608h1.472v-2h-1.472v2Zm.472-1v3.52h2v-3.52h-2Zm1 4.52h1.072v-2h-1.072v2Zm1.861-.386 2.736-3.52-1.579-1.228-2.736 3.52 1.579 1.228Zm1.947-3.134h1.728v-2h-1.728v2Zm.947-1.624-3.248 4.064 1.562 1.248 3.248-4.064-1.562-1.248Zm-3.252 5.307 3.584 4.544 1.57-1.238-3.584-4.544-1.57 1.238Zm4.369 2.925h-1.808v2h1.808v-2Zm5.891-3.144h1v-1.099l-1.095.103.095.996Zm-3.264.608-.35-.937-.004.002.354.935Zm-.608 2.224.635-.773-.635.773Zm3.12-.256.639.77-.639-.77Zm-4.336 1.12-.621.784.009.007.612-.791Zm-.464-3.088-.797-.604-.006.008-.006.008.809.588Zm1.216-.864.381.925.009-.004-.39-.921Zm1.808-.544.193.981-.193-.981Zm2.416-.352.11.994.89-.099v-.895h-1Zm-3.92-.592v1h.943l.055-.941-.998-.059Zm-1.504 0-.997-.072-.078 1.072h1.075v-1Zm1.104-2.112-.608-.794-.006.005.614.789Zm4.96.08.72-.694-.72.694Zm.816 2.688-1-.009v.001l1 .008Zm-.016 1.984-1-.008 1 .008Zm.224 3.248v1h1.23l-.251-1.204-.979.204Zm-1.472 0-.988.152.13.848h.858v-1Zm-.112-1.184 1-.029-.1-3.484-1.763 3.007.863.506Zm1.032-2.416v-.544h-2v.544h2Zm-1.095-1.54c-1.483.141-2.678.353-3.519.667l.7 1.874c.588-.22 1.57-.413 3.008-.549l-.189-1.992Zm-3.523.669c-.451.17-.878.42-1.197.792a2.077 2.077 0 0 0-.505 1.375h2c0-.031.005-.044.005-.046a.081.081 0 0 1 .018-.027c.033-.038.134-.128.387-.224l-.708-1.87Zm-1.702 2.167c0 .689.264 1.313.813 1.765l1.27-1.546c-.048-.039-.083-.076-.083-.219h-2Zm.813 1.765c.529.434 1.183.595 1.851.595v-2c-.356 0-.512-.084-.581-.141l-1.27 1.546Zm1.851.595c.957 0 1.831-.264 2.543-.854l-1.278-1.54c-.291.242-.687.394-1.265.394v2Zm2.543-.854c.817-.679 1.113-1.702 1.113-2.802h-2c0 .777-.205 1.109-.391 1.262l1.278 1.54Zm-2.863.006c-.662 0-1.14-.168-1.5-.447l-1.224 1.582c.771.596 1.701.865 2.724.865v-2Zm-1.491-.44c-.309-.244-.469-.555-.469-1.04h-2c0 1.051.405 1.956 1.227 2.608l1.242-1.568Zm-.469-1.04c0-.307.077-.516.193-.676l-1.618-1.176c-.396.544-.575 1.178-.575 1.852h2Zm.181-.66c.129-.17.368-.365.8-.543l-.762-1.85c-.656.27-1.228.651-1.632 1.185l1.594 1.208Zm.809-.547a8.182 8.182 0 0 1 1.611-.484l-.386-1.962c-.711.14-1.381.34-2.005.604l.78 1.842Zm1.611-.484c.614-.121 1.39-.234 2.333-.339l-.22-1.988c-.977.109-1.812.23-2.499.365l.386 1.962Zm3.223-1.333v-.208h-2v.208h2Zm0-.208c0-.836-.193-1.649-.756-2.254-.576-.618-1.372-.842-2.196-.842v2c.477 0 .657.125.732.206.088.094.22.328.22.89h2Zm-2.952-3.096c-.762 0-1.492.192-2.067.695l1.317 1.506c.108-.095.317-.201.75-.201v-2Zm-2.067.695c-.582.51-.855 1.205-.899 1.958l1.996.118c.02-.335.121-.483.22-.57l-1.317-1.506Zm.099 1.017h-1.504v2h1.504v-2Zm-.507 1.072c.045-.616.283-1.054.721-1.395l-1.228-1.578c-.906.705-1.404 1.675-1.487 2.829l1.994.144Zm.715-1.39a2.764 2.764 0 0 1 1.744-.578v-2c-1.098 0-2.097.33-2.96.99l1.216 1.588Zm1.744-.578c1.043 0 1.596.255 1.888.558l1.44-1.388c-.817-.849-2.003-1.17-3.328-1.17v2Zm1.888.558c.297.309.546.897.536 1.985l2 .018c.012-1.344-.284-2.548-1.096-3.391l-1.44 1.388Zm.536 1.986-.016 1.984 2 .016.016-1.984-2-.016Zm-.016 1.984c-.011 1.423.063 2.588.245 3.46l1.958-.408c-.139-.664-.214-1.664-.203-3.036l-2-.016Zm1.224 2.256h-1.472v2h1.472v-2Zm-.484.848a8.617 8.617 0 0 1-.1-1.061l-2 .058c.012.419.054.855.124 1.307l1.976-.304Zm-1.963-1.538c-.307.525-.888.898-2.081.898v2c1.645 0 3.026-.555 3.807-1.886l-1.726-1.012Z" mask="url(#about-map__a)"/>
    </g>
    <g class="about-map__вул. about-map__Нижньоюрківська">
      <mask id="about-map__b" width="24.98" height="164.634" x="70.542" y="457.867" fill="#000" class="about-map__b" maskUnits="userSpaceOnUse">
        <path fill="#fff" d="M70.542 457.867h24.98v164.634h-24.98z"/>
        <path d="m74.995 620.521.183-3.74c.102-2.088.883-3.097 2.342-3.025.927.045 1.536.475 1.828 1.29.348-1.019 1.045-1.502 2.089-1.451.852.041 1.472.365 1.859.971.376.606.54 1.399.492 2.379l-.195 3.995-8.598-.419Zm3.683-1.278.107-2.19c.028-.564-.042-.995-.21-1.291-.177-.297-.5-.457-.97-.48-.415-.021-.704.109-.867.39-.174.28-.275.718-.305 1.314l-.104 2.142 2.349.115Zm1.198.058 2.525.124.114-2.318c.063-1.289-.327-1.954-1.168-1.995-.47-.023-.802.121-.999.432-.207.299-.327.795-.36 1.488l-.112 2.269Zm6.893-6-1.214-.059.029-.592c.026-.543-.035-.936-.183-1.178-.148-.253-.526-.485-1.135-.696l-.173-.073-8.75 2.681.08-1.615 6.739-1.865-6.529-2.449.075-1.519 8.815 3.507c.66.267 1.14.509 1.438.727.31.207.537.496.679.866.142.37.197.875.166 1.514l-.037.751Zm-10.72-14.337 8.597.42-.071 1.454-7.335-.358-.142 2.892 2.072.23c1.795.194 3.108.536 3.938 1.025.83.489 1.222 1.218 1.175 2.188l-.013.272-1.263-.062.008-.16c.047-.969-1.39-1.6-4.313-1.893l-2.934-.271.28-5.737Zm8.766-3.05-.09 1.838-1.837-.09.09-1.838 1.837.09Zm-10.96-13.373.08-1.63 11.585.566-.08 1.63-5.257-.257-.297 6.089 5.258.256-.08 1.631-11.586-.566.08-1.63 4.921.24.298-6.089-4.922-.24Zm12.058-9.092-6.489-.317 6.272 4.759-.071 1.455-8.598-.42.07-1.455 6.49.317-6.272-4.759.07-1.454 8.599.419-.071 1.455Zm-3.967-11.924 4.692-2.927-.085 1.742-3.93 2.403-.062 1.263 3.804.186-.071 1.454-3.804-.186-.06 1.215 3.677 2.79-.087 1.774-4.336-3.383-4.247 2.676.083-1.694 3.648-2.225.06-1.215-3.532-.172.071-1.454 3.532.172.06-1.214-3.415-2.586.082-1.678 3.92 3.059Zm5.078-10.83-.071 1.454-3.756-.183-.207 4.251 3.755.183-.07 1.454-8.599-.419.072-1.455 3.58.175.207-4.251-3.58-.175.071-1.454 8.598.42Zm-5.402-3.541.1-2.045c.055-1.119.318-1.923.79-2.413.463-.49 1.157-.712 2.084-.667 1.012.05 1.728.362 2.149.938.41.575.589 1.385.538 2.429l-.17 3.484-8.598-.42.07-1.454 3.037.148Zm4.3.21.092-1.902c.032-.66-.066-1.151-.296-1.472-.23-.331-.627-.511-1.192-.538-.543-.027-.929.114-1.158.424-.228.298-.359.788-.392 1.47l-.091 1.87 3.036.148Zm-2.65-7.438c1.077.052 1.893-.153 2.45-.617.546-.465.837-1.065.873-1.8a2.359 2.359 0 0 0-.726-1.862c-.52-.527-1.3-.816-2.345-.867-1.076-.053-1.887.153-2.433.618-.556.464-.853 1.064-.889 1.799-.035.735.196 1.36.694 1.876.487.515 1.28.799 2.377.853Zm-3.339.157c-.727-.858-1.063-1.841-1.01-2.949.055-1.108.486-2.053 1.293-2.836.807-.783 1.935-1.139 3.384-1.068 1.449.071 2.537.535 3.264 1.393.727.857 1.063 1.84 1.01 2.948-.055 1.108-.486 2.054-1.293 2.837-.807.783-1.935 1.139-3.384 1.068-1.449-.071-2.537-.535-3.264-1.393Zm-.405-15.315c.054-1.108.485-2.054 1.292-2.837.807-.783 1.935-1.139 3.384-1.068 1.449.071 2.537.535 3.264 1.393.727.858 1.063 1.841 1.01 2.949-.049.98-.427 1.837-1.135 2.571-.72.723-1.726 1.102-3.02 1.134l-.083 1.71 3.756.184-.072 1.454-8.597-.42.07-1.454 3.58.175.086-1.742c-1.219-.199-2.124-.681-2.717-1.446a3.863 3.863 0 0 1-.818-2.603Zm7.67.374a2.356 2.356 0 0 0-.725-1.861c-.52-.528-1.3-.817-2.345-.868-1.076-.052-1.887.154-2.433.618-.556.464-.853 1.064-.889 1.799-.032.671.201 1.249.7 1.732.49.473 1.284.736 2.381.789 1.076.053 1.892-.137 2.447-.569.544-.433.832-.979.865-1.64Zm-7.267-5.68.071-1.455 1.359.067c-.974-.625-1.429-1.587-1.365-2.886.05-1.034.498-1.882 1.342-2.546.844-.674 1.948-.978 3.312-.911 1.374.067 2.449.477 3.224 1.23.764.743 1.122 1.63 1.071 2.664-.063 1.3-.61 2.213-1.64 2.739l4.092.2-.071 1.454-11.395-.556Zm2.021-2.016c.52.506 1.313.785 2.378.837 1.065.052 1.882-.149 2.448-.601.567-.464.868-1.047.903-1.75.037-.757-.216-1.367-.76-1.832-.553-.475-1.336-.738-2.348-.787-1.012-.05-1.812.136-2.398.555-.597.409-.914.992-.95 1.748-.035.703.208 1.313.727 1.83Zm7.291-12.193-3.963 2.77-.054 1.103 3.82.186-.073 1.47-8.597-.42.072-1.47 3.515.172.053-1.071-3.383-2.904.085-1.726 3.9 3.442 4.714-3.358-.088 1.806Zm-8.472-2.975.07-1.455 8.598.42-.07 1.455-8.598-.42Zm-2.989-.146.071-1.454 1.758.085-.071 1.455-1.758-.086Zm3.146-3.085.183-3.74c.102-2.088.883-3.097 2.342-3.025.927.045 1.536.475 1.828 1.29.348-1.018 1.045-1.502 2.089-1.451.852.041 1.472.365 1.859.971.376.606.54 1.399.492 2.379l-.195 3.996-8.598-.42Zm3.683-1.278.107-2.19c.028-.564-.042-.995-.21-1.291-.177-.297-.5-.457-.969-.48-.415-.021-.705.109-.868.39-.174.28-.275.718-.305 1.315l-.104 2.141 2.35.115Zm1.199.058 2.525.124.113-2.318c.063-1.289-.326-1.954-1.168-1.995-.469-.023-.802.121-.998.432-.207.299-.328.795-.361 1.488l-.111 2.269Zm-4.45-10.559c.048-.991.391-1.791 1.03-2.4.639-.621 1.36-.97 2.166-1.048l-.072 1.47a2.086 2.086 0 0 0-1.284.706c-.35.389-.54.866-.567 1.43-.033.693.21 1.292.73 1.798s1.29.784 2.314.834c1.033.051 1.844-.15 2.432-.602.577-.452.883-1.025.917-1.717.028-.586-.112-1.095-.422-1.527-.321-.432-.718-.713-1.193-.843l.074-1.502c.823.2 1.51.672 2.061 1.414.552.732.804 1.588.756 2.568-.06 1.225-.523 2.18-1.39 2.864-.866.684-1.965.993-3.297.928-1.3-.064-2.346-.494-3.14-1.291-.805-.797-1.177-1.825-1.115-3.082Zm3.484-6.071.1-2.046c.054-1.119.318-1.923.79-2.412.462-.49 1.157-.713 2.083-.667 1.013.049 1.729.362 2.15.938.409.575.588 1.385.537 2.429l-.17 3.484-8.597-.42.07-1.455 3.037.149Zm4.299.21.093-1.902c.032-.661-.067-1.151-.297-1.472-.23-.332-.626-.512-1.191-.539-.543-.027-.93.115-1.158.424-.228.298-.359.789-.392 1.471l-.092 1.869 3.037.149Zm1.838-11.724-3.964 2.77-.054 1.103 3.82.186-.072 1.47-8.598-.42.072-1.47 3.516.172.052-1.071-3.382-2.904.084-1.726 3.9 3.442 4.714-3.358-.088 1.806Zm-3.22-7.866-.544-.026c.068 1.466.217 2.563.448 3.289.232.717.625 1.088 1.18 1.115.415.021.752-.112 1.012-.399.26-.286.402-.685.427-1.196.037-.767-.14-1.412-.53-1.933-.391-.521-1.056-.804-1.993-.85Zm3.658 3.158c-.041.842-.294 1.535-.758 2.078-.475.543-1.096.795-1.863.758-.49-.024-.905-.172-1.244-.445-.339-.284-.607-.703-.804-1.257a9.166 9.166 0 0 1-.455-1.832 30.008 30.008 0 0 1-.234-2.431l-.207-.01c-1.396-.068-2.126.548-2.19 1.848-.028.596.098 1.072.38 1.428.281.355.693.562 1.235.621l-.074 1.502c-.88-.107-1.566-.509-2.055-1.206a3.763 3.763 0 0 1-.669-2.387c.058-1.183.388-2.037.99-2.563.603-.526 1.511-.754 2.725-.684l1.981.113c1.395.079 2.48.057 3.255-.065l-.072 1.47a9.45 9.45 0 0 1-1.188.054c.9.589 1.316 1.591 1.247 3.008Z"/>
      </mask>
      <path fill="#000" d="m74.995 620.521.183-3.74c.102-2.088.883-3.097 2.342-3.025.927.045 1.536.475 1.828 1.29.348-1.019 1.045-1.502 2.089-1.451.852.041 1.472.365 1.859.971.376.606.54 1.399.492 2.379l-.195 3.995-8.598-.419Zm3.683-1.278.107-2.19c.028-.564-.042-.995-.21-1.291-.177-.297-.5-.457-.97-.48-.415-.021-.704.109-.867.39-.174.28-.275.718-.305 1.314l-.104 2.142 2.349.115Zm1.198.058 2.525.124.114-2.318c.063-1.289-.327-1.954-1.168-1.995-.47-.023-.802.121-.999.432-.207.299-.327.795-.36 1.488l-.112 2.269Zm6.893-6-1.214-.059.029-.592c.026-.543-.035-.936-.183-1.178-.148-.253-.526-.485-1.135-.696l-.173-.073-8.75 2.681.08-1.615 6.739-1.865-6.529-2.449.075-1.519 8.815 3.507c.66.267 1.14.509 1.438.727.31.207.537.496.679.866.142.37.197.875.166 1.514l-.037.751Zm-10.72-14.337 8.597.42-.071 1.454-7.335-.358-.142 2.892 2.072.23c1.795.194 3.108.536 3.938 1.025.83.489 1.222 1.218 1.175 2.188l-.013.272-1.263-.062.008-.16c.047-.969-1.39-1.6-4.313-1.893l-2.934-.271.28-5.737Zm8.766-3.05-.09 1.838-1.837-.09.09-1.838 1.837.09Zm-10.96-13.373.08-1.63 11.585.566-.08 1.63-5.257-.257-.297 6.089 5.258.256-.08 1.631-11.586-.566.08-1.63 4.921.24.298-6.089-4.922-.24Zm12.058-9.092-6.489-.317 6.272 4.759-.071 1.455-8.598-.42.07-1.455 6.49.317-6.272-4.759.07-1.454 8.599.419-.071 1.455Zm-3.967-11.924 4.692-2.927-.085 1.742-3.93 2.403-.062 1.263 3.804.186-.071 1.454-3.804-.186-.06 1.215 3.677 2.79-.087 1.774-4.336-3.383-4.247 2.676.083-1.694 3.648-2.225.06-1.215-3.532-.172.071-1.454 3.532.172.06-1.214-3.415-2.586.082-1.678 3.92 3.059Zm5.078-10.83-.071 1.454-3.756-.183-.207 4.251 3.755.183-.07 1.454-8.599-.419.072-1.455 3.58.175.207-4.251-3.58-.175.071-1.454 8.598.42Zm-5.402-3.541.1-2.045c.055-1.119.318-1.923.79-2.413.463-.49 1.157-.712 2.084-.667 1.012.05 1.728.362 2.149.938.41.575.589 1.385.538 2.429l-.17 3.484-8.598-.42.07-1.454 3.037.148Zm4.3.21.092-1.902c.032-.66-.066-1.151-.296-1.472-.23-.331-.627-.511-1.192-.538-.543-.027-.929.114-1.158.424-.228.298-.359.788-.392 1.47l-.091 1.87 3.036.148Zm-2.65-7.438c1.077.052 1.893-.153 2.45-.617.546-.465.837-1.065.873-1.8a2.359 2.359 0 0 0-.726-1.862c-.52-.527-1.3-.816-2.345-.867-1.076-.053-1.887.153-2.433.618-.556.464-.853 1.064-.889 1.799-.035.735.196 1.36.694 1.876.487.515 1.28.799 2.377.853Zm-3.339.157c-.727-.858-1.063-1.841-1.01-2.949.055-1.108.486-2.053 1.293-2.836.807-.783 1.935-1.139 3.384-1.068 1.449.071 2.537.535 3.264 1.393.727.857 1.063 1.84 1.01 2.948-.055 1.108-.486 2.054-1.293 2.837-.807.783-1.935 1.139-3.384 1.068-1.449-.071-2.537-.535-3.264-1.393Zm-.405-15.315c.054-1.108.485-2.054 1.292-2.837.807-.783 1.935-1.139 3.384-1.068 1.449.071 2.537.535 3.264 1.393.727.858 1.063 1.841 1.01 2.949-.049.98-.427 1.837-1.135 2.571-.72.723-1.726 1.102-3.02 1.134l-.083 1.71 3.756.184-.072 1.454-8.597-.42.07-1.454 3.58.175.086-1.742c-1.219-.199-2.124-.681-2.717-1.446a3.863 3.863 0 0 1-.818-2.603Zm7.67.374a2.356 2.356 0 0 0-.725-1.861c-.52-.528-1.3-.817-2.345-.868-1.076-.052-1.887.154-2.433.618-.556.464-.853 1.064-.889 1.799-.032.671.201 1.249.7 1.732.49.473 1.284.736 2.381.789 1.076.053 1.892-.137 2.447-.569.544-.433.832-.979.865-1.64Zm-7.267-5.68.071-1.455 1.359.067c-.974-.625-1.429-1.587-1.365-2.886.05-1.034.498-1.882 1.342-2.546.844-.674 1.948-.978 3.312-.911 1.374.067 2.449.477 3.224 1.23.764.743 1.122 1.63 1.071 2.664-.063 1.3-.61 2.213-1.64 2.739l4.092.2-.071 1.454-11.395-.556Zm2.021-2.016c.52.506 1.313.785 2.378.837 1.065.052 1.882-.149 2.448-.601.567-.464.868-1.047.903-1.75.037-.757-.216-1.367-.76-1.832-.553-.475-1.336-.738-2.348-.787-1.012-.05-1.812.136-2.398.555-.597.409-.914.992-.95 1.748-.035.703.208 1.313.727 1.83Zm7.291-12.193-3.963 2.77-.054 1.103 3.82.186-.073 1.47-8.597-.42.072-1.47 3.515.172.053-1.071-3.383-2.904.085-1.726 3.9 3.442 4.714-3.358-.088 1.806Zm-8.472-2.975.07-1.455 8.598.42-.07 1.455-8.598-.42Zm-2.989-.146.071-1.454 1.758.085-.071 1.455-1.758-.086Zm3.146-3.085.183-3.74c.102-2.088.883-3.097 2.342-3.025.927.045 1.536.475 1.828 1.29.348-1.018 1.045-1.502 2.089-1.451.852.041 1.472.365 1.859.971.376.606.54 1.399.492 2.379l-.195 3.996-8.598-.42Zm3.683-1.278.107-2.19c.028-.564-.042-.995-.21-1.291-.177-.297-.5-.457-.969-.48-.415-.021-.705.109-.868.39-.174.28-.275.718-.305 1.315l-.104 2.141 2.35.115Zm1.199.058 2.525.124.113-2.318c.063-1.289-.326-1.954-1.168-1.995-.469-.023-.802.121-.998.432-.207.299-.328.795-.361 1.488l-.111 2.269Zm-4.45-10.559c.048-.991.391-1.791 1.03-2.4.639-.621 1.36-.97 2.166-1.048l-.072 1.47a2.086 2.086 0 0 0-1.284.706c-.35.389-.54.866-.567 1.43-.033.693.21 1.292.73 1.798s1.29.784 2.314.834c1.033.051 1.844-.15 2.432-.602.577-.452.883-1.025.917-1.717.028-.586-.112-1.095-.422-1.527-.321-.432-.718-.713-1.193-.843l.074-1.502c.823.2 1.51.672 2.061 1.414.552.732.804 1.588.756 2.568-.06 1.225-.523 2.18-1.39 2.864-.866.684-1.965.993-3.297.928-1.3-.064-2.346-.494-3.14-1.291-.805-.797-1.177-1.825-1.115-3.082Zm3.484-6.071.1-2.046c.054-1.119.318-1.923.79-2.412.462-.49 1.157-.713 2.083-.667 1.013.049 1.729.362 2.15.938.409.575.588 1.385.537 2.429l-.17 3.484-8.597-.42.07-1.455 3.037.149Zm4.299.21.093-1.902c.032-.661-.067-1.151-.297-1.472-.23-.332-.626-.512-1.191-.539-.543-.027-.93.115-1.158.424-.228.298-.359.789-.392 1.471l-.092 1.869 3.037.149Zm1.838-11.724-3.964 2.77-.054 1.103 3.82.186-.072 1.47-8.598-.42.072-1.47 3.516.172.052-1.071-3.382-2.904.084-1.726 3.9 3.442 4.714-3.358-.088 1.806Zm-3.22-7.866-.544-.026c.068 1.466.217 2.563.448 3.289.232.717.625 1.088 1.18 1.115.415.021.752-.112 1.012-.399.26-.286.402-.685.427-1.196.037-.767-.14-1.412-.53-1.933-.391-.521-1.056-.804-1.993-.85Zm3.658 3.158c-.041.842-.294 1.535-.758 2.078-.475.543-1.096.795-1.863.758-.49-.024-.905-.172-1.244-.445-.339-.284-.607-.703-.804-1.257a9.166 9.166 0 0 1-.455-1.832 30.008 30.008 0 0 1-.234-2.431l-.207-.01c-1.396-.068-2.126.548-2.19 1.848-.028.596.098 1.072.38 1.428.281.355.693.562 1.235.621l-.074 1.502c-.88-.107-1.566-.509-2.055-1.206a3.763 3.763 0 0 1-.669-2.387c.058-1.183.388-2.037.99-2.563.603-.526 1.511-.754 2.725-.684l1.981.113c1.395.079 2.48.057 3.255-.065l-.072 1.47a9.45 9.45 0 0 1-1.188.054c.9.589 1.316 1.591 1.247 3.008Z"/>
      <path fill="#fff" d="m74.995 620.521-.999-.049-.048.999.998.048.05-.998Zm4.352-5.475-.941.337.962 2.692.926-2.705-.947-.324Zm3.949-.48.85-.527-.007-.011-.843.538Zm.297 6.374-.049.999.999.049.049-.999-.999-.049Zm-4.915-1.697-.049.998.999.049.049-.999-1-.048Zm-.102-3.481.87-.491-.005-.012-.007-.011-.858.514Zm-1.838-.09.85.527.007-.012.007-.012-.864-.503Zm-.41 3.456-.998-.049-.049.999.999.049.049-.999Zm3.548.173-.998-.049-.05.999 1 .049.048-.999Zm2.525.124-.048.998.999.049.048-.999-.999-.048Zm-2.053-3.881.823.568.012-.016.01-.017-.845-.535Zm-4.354 5.025.183-3.739-1.998-.098-.183 3.74 1.998.097Zm.183-3.739c.046-.959.246-1.491.454-1.759.159-.206.382-.339.84-.317l.098-1.997c-1.001-.049-1.898.286-2.52 1.089-.573.74-.815 1.756-.87 2.886l1.998.098Zm1.294-2.076c.32.016.509.094.624.175.11.078.223.208.31.454l1.884-.673c-.203-.569-.541-1.062-1.04-1.414-.493-.349-1.073-.509-1.68-.539l-.097 1.997Zm2.823.616c.124-.362.277-.538.408-.63.128-.089.332-.164.686-.147l.098-1.997c-.69-.034-1.357.107-1.925.502-.566.393-.935.968-1.16 1.624l1.893.648Zm1.094-.777c.597.03.886.232 1.065.511l1.686-1.076c-.596-.932-1.546-1.378-2.653-1.432l-.098 1.997Zm1.058.501c.236.379.385.951.343 1.802l1.998.098c.054-1.109-.125-2.123-.642-2.955l-1.699 1.055Zm.343 1.802-.195 3.996 1.998.097.195-3.995-1.998-.098Zm.853 3.046-8.598-.42-.098 1.997 8.598.42.098-1.997Zm-3.965-.651.107-2.189-1.998-.097-.107 2.189 1.998.097Zm.107-2.189c.031-.641-.035-1.295-.337-1.831l-1.743.981c.032.057.106.265.082.753l1.998.097Zm-.35-1.854c-.407-.681-1.108-.932-1.78-.965l-.097 1.997a.551.551 0 0 1 .2.035c.002.001-.005-.002-.016-.012a.126.126 0 0 1-.023-.028l1.716-1.027Zm-1.78-.965c-.664-.033-1.374.188-1.78.886l1.728 1.006a.273.273 0 0 1-.115.101c-.037.017-.027 0 .07.004l.098-1.997Zm-1.766.861c-.31.499-.422 1.145-.454 1.794l1.998.097c.027-.544.117-.775.155-.836l-1.699-1.055Zm-.454 1.794-.104 2.141 1.998.098.104-2.142-1.998-.097Zm.846 3.189 2.35.114.097-1.997-2.35-.115-.097 1.998Zm3.548.173 2.525.123.097-1.997-2.525-.124-.097 1.998Zm3.572-.827.113-2.317-1.997-.097-.113 2.317 1.997.097Zm.113-2.317c.036-.721-.041-1.441-.38-2.02-.383-.654-1.017-.988-1.738-1.023l-.097 1.998c.082.004.104.02.097.016-.01-.006-.005-.009.012.02.05.086.137.344.109.912l1.997.097Zm-2.118-3.043c-.713-.035-1.447.194-1.891.896l1.69 1.07c-.002.001-.008.01-.021.022-.013.011-.025.017-.03.02-.01.004.03-.016.155-.01l.097-1.998Zm-1.87.863c-.371.538-.5 1.27-.537 2.007l1.998.098c.032-.648.143-.908.185-.969l-1.646-1.136Zm-.537 2.007-.11 2.269 1.997.098.111-2.269-1.998-.098Zm7.781-3.682-.048.999.998.048.05-.998-1-.049Zm-1.214-.059-.999-.049-.049.999 1 .048.048-.998Zm-.154-1.77-.863.505.005.009.005.008.853-.522Zm-1.135-.696-.388.922.03.012.03.01.328-.944Zm-.173-.073.387-.922-.334-.14-.346.106.293.956Zm-8.75 2.681-.998-.049-.07 1.422 1.362-.417-.293-.956Zm.08-1.615-.267-.963-.697.193-.035.722.999.048Zm6.739-1.865.266.964 2.963-.82-2.878-1.08-.351.936Zm-6.529-2.449-.998-.049-.036.729.683.256.351-.936Zm.075-1.519.37-.929-1.301-.517-.068 1.398.999.048Zm8.815 3.507.375-.927-.005-.003-.37.93Zm1.438.727-.588.808.016.012.017.011.555-.831Zm.679.866-.934.358.934-.358Zm.178 1.266-1.214-.059-.098 1.997 1.215.06.097-1.998Zm-.264.988.029-.591-1.998-.098-.029.592 1.998.097Zm.029-.591c.028-.589-.017-1.239-.33-1.749l-1.705 1.044c-.016-.027.004-.007.022.107.017.111.026.273.015.5l1.998.098Zm-.319-1.732c-.189-.323-.472-.55-.735-.711a4.818 4.818 0 0 0-.936-.425l-.655 1.889c.264.092.439.175.546.241.115.07.095.086.054.016l1.726-1.01Zm-1.611-1.113-.173-.073-.774 1.844.172.073.775-1.844Zm-.853-.107-8.75 2.68.587 1.913 8.749-2.681-.586-1.912Zm-7.457 3.685.078-1.614-1.997-.097-.079 1.614 1.998.097Zm-.654-.699 6.74-1.865-.534-1.928-6.74 1.866.534 1.927Zm6.824-3.765-6.528-2.45-.703 1.873 6.528 2.449.703-1.872Zm-5.88-1.465.073-1.518-1.997-.097-.074 1.518 1.997.097Zm-1.295-.637 8.815 3.506.74-1.859-8.816-3.506-.739 1.859Zm8.81 3.504c.64.259 1.027.465 1.225.608l1.176-1.617c-.4-.291-.971-.57-1.65-.845l-.751 1.854Zm1.258.631a.777.777 0 0 1 .3.393l1.867-.717a2.78 2.78 0 0 0-1.056-1.339l-1.111 1.663Zm.3.393c.071.185.13.531.101 1.107l1.998.098c.034-.703-.018-1.366-.232-1.922l-1.867.717Zm.101 1.107-.036.751 1.997.098.037-.751-1.998-.098Zm-9.759-13.537.049-.999-.999-.049-.049.999 1 .049Zm8.598.42.999.048.049-.998-1-.049-.048.999Zm-.071 1.454-.049.999.999.049.049-.999-1-.049Zm-7.335-.358.048-.999-.998-.049-.05.999 1 .049Zm-.142 2.892-.998-.049-.046.94.934.103.11-.994Zm2.072.23-.11.993.002.001.108-.994Zm3.938 1.025-.507.862.507-.862Zm1.162 2.46-.05.998 1 .049.049-.999-1-.048Zm-1.263-.062-.999-.049-.048.999.998.049.05-.999Zm-4.305-2.053.1-.995h-.008l-.092.995Zm-2.934-.271-.999-.049-.047.956.954.089.092-.996Zm.231-4.738 8.598.419.098-1.997-8.598-.42-.098 1.998Zm7.648-.628-.071 1.454 1.998.098.07-1.455-1.997-.097Zm.977.504-7.336-.358-.097 1.997 7.335.359.098-1.998Zm-8.383.592-.141 2.892 1.997.098.141-2.893-1.997-.097Zm.747 3.935 2.072.229.22-1.987-2.072-.23-.22 1.988Zm2.074.23c1.756.19 2.896.514 3.539.893l1.015-1.724c-1.018-.599-2.504-.959-4.339-1.158l-.215 1.989Zm3.539.893c.284.167.447.346.543.525.096.179.156.417.14.752l1.998.098c.03-.635-.08-1.246-.376-1.796-.296-.551-.744-.981-1.29-1.303l-1.015 1.724Zm.683 1.277-.013.272 1.998.097.013-.271-1.998-.098Zm1.034-.678-1.262-.062-.098 1.998 1.263.061.097-1.997Zm-.312.986.008-.16-1.998-.098-.008.16 1.998.098Zm.008-.16c.055-1.128-.807-1.799-1.64-2.165-.865-.38-2.08-.623-3.572-.772l-.2 1.99c1.432.144 2.396.362 2.968.613.605.266.438.395.446.236l1.998.098Zm-5.22-2.937-2.934-.272-.184 1.992 2.934.271.184-1.991Zm-2.027.773.28-5.737-1.998-.098-.28 5.737 1.998.098Zm8.048-8.836 1 .049.048-.999-.999-.049-.049.999Zm-.09 1.838-.048.999.999.049.048-.999-.998-.049Zm-1.837-.09-.999-.049-.049.999.999.049.049-.999Zm.09-1.838.048-.998-.998-.049-.05.999 1 .048Zm.839.041-.09 1.838 1.997.098.09-1.838-1.997-.098Zm.957.888-1.838-.09-.097 1.998 1.838.09.097-1.998Zm-.887.958.09-1.838-1.998-.097-.09 1.837 1.998.098Zm-.958-.888 1.838.09.097-1.998-1.838-.089-.097 1.997Zm-9.074-14.282-1-.049-.048.999.999.049.049-.999Zm.08-1.63.048-.999-.999-.049-.048.999.998.049Zm11.585.566 1 .048.048-.998-.999-.049-.049.999Zm-.08 1.63-.048.999.999.048.049-.998-1-.049Zm-5.257-.257.049-.999-.999-.049-.049.999 1 .049Zm-.297 6.089-.999-.049-.049.999.999.048.049-.998Zm5.258.256.998.049.05-.999-1-.048-.048.998Zm-.08 1.631-.049.998.999.049.049-.999-1-.048Zm-11.586-.566-1-.049-.048.999.999.048.049-.998Zm.08-1.63.048-.999-.999-.049-.049.999 1 .049Zm4.921.24-.048.999.999.049.048-.999-.999-.049Zm.298-6.089.999.049.048-.999-.998-.049-.05.999Zm-3.924-.191.08-1.63-1.998-.098-.08 1.63 1.998.098Zm-.968-.68 11.587.565.097-1.997-11.586-.566-.098 1.998Zm10.637-.482-.08 1.63 1.998.098.08-1.631-1.998-.097Zm.968.68-5.258-.257-.098 1.998 5.258.257.098-1.998Zm-6.306.693-.297 6.089 1.998.097.297-6.088-1.998-.098Zm.653 7.136 5.258.257.097-1.997-5.257-.257-.098 1.997Zm4.308-.79-.08 1.63 1.998.097.08-1.63-1.998-.097Zm.968.68-11.587-.566-.097 1.997 11.586.566.098-1.997Zm-10.636.481.08-1.63-1.999-.097-.08 1.63 1.999.097Zm-.969-.68 4.923.241.097-1.998-4.922-.24-.097 1.997Zm5.97-.709.298-6.089-1.998-.098-.297 6.089 1.997.098Zm-.652-7.137-4.922-.24-.098 1.998 4.922.24.098-1.998Zm7.087-8.333-.05.999 1 .048.048-.998-.998-.049Zm-6.489-.317.05-.999-3.227-.158 2.573 1.953.604-.796Zm6.272 4.759.998.049.026-.526-.42-.319-.604.796Zm-.071 1.455-.05.999 1 .048.048-.999-.998-.048Zm-8.598-.42-.999-.049-.049.999 1 .049.048-.999Zm.07-1.455.05-.998-1-.049-.048.999.999.048Zm6.49.317-.05.999 3.227.158-2.573-1.953-.605.796Zm-6.272-4.759-.999-.049-.026.527.42.318.605-.796Zm.07-1.454.05-.999-1-.049-.048.999.999.049Zm8.599.419.999.049.048-.999-.999-.048-.048.998Zm-.023.456-6.488-.317-.097 1.998 6.488.317.097-1.998Zm-7.141 1.478 6.271 4.76 1.21-1.593-6.272-4.76-1.21 1.593Zm5.877 3.915-.071 1.454 1.997.097.071-1.454-1.997-.097Zm.976.504-8.597-.42-.098 1.998 8.598.42.097-1.998Zm-7.647.628.07-1.455-1.997-.097-.071 1.454 1.998.098Zm-.977-.505 6.488.317.098-1.997-6.488-.317-.098 1.997Zm7.142-1.478-6.272-4.76-1.209 1.593 6.272 4.76 1.209-1.593Zm-5.877-3.914.07-1.455-1.997-.097-.07 1.454 1.997.098Zm-.977-.505 8.598.42.097-1.997-8.597-.42-.098 1.997Zm7.648-.627-.071 1.454 1.997.098.072-1.455-1.998-.097Zm-3.04-10.421-.615.788.552.43.593-.37-.53-.848Zm4.693-2.927.999.049.093-1.908-1.621 1.011.529.848Zm-.085 1.742.522.853.45-.276.027-.528-1-.049Zm-3.93 2.403-.522-.853-.451.276-.026.529.999.048Zm-.062 1.263-.999-.049-.048.999.999.049.048-.999Zm3.804.186.999.048.048-.998-.998-.049-.05.999Zm-.071 1.454-.049.999.999.049.049-.999-1-.049Zm-3.804-.186.05-.999-1-.048-.049.998 1 .049Zm-.06 1.215-.998-.049-.026.526.42.319.605-.796Zm3.677 2.79.999.049.026-.526-.42-.319-.605.796Zm-.087 1.774-.615.789 1.52 1.186.094-1.926-.999-.049Zm-4.336-3.383.616-.789-.554-.432-.595.375.533.846Zm-4.247 2.676-.999-.049-.094 1.919 1.626-1.024-.533-.846Zm.083-1.694-.521-.854-.452.276-.026.529.999.049Zm3.648-2.225.521.854.452-.276.026-.529-.999-.049Zm.06-1.215.999.049.048-.999-.998-.048-.05.998Zm-3.532-.172-.999-.049-.049.999 1 .049.048-.999Zm.071-1.454.049-.999-.999-.049-.049.999.999.049Zm3.532.172-.049.999.999.049.049-.999-1-.049Zm.06-1.214.998.048.026-.527-.421-.319-.604.798Zm-3.415-2.586-.999-.049-.025.527.42.319.604-.797Zm.082-1.678.615-.788-1.52-1.187-.094 1.926 1 .049Zm4.449 3.907 4.692-2.926-1.058-1.697-4.693 2.926 1.059 1.697Zm3.164-3.823-.085 1.741 1.998.098.085-1.742-1.998-.097Zm.392.937-3.93 2.403 1.044 1.707 3.93-2.404-1.044-1.706Zm-4.407 3.208-.061 1.262 1.997.098.062-1.263-1.998-.097Zm.889 2.31 3.803.185.098-1.997-3.804-.186-.097 1.998Zm2.853-.862-.071 1.454 1.998.098.07-1.455-1.997-.097Zm.977.504-3.804-.186-.097 1.998 3.803.186.097-1.998Zm-4.852.764-.059 1.215 1.998.097.06-1.214-1.998-.098Zm.335 2.06 3.677 2.791 1.209-1.593-3.676-2.791-1.21 1.593Zm3.282 1.946-.086 1.773 1.997.098.087-1.774-1.998-.097Zm1.528 1.034-4.336-3.384-1.23 1.577 4.335 3.384 1.23-1.577Zm-5.485-3.441-4.247 2.676 1.066 1.692 4.248-2.676-1.067-1.692Zm-2.715 3.57.082-1.694-1.997-.097-.083 1.694 1.998.097Zm-.396-.889 3.649-2.224-1.041-1.708-3.649 2.225 1.041 1.707Zm4.127-3.029.06-1.215-1.998-.097-.06 1.214 1.998.098Zm-.89-2.262-3.532-.173-.098 1.998 3.532.172.098-1.997Zm-2.582.875.07-1.455-1.997-.097-.07 1.454 1.997.098Zm-.977-.504 3.532.172.098-1.998-3.532-.172-.098 1.998Zm4.58-.778.059-1.215-1.998-.097-.059 1.214 1.998.098Zm-.336-2.061-3.414-2.585-1.208 1.594 3.414 2.586 1.208-1.595Zm-3.019-1.739.082-1.678-1.998-.098-.082 1.678 1.998.098Zm-1.532-.939 3.92 3.059 1.23-1.576-3.92-3.059-1.23 1.576Zm9.613-8.559.999.049.049-.999-1-.049-.048.999Zm-.071 1.454-.049.999.999.049.049-.999-.999-.049Zm-3.756-.183.05-.999-1-.049-.048.999.998.049Zm-.207 4.251-.999-.049-.049.999.999.049.049-.999Zm3.755.183 1 .049.048-.999-.999-.049-.049.999Zm-.07 1.454-.05.999 1 .049.048-.999-.999-.049Zm-8.599-.419-.998-.049-.049.999.999.048.048-.998Zm.072-1.455.048-.999-.998-.048-.05.998 1 .049Zm3.58.175-.05.999 1 .049.048-.999-.999-.049Zm.207-4.251.999.049.049-.999-1-.049-.048.999Zm-3.58-.175-.999-.048-.048.998.998.049.05-.999Zm.071-1.454.049-.999-.999-.049-.049.999 1 .049Zm7.6.371-.072 1.454 1.998.098.07-1.454-1.997-.098Zm.976.504-3.756-.183-.097 1.998 3.755.183.098-1.998Zm-4.803.767-.208 4.251 1.998.098.207-4.251-1.997-.098Zm.742 5.299 3.755.183.098-1.998-3.755-.183-.098 1.998Zm2.805-.865-.07 1.455 1.997.097.071-1.454-1.998-.098Zm.977.505-8.598-.42-.097 1.997 8.597.42.098-1.997Zm-7.648.627.071-1.454-1.997-.098-.071 1.455 1.997.097Zm-.976-.504 3.58.175.097-1.998-3.58-.175-.097 1.998Zm4.627-.775.208-4.251-1.998-.098-.208 4.251 1.998.098Zm-.742-5.299-3.58-.175-.098 1.998 3.58.175.098-1.998Zm-2.63.873.071-1.454-1.998-.098-.07 1.455 1.997.097Zm-.977-.504 8.598.42.098-1.998-8.598-.42-.097 1.998Zm3.245-4.12-.049.999 1 .049.048-.999-.999-.049Zm.89-4.458.72.695.009-.009-.728-.686Zm4.233.271.814-.58-.007-.009-.807.589Zm.368 5.913-.05.999 1 .049.048-.999-.998-.049Zm-8.598-.42-.999-.049-.049.999 1 .049.048-.999Zm.07-1.454.05-.999-1-.049-.048.999.999.049Zm7.336.358-.049.999 1 .049.048-.999-.999-.049Zm-.204-3.374-.822.569.005.007.005.007.813-.583Zm-2.349-.114.795.607.005-.007.004-.006-.804-.594Zm-.483 3.34-.999-.049-.049.999.999.049.049-.999Zm-.264-.013.1-2.046-1.998-.097-.1 2.045 1.998.098Zm.1-2.046c.05-1.022.286-1.533.511-1.766l-1.439-1.389c-.72.746-1.01 1.843-1.07 3.058l1.998.097Zm.52-1.775c.193-.205.556-.391 1.306-.354l.098-1.998c-1.104-.053-2.13.206-2.86.981l1.456 1.371Zm1.306-.354c.843.041 1.214.287 1.39.529l1.615-1.179c-.664-.911-1.726-1.29-2.907-1.348l-.098 1.998Zm1.383.519c.23.323.4.877.354 1.801l1.998.097c.056-1.165-.133-2.23-.723-3.058l-1.629 1.16Zm.354 1.801-.17 3.483 1.997.098.17-3.484-1.997-.097Zm.877 2.533-8.597-.42-.098 1.998 8.598.42.097-1.998Zm-7.647.628.07-1.454-1.997-.098-.07 1.454 1.997.098Zm-.977-.504 3.036.148.098-1.998-3.036-.148-.098 1.998Zm8.383-.592.093-1.902-1.998-.097-.093 1.901 1.998.098Zm.093-1.902c.036-.747-.058-1.511-.483-2.103l-1.625 1.165c.035.049.138.266.11.841l1.998.097Zm-.473-2.09c-.47-.679-1.222-.932-1.965-.968l-.097 1.997c.192.01.302.043.358.068.047.021.056.037.06.041l1.644-1.138Zm-1.965-.968c-.727-.036-1.508.148-2.01.828l1.607 1.189c-.01.014-.021.015.001.007a.817.817 0 0 1 .305-.027l.097-1.997Zm-2.001.815c-.417.545-.56 1.289-.597 2.029l1.998.098c.03-.623.148-.86.188-.912l-1.59-1.215Zm-.597 2.029-.091 1.87 1.998.098.09-1.87-1.997-.098Zm.859 2.918 3.036.148.098-1.998-3.036-.148-.098 1.998Zm2.886-8.906.64.768.008-.007-.648-.761Zm.147-3.662-.713.702.007.007.706-.709Zm-4.778-.249.64.768.008-.006-.648-.762Zm-.195 3.675.726-.688-.007-.007-.72.695Zm-.963 1.01.763-.647-.763.647Zm.283-5.785.696.718-.696-.718Zm6.648.325-.763.646.763-.646Zm-.283 5.785.697.718-.697-.718Zm-3.357.517c1.207.059 2.313-.161 3.138-.848l-1.28-1.537c-.289.241-.815.433-1.76.387l-.098 1.998Zm3.146-.855c.763-.649 1.175-1.51 1.224-2.512l-1.998-.098c-.023.468-.193.807-.522 1.087l1.296 1.523Zm1.224-2.512a3.357 3.357 0 0 0-1.02-2.62l-1.41 1.418c.32.32.453.666.432 1.104l1.998.098Zm-1.012-2.612c-.757-.769-1.818-1.107-3.009-1.165l-.097 1.998c.896.044 1.398.284 1.68.57l1.425-1.403Zm-3.009-1.165c-1.205-.059-2.312.16-3.13.855l1.296 1.524c.275-.234.79-.428 1.736-.381l.098-1.998Zm-3.122.849c-.775.646-1.198 1.508-1.247 2.518l1.997.098c.023-.461.193-.798.53-1.08l-1.28-1.536Zm-1.247 2.518c-.05 1.003.277 1.899.973 2.62l1.438-1.39c-.3-.311-.437-.665-.414-1.132l-1.997-.098Zm.965 2.612c.741.783 1.837 1.105 3.055 1.165l.098-1.998c-.977-.048-1.466-.294-1.7-.542l-1.453 1.375Zm.527-.324c-.565-.667-.815-1.402-.773-2.253l-1.998-.097c-.067 1.365.357 2.595 1.245 3.644l1.526-1.294Zm-.773-2.253c.041-.851.361-1.558.989-2.167l-1.392-1.436c-.987.957-1.528 2.14-1.595 3.506l1.998.097Zm.989-2.167c.555-.538 1.382-.849 2.64-.787l.097-1.998c-1.641-.08-3.07.321-4.13 1.349l1.393 1.436Zm2.64-.787c1.256.061 2.05.451 2.549 1.04l1.526-1.293c-.955-1.126-2.337-1.665-3.978-1.745l-.098 1.998Zm2.549 1.04c.566.667.815 1.403.773 2.254l1.998.097c.067-1.365-.357-2.596-1.245-3.644l-1.526 1.293Zm.773 2.254c-.041.851-.361 1.558-.989 2.167l1.393 1.436c.986-.957 1.527-2.141 1.594-3.506l-1.998-.097Zm-.989 2.167c-.555.538-1.382.849-2.639.787l-.098 1.998c1.641.08 3.07-.322 4.13-1.349l-1.393-1.436Zm-2.639.787c-1.257-.061-2.05-.451-2.55-1.041l-1.526 1.294c.955 1.126 2.338 1.665 3.978 1.745l.098-1.998Zm-2.426-18.546-.696-.718.696.718Zm6.648.325.763-.647-.763.647Zm-.126 5.52.71.705.005-.005.005-.005-.72-.695Zm-3.019 1.134-.025-.999-.928.023-.045.928.998.048Zm-.083 1.71-.999-.048-.049.998 1 .049.048-.999Zm3.756.184.998.049.05-.999-1-.049-.048.999Zm-.072 1.454-.048.999.998.049.05-.999-1-.049Zm-8.597-.42-1-.049-.048.999.999.049.049-.999Zm.07-1.454.05-.999-1-.049-.048.999.999.049Zm3.58.175-.048.999.998.048.05-.998-1-.049Zm.086-1.742.998.049.044-.893-.882-.143-.16.987Zm-2.717-1.446-.795.606.004.006.79-.612Zm6.127-4.09-.713.701.007.008.706-.709Zm-4.778-.25.64.768.008-.006-.648-.762Zm-.188 3.531-.696.719.001.001.695-.72Zm4.827.22.614.789.008-.006-.622-.783Zm-5.807-1.966c.041-.851.361-1.558.99-2.167l-1.393-1.436c-.987.957-1.528 2.141-1.595 3.506l1.998.097Zm.99-2.167c.554-.538 1.381-.849 2.638-.787l.098-1.998c-1.641-.08-3.07.322-4.13 1.349l1.393 1.436Zm2.638-.787c1.257.061 2.05.451 2.55 1.04l1.526-1.293c-.954-1.126-2.337-1.665-3.978-1.745l-.098 1.998Zm2.55 1.04c.566.668.815 1.403.773 2.254l1.998.097c.067-1.365-.357-2.595-1.245-3.644l-1.526 1.293Zm.773 2.254c-.035.728-.307 1.358-.855 1.926l1.439 1.389c.87-.901 1.354-1.985 1.414-3.218l-1.998-.097Zm-.845 1.915c-.492.495-1.226.812-2.335.84l.051 1.999c1.479-.038 2.757-.477 3.703-1.429l-1.419-1.41Zm-3.308 1.791-.084 1.71 1.998.097.083-1.71-1.997-.097Zm.866 2.757 3.756.184.097-1.998-3.755-.183-.098 1.997Zm2.806-.864-.071 1.454 1.997.098.071-1.454-1.997-.098Zm.976.504-8.597-.42-.098 1.998 8.598.42.097-1.998Zm-7.647.628.07-1.454-1.997-.098-.071 1.454 1.998.098Zm-.977-.504 3.58.175.097-1.998-3.58-.175-.097 1.998Zm4.627-.775.085-1.742-1.997-.098-.085 1.742 1.997.098Zm-.753-2.778c-1.04-.169-1.688-.557-2.086-1.071l-1.582 1.224c.787 1.016 1.95 1.593 3.347 1.821l.321-1.974Zm-2.082-1.066a2.861 2.861 0 0 1-.614-1.948l-1.998-.097a4.86 4.86 0 0 0 1.022 3.258l1.59-1.213Zm7.057-1.573a3.356 3.356 0 0 0-1.02-2.619l-1.41 1.418c.32.319.453.665.432 1.103l1.998.098Zm-1.012-2.612c-.757-.768-1.818-1.106-3.009-1.165l-.098 1.998c.897.044 1.4.284 1.681.57l1.425-1.403Zm-3.009-1.165c-1.205-.059-2.312.16-3.13.856l1.296 1.523c.275-.234.79-.427 1.736-.381l.098-1.998Zm-3.122.849c-.775.646-1.198 1.509-1.247 2.518l1.997.098c.023-.461.192-.798.53-1.08l-1.28-1.536Zm-1.247 2.518c-.048.97.305 1.824 1.003 2.5l1.391-1.437c-.3-.292-.415-.593-.397-.965l-1.997-.098Zm1.004 2.501c.744.717 1.827 1.01 3.026 1.068l.098-1.998c-.996-.048-1.5-.282-1.735-.509l-1.389 1.439Zm3.026 1.068c1.194.058 2.288-.139 3.11-.779l-1.228-1.578c-.289.224-.825.406-1.784.359l-.098 1.998Zm3.118-.785c.757-.601 1.194-1.41 1.242-2.374l-1.998-.098c-.017.357-.156.642-.488.906l1.244 1.566Zm-7.025-8.103-.998-.049-.05.999 1 .048.048-.998Zm.071-1.455.05-.998-1-.049-.049.999 1 .048Zm1.359.067-.05.999 3.745.182-3.156-2.023-.54.842Zm-.023-5.432.618.786.005-.004-.623-.782Zm6.536.319-.697.717v.001l.697-.718Zm-.568 5.403-.456-.89-3.337 1.706 3.744.183.049-.999Zm4.09.2 1 .049.048-.999-.999-.049-.048.999Zm-.07 1.454-.05.999 1 .049.049-.999-1-.049Zm-9.374-2.572-.705.709.008.007.697-.716Zm4.826.236.624.781.009-.007-.633-.774Zm.143-3.582-.652.759.002.001.65-.76Zm-4.746-.232.565.825.009-.005.008-.006-.582-.814Zm-1.245 5.642.071-1.454-1.998-.097-.07 1.454 1.997.097Zm-.977-.504 1.359.067.097-1.998-1.358-.066-.097 1.997Zm1.947-1.774c-.629-.403-.954-.999-.905-1.996l-1.998-.097c-.078 1.603.506 2.931 1.824 3.777l1.08-1.684Zm-.905-1.996c.035-.731.335-1.315.96-1.808l-1.235-1.572c-1.062.835-1.658 1.948-1.723 3.283l1.998.097Zm.966-1.812c.609-.486 1.454-.753 2.64-.695l.098-1.997c-1.54-.075-2.904.266-3.985 1.129l1.248 1.563Zm2.64-.695c1.2.059 2.02.408 2.576.949l1.394-1.434c-.993-.965-2.323-1.436-3.872-1.512l-.098 1.997Zm2.576.95c.566.549.805 1.16.77 1.897l1.997.098c.065-1.331-.41-2.495-1.374-3.43l-1.393 1.435Zm.77 1.897c-.05.996-.431 1.558-1.097 1.898l.91 1.78c1.395-.712 2.106-1.977 2.184-3.58l-1.998-.098Zm-.69 3.787 4.09.2.099-1.998-4.092-.2-.097 1.998Zm3.14-.848-.07 1.454 1.998.098.07-1.454-1.997-.098Zm.977.504-11.394-.556-.098 1.997 11.395.557.097-1.998Zm-10.12-.857c.761.741 1.83 1.061 3.027 1.12l.098-1.998c-.934-.046-1.45-.283-1.73-.555l-1.394 1.433Zm3.027 1.12c1.197.058 2.292-.156 3.121-.819l-1.248-1.563c-.304.243-.841.43-1.775.384l-.098 1.998Zm3.13-.826c.776-.635 1.22-1.477 1.269-2.476l-1.998-.097c-.02.407-.178.732-.537 1.024l1.266 1.549Zm1.269-2.476c.05-1.044-.315-1.961-1.11-2.64l-1.299 1.52c.293.25.434.554.41 1.023l1.999.097Zm-1.107-2.638c-.777-.668-1.802-.972-2.951-1.028l-.098 1.998c.875.042 1.415.263 1.745.547l1.304-1.517Zm-2.951-1.028c-1.148-.056-2.198.146-3.03.741l1.165 1.627c.342-.245.89-.413 1.767-.37l.097-1.998Zm-3.012.729c-.869.595-1.333 1.473-1.384 2.524l1.997.098c.023-.461.192-.749.517-.972l-1.13-1.65Zm-1.384 2.524c-.05.999.31 1.881 1.02 2.588l1.411-1.418c-.328-.326-.454-.664-.434-1.072l-1.997-.098Zm9.017-10.314.573.82.402-.281.024-.49-.999-.049Zm-3.963 2.77-.573-.82-.402.281-.024.49.999.049Zm-.054 1.103-.999-.049-.049.999.999.048.049-.998Zm3.82.186.998.049.049-.999-.999-.049-.049.999Zm-.073 1.47-.048.999.999.049.048-.999-.999-.049Zm-8.597-.42-1-.048-.048.999.999.048.049-.999Zm.072-1.47.048-.999-.998-.048-.05.998 1 .049Zm3.515.172-.048.999.998.049.05-.999-1-.049Zm.053-1.071.998.049.024-.489-.37-.318-.652.758Zm-3.383-2.904-.998-.049-.024.489.37.318.652-.758Zm.085-1.726.661-.75-1.559-1.376-.101 2.077.999.049Zm3.9 3.442-.661.75.595.525.646-.46-.58-.815Zm4.714-3.358.999.049.1-2.06-1.68 1.197.58.814Zm-.661.986-3.964 2.77 1.146 1.64 3.963-2.77-1.145-1.64Zm-4.39 3.541-.054 1.103 1.998.097.053-1.102-1.997-.098Zm.896 2.15 3.82.187.097-1.998-3.82-.186-.097 1.997Zm2.87-.861-.072 1.471 1.997.097.072-1.47-1.998-.098Zm.975.521-8.598-.42-.097 1.997 8.598.42.097-1.997Zm-7.648.627.072-1.47-1.997-.098-.072 1.471 1.998.097Zm-.975-.52 3.516.172.097-1.998-3.516-.172-.097 1.998Zm4.563-.778.052-1.071-1.997-.098-.052 1.071 1.997.098Zm-.295-1.878-3.382-2.905-1.303 1.517 3.382 2.905 1.303-1.517Zm-3.035-2.097.084-1.726-1.997-.098-.084 1.726 1.997.098Zm-1.576-1.025 3.9 3.442 1.324-1.5-3.9-3.442-1.324 1.5Zm5.142 3.507 4.714-3.358-1.16-1.629-4.714 3.358 1.16 1.629Zm3.135-4.222-.088 1.806 1.997.098.088-1.806-1.997-.098Zm-7.562-1.12-1-.049-.048.999.999.049.049-.999Zm.07-1.455.05-.998-1-.049-.048.999.999.048Zm8.598.42 1 .049.048-.999-.999-.048-.049.998Zm-.07 1.455-.05.999 1 .048.048-.999-.999-.048Zm-11.587-.566-.999-.049-.049.999 1 .049.048-.999Zm.071-1.454.049-.999-.999-.049-.049.999 1 .049Zm1.758.085.999.049.049-.999-1-.048-.048.998Zm-.071 1.455-.049.998 1 .049.048-.999-.999-.048Zm2.23.109.07-1.455-1.997-.097-.071 1.454 1.997.098Zm-.977-.505 8.598.42.097-1.997-8.598-.42-.097 1.997Zm7.648-.627-.072 1.454 1.998.097.071-1.454-1.997-.097Zm.976.504-8.598-.42-.097 1.998 8.598.42.097-1.998Zm-10.636.482.071-1.455-1.998-.097-.07 1.454 1.997.098Zm-.977-.505 1.758.086.098-1.997-1.758-.086-.098 1.997Zm.808-.961-.07 1.454 1.997.097.07-1.454-1.997-.097Zm.977.504-1.758-.086-.098 1.998 1.758.085.098-1.997Zm1.34-2.172-1-.049-.048.999.999.048.048-.998Zm4.352-5.475-.942.337.962 2.692.926-2.705-.946-.324Zm3.948-.48.85-.527-.007-.01-.843.537Zm.297 6.375-.049.998 1 .049.048-.999-.999-.048Zm-4.915-1.698-.049.999 1 .048.048-.998-.999-.049Zm-.102-3.481.871-.491-.006-.012-.007-.011-.858.514Zm-1.838-.09.85.528.007-.013.007-.012-.864-.503Zm-.41 3.456-.998-.049-.049.999 1 .049.048-.999Zm3.549.173-1-.048-.048.998.999.049.049-.999Zm2.525.124-.05.998 1 .049.049-.999-1-.048Zm-2.053-3.881.823.568.01-.016.011-.017-.844-.535Zm-4.355 5.025.183-3.739-1.998-.098-.182 3.74 1.997.097Zm.183-3.739c.047-.959.246-1.491.454-1.759.159-.206.382-.339.84-.316l.098-1.998c-1-.049-1.898.286-2.52 1.089-.573.741-.815 1.756-.87 2.886l1.998.098Zm1.295-2.075c.32.015.508.093.623.174.111.078.223.208.31.454l1.884-.673c-.203-.569-.541-1.062-1.04-1.414-.493-.349-1.073-.509-1.68-.539l-.097 1.998Zm2.822.615c.124-.362.277-.538.408-.629.128-.09.332-.165.686-.148l.098-1.997c-.69-.034-1.357.107-1.925.502-.565.393-.935.968-1.16 1.625l1.893.647Zm1.094-.777c.597.03.886.232 1.065.511l1.686-1.075c-.596-.933-1.546-1.379-2.653-1.433l-.098 1.997Zm1.058.501c.236.379.385.951.343 1.803l1.998.097c.054-1.109-.125-2.123-.642-2.955l-1.699 1.055Zm.343 1.803-.195 3.995 1.998.097.195-3.995-1.998-.097Zm.853 3.045-8.598-.42-.097 1.997 8.597.42.098-1.997Zm-3.965-.65.107-2.19-1.998-.097-.107 2.189 1.998.098Zm.107-2.19c.031-.641-.035-1.295-.337-1.831l-1.742.982c.031.056.105.264.081.752l1.998.097Zm-.35-1.854c-.407-.68-1.107-.932-1.78-.965l-.097 1.998a.54.54 0 0 1 .2.034c.002.001-.005-.002-.016-.012a.126.126 0 0 1-.023-.028l1.716-1.027Zm-1.78-.965c-.664-.033-1.374.188-1.78.886l1.728 1.006a.25.25 0 0 1-.115.101c-.037.017-.027 0 .07.005l.098-1.998Zm-1.765.861c-.31.499-.423 1.145-.454 1.794l1.997.097c.027-.544.118-.775.155-.835l-1.698-1.056Zm-.454 1.794-.105 2.141 1.998.098.104-2.142-1.997-.097Zm.845 3.189 2.35.115.097-1.998-2.35-.115-.097 1.998Zm3.548.173 2.525.123.097-1.997-2.524-.124-.098 1.998Zm3.573-.827.113-2.317-1.998-.097-.113 2.317 1.998.097Zm.113-2.317c.035-.721-.042-1.441-.38-2.019-.384-.655-1.018-.989-1.738-1.024l-.098 1.998c.082.004.104.02.098.016-.01-.006-.006-.009.011.02.05.086.137.344.11.912l1.997.097Zm-2.118-3.043c-.714-.035-1.448.195-1.892.896l1.69 1.07c-.001.001-.008.011-.02.022-.014.011-.026.017-.031.02-.01.004.03-.016.155-.01l.098-1.998Zm-1.87.863c-.372.538-.501 1.27-.537 2.007l1.997.098c.032-.648.143-.908.186-.969l-1.646-1.136Zm-.537 2.007-.111 2.27 1.997.097.111-2.269-1.997-.098Zm-2.532-10.641.69.723.006-.006-.696-.717Zm2.166-1.048.998.049.057-1.156-1.152.112.097.995Zm-.072 1.47.156.988.803-.127.04-.812-1-.049Zm-1.284.706.743.67.005-.006.006-.006-.754-.658Zm4.909 3.46.61.793.007-.006-.617-.787Zm.495-3.244.812-.583-.005-.006-.004-.007-.803.596Zm-1.193-.843-.998-.049-.04.802.774.212.264-.965Zm.074-1.502.236-.972-1.176-.286-.06 1.209 1 .049Zm2.061 1.414-.803.596.005.006.798-.602Zm-.634 5.432-.62-.785.62.785Zm-6.438-.363.709-.706-.005-.004-.703.71Zm-.116-3.033c.038-.769.293-1.316.722-1.726l-1.38-1.447c-.848.809-1.28 1.863-1.34 3.075l1.998.098Zm.728-1.732c.494-.479 1.01-.716 1.566-.77l-.193-1.99c-1.054.102-1.981.564-2.766 1.325l1.393 1.435Zm.47-1.814-.071 1.47 1.998.098.071-1.47-1.997-.098Zm.772.531a3.087 3.087 0 0 0-1.882 1.037l1.508 1.315c.183-.21.398-.331.686-.376l-.312-1.976Zm-1.871 1.025c-.517.574-.785 1.276-.822 2.051l1.997.097c.017-.354.128-.606.31-.809l-1.485-1.339Zm-.822 2.051c-.049.994.315 1.867 1.03 2.563l1.395-1.433c-.325-.317-.447-.642-.428-1.033l-1.998-.097Zm1.03 2.563c.755.734 1.796 1.059 2.963 1.116l.097-1.998c-.878-.043-1.38-.274-1.665-.551l-1.395 1.433Zm2.963 1.116c1.177.057 2.251-.164 3.09-.808l-1.218-1.586c-.338.259-.885.44-1.775.396l-.097 1.998Zm3.097-.814c.791-.619 1.25-1.455 1.3-2.456l-1.998-.097c-.019.384-.17.694-.535.979l1.233 1.574Zm1.3-2.456c.038-.786-.153-1.524-.61-2.158l-1.624 1.167c.165.228.255.509.236.894l1.998.097Zm-.618-2.171c-.44-.593-1.02-1.017-1.731-1.211l-.529 1.929c.238.065.453.204.654.474l1.606-1.192Zm-.997-.198.074-1.502-1.998-.098-.073 1.502 1.997.098Zm-1.162-.579c.575.14 1.07.465 1.495 1.038l1.606-1.192c-.677-.911-1.556-1.529-2.628-1.79l-.473 1.944Zm1.5 1.044c.4.531.592 1.153.555 1.917l1.998.098c.058-1.196-.253-2.286-.956-3.219l-1.597 1.204Zm.555 1.917c-.047.973-.397 1.644-1.01 2.128l1.24 1.57c1.12-.884 1.695-2.122 1.768-3.6l-1.998-.098Zm-1.01 2.128c-.64.504-1.486.77-2.629.714l-.097 1.998c1.52.074 2.872-.279 3.965-1.142l-1.24-1.57Zm-2.629.714c-1.093-.053-1.89-.404-2.481-.998l-1.417 1.412c.997 1.001 2.294 1.51 3.8 1.584l.098-1.998Zm-2.486-1.002c-.58-.574-.869-1.314-.82-2.323l-1.997-.098c-.074 1.506.38 2.821 1.41 3.841l1.407-1.42Zm1.666-8.443-.049.998.999.049.049-.999-1-.048Zm.89-4.458.72.694.008-.008-.728-.686Zm4.232.271.815-.581-.007-.009-.808.59Zm.368 5.913-.049.998 1 .049.048-.999-.999-.048Zm-8.597-.42-1-.049-.048.999.999.048.049-.998Zm.07-1.455.05-.998-1-.049-.048.999.999.048Zm7.336.359-.049.998.999.049.049-.999-1-.048Zm-.204-3.374-.822.569.004.006.005.007.813-.582Zm-2.35-.115.795.607.005-.006.005-.006-.804-.595Zm-.483 3.34-.998-.048-.05.998 1 .049.048-.999Zm-.263-.013.1-2.045-1.998-.098-.1 2.046 1.998.097Zm.1-2.045c.05-1.023.286-1.534.511-1.767l-1.44-1.389c-.72.746-1.01 1.844-1.069 3.058l1.998.098Zm.52-1.775c.193-.206.555-.391 1.306-.355l.097-1.997c-1.103-.054-2.13.205-2.86.98l1.456 1.372Zm1.306-.355c.843.042 1.213.288 1.39.529l1.615-1.179c-.665-.91-1.727-1.29-2.908-1.347l-.097 1.997Zm1.383.52c.23.322.399.877.354 1.8l1.997.097c.057-1.164-.133-2.23-.722-3.058l-1.63 1.161Zm.354 1.8-.17 3.484 1.997.097.17-3.484-1.997-.097Zm.877 2.534-8.598-.42-.097 1.997 8.597.42.098-1.997Zm-7.648.627.071-1.454L80.81 481l-.071 1.454 1.997.097Zm-.976-.504 3.036.148.098-1.997-3.037-.148-.097 1.997Zm8.383-.592.092-1.901-1.997-.098-.093 1.902 1.998.097Zm.092-1.901c.037-.747-.058-1.512-.482-2.104l-1.626 1.165c.036.05.139.267.11.841l1.998.098Zm-.473-2.09c-.47-.68-1.221-.933-1.964-.969l-.098 1.998c.192.009.303.042.358.067.047.022.056.037.06.042l1.644-1.138Zm-1.964-.969c-.727-.035-1.508.149-2.011.828l1.608 1.19c-.01.013-.022.014 0 .006a.828.828 0 0 1 .305-.026l.098-1.998Zm-2.002.816c-.416.545-.56 1.288-.596 2.029l1.998.097c.03-.623.148-.86.187-.912l-1.589-1.214Zm-.596 2.029-.091 1.87 1.997.097.091-1.87-1.997-.097Zm.859 2.917 3.036.148.098-1.997-3.037-.149-.097 1.998Zm4.923-12.574.573.82.402-.281.024-.49-1-.049Zm-3.964 2.77-.573-.82-.402.281-.024.49.999.049Zm-.054 1.103-.999-.049-.048.999.998.048.05-.998Zm3.82.186.998.049.05-.999-1-.049-.048.999Zm-.072 1.47-.049.999.999.049.049-.999-1-.049Zm-8.598-.42-.999-.048-.049.998 1 .049.048-.999Zm.072-1.47.049-.999-1-.048-.048.998.999.049Zm3.516.172-.05.999 1 .048.049-.998-1-.049Zm.052-1.071.999.049.024-.489-.372-.319-.651.759Zm-3.382-2.904-1-.049-.023.489.371.318.652-.758Zm.084-1.726.662-.75-1.56-1.376-.1 2.077.998.049Zm3.9 3.442-.661.75.595.525.647-.46-.58-.815Zm4.714-3.358.999.049.1-2.06-1.68 1.197.581.814Zm-.66.986-3.965 2.77 1.146 1.64 3.964-2.77-1.146-1.64Zm-4.39 3.541-.055 1.103 1.998.097.054-1.102-1.998-.098Zm.895 2.15 3.82.187.097-1.998-3.819-.186-.098 1.997Zm2.87-.861-.072 1.471 1.998.097.071-1.47-1.997-.098Zm.976.521-8.598-.42-.098 1.997 8.598.42.098-1.997Zm-7.648.627.072-1.47-1.998-.098-.072 1.471 1.998.097Zm-.976-.52 3.516.172.097-1.998-3.515-.172-.098 1.998Zm4.564-.778.052-1.071-1.998-.098-.052 1.071 1.998.098Zm-.296-1.879-3.382-2.904-1.303 1.517 3.383 2.905 1.302-1.518Zm-3.035-2.097.085-1.725-1.998-.098-.084 1.726 1.997.097Zm-1.576-1.024 3.901 3.442 1.323-1.5-3.9-3.442-1.324 1.5Zm5.143 3.507 4.713-3.358-1.16-1.629-4.714 3.358 1.16 1.629Zm3.134-4.222-.088 1.806 1.998.098.088-1.806-1.998-.098Zm-2.853-6.037.05-.999-1.099-.054.05 1.098 1-.045Zm.448 3.289-.952.304.001.005.951-.309Zm2.192.716-.74-.671.74.671Zm-.103-3.129.8-.6-.8.6Zm.907 4.386.752.659.008-.009-.76-.65Zm-3.107.313-.642.766.007.007.008.006.627-.779Zm-.804-1.257.942-.335-.003-.009-.939.344Zm-.455-1.832.99-.145-.99.145Zm-.234-2.431.998-.061-.055-.894-.894-.043-.049.998Zm-.782 3.887.999.049.046-.942-.938-.101-.107.994Zm-.074 1.502-.12.993 1.067.129.052-1.073-.999-.049Zm-2.055-1.206-.823.569.004.006.819-.575Zm.322-4.95-.658-.753.658.753Zm2.724-.684-.057.999.057-.999Zm1.981.113-.057.998.057-.998Zm3.255-.065.999.048.06-1.228-1.215.192.156.988Zm-.072 1.47.104.995.853-.089.042-.857-.999-.049Zm-1.188.054.02-1-3.484-.07 2.917 1.907.547-.837Zm-2.362-1.149-.544-.026-.097 1.997.543.027.098-1.998Zm-1.591 1.018c.068 1.49.221 2.693.494 3.548l1.905-.607c-.19-.598-.335-1.588-.402-3.032l-1.997.091Zm.495 3.553c.149.458.377.897.733 1.234.375.354.84.546 1.349.571l.097-1.997a.148.148 0 0 1-.046-.008c-.002-.001-.01-.004-.026-.019-.036-.035-.12-.14-.204-.398l-1.903.617Zm2.082 1.805c.688.034 1.325-.199 1.802-.726l-1.482-1.343c-.041.046-.08.078-.223.072l-.097 1.997Zm1.802-.726c.46-.507.652-1.153.685-1.82l-1.998-.097c-.017.356-.109.507-.169.574l1.482 1.343Zm.685-1.82c.047-.956-.174-1.841-.73-2.581l-1.6 1.201c.228.302.36.705.332 1.283l1.998.097Zm-.73-2.581c-.637-.849-1.644-1.195-2.743-1.249l-.098 1.998c.776.038 1.097.259 1.242.452l1.6-1.201Zm-.133 2.86c-.032.661-.224 1.13-.52 1.476l1.521 1.3c.633-.741.947-1.657.997-2.679l-1.998-.097Zm-.512 1.467c-.26.297-.577.442-1.062.418l-.097 1.998c1.05.051 1.974-.309 2.664-1.098l-1.505-1.318Zm-1.062.418c-.307-.015-.511-.102-.665-.225l-1.254 1.558c.524.422 1.149.632 1.822.665l.097-1.998Zm-.65-.213c-.164-.137-.347-.385-.504-.825l-1.884.67c.238.668.59 1.258 1.104 1.688l1.284-1.533Zm-.507-.834a8.169 8.169 0 0 1-.404-1.633l-1.98.29c.106.717.273 1.395.506 2.031l1.878-.688Zm-.404-1.633c-.091-.62-.167-1.4-.226-2.347l-1.996.123c.061.981.141 1.821.243 2.514l1.978-.29Zm-1.175-3.284-.208-.011-.097 1.998.207.01.098-1.997Zm-.208-.011c-.835-.04-1.656.113-2.287.646-.646.544-.909 1.329-.949 2.152l1.998.097c.023-.477.156-.65.24-.721.099-.083.34-.203.9-.176l.098-1.998Zm-3.236 2.798c-.037.76.12 1.499.594 2.098l1.567-1.242c-.088-.112-.184-.326-.163-.759l-1.998-.097Zm.594 2.098c.48.607 1.16.913 1.911.994l.215-1.988c-.333-.036-.476-.144-.559-.248l-1.567 1.242Zm1.02-.049-.073 1.502 1.997.098.074-1.502-1.998-.098Zm1.046.558c-.613-.074-1.04-.334-1.358-.787l-1.637 1.149c.66.94 1.605 1.484 2.754 1.624l.241-1.986Zm-1.353-.781a2.766 2.766 0 0 1-.493-1.77l-1.997-.098a4.764 4.764 0 0 0 .844 3.005l1.645-1.137Zm-.493-1.77c.051-1.042.333-1.582.65-1.859l-1.316-1.506c-.888.775-1.267 1.943-1.331 3.267l1.997.098Zm.65-1.859c.323-.282.923-.501 2.009-.438l.115-1.997c-1.342-.077-2.559.159-3.44.929l1.315 1.506Zm2.01-.438 1.98.112.114-1.996-1.98-.113-.115 1.997Zm1.98.112c1.421.081 2.589.063 3.468-.076l-.312-1.975c-.67.106-1.672.132-3.042.055l-.113 1.996Zm2.313-1.112-.071 1.47 1.997.098.072-1.471-1.998-.097Zm.824.524c-.383.04-.737.056-1.064.049l-.04 2c.419.008.856-.012 1.311-.059l-.207-1.99Zm-1.632 1.886c.51.333.853.931.795 2.123l1.998.097c.08-1.642-.407-3.05-1.699-3.894l-1.094 1.674Z" mask="url(#about-map__b)"/>
    </g>
    <g class="about-map__7">
        
                <path fill="#6BC28A" d="m572.5 450.654 1-3.5 6.5 1.5-.5 3.5 16.5 3.5 8-40-39.5-8-8 39.5 16 3.5Z" class="about-map__Vector about-map__291" opacity=".4"/>
        
        <path fill="#6BC28A" d="m495 597.154-7-41.5 28.5-5 2 13 61.5-10 .5 3 6-1-8.5-53 27.5-5 13 79-27 4.5-.5-3-11.5 2 .5 3-24 4-.5-3-15.5 2.5.5 3-45.5 7.5Z" class="about-map__Vector about-map__288" opacity=".4"/>
        
        <path fill="#6BC28A" d="m482.5 523.654-6.5-40 40-7 6.5 40.5-16.5 2.5-.5-3.5-7 1 .5 3.5-16.5 3Z" class="about-map__Vector about-map__290" opacity=".4"/>
    </g>
    <g class="about-map__5-6">
            <path fill="#FECA7A" d="m293 561.654 9-40.5 28.5 6-3 15 6 1.5.5-2.5 60.5 13 3-12.5 28 6.5-9 40.5-123.5-27Z" class="about-map__Vector about-map__287" opacity=".4"/>
        <path fill="#FECA7A" d="m415.5 523.154-28-28.5 28.5-28.5 28.5 29-12 11.5-2-2-5 5 2 2-12 11.5Z" class="about-map__Vector about-map__289" opacity=".4"/>
        <path fill="#FECA7A" d="m294 457.5 7 2-.5 3 16 3.5 8.5-39.5-39.5-8.5-8.5 39.5 16.5 3.5.5-3.5Z" class="about-map__Vector about-map__292" opacity=".4"/>
        <path fill="#FECA7A" d="m400 379-37.5 14.5 15 37.5 15.5-6-1.5-3 6.5-2.5 1.5 3 15.5-6-15-37.5Z" class="about-map__Vector about-map__293" opacity=".4"/>
        <path fill="#FECA7A" d="m468 388-19.5-35 35-20 20 35.5-14.5 8-2-3-6 3.5 2 3-15 8Z" class="about-map__Vector about-map__294" opacity=".4"/>
        <path stroke="#212721" stroke-width="1.5" d="m294 457.5 7 2-.5 3 16 3.5 8.5-39.5-39.5-8.5-8.5 39.5 16.5 3.5.5-3.5Z" class="about-map__Vector about-map__292"/>
        <path stroke="#212721" stroke-width="1.5" d="m400 379-37.5 14.5 15 37.5 15.5-6-1.5-3 6.5-2.5 1.5 3 15.5-6-15-37.5Z" class="about-map__Vector about-map__293"/>
        <path stroke="#212721" stroke-width="1.5" d="m468 388-19.5-35 35-20 20 35.5-14.5 8-2-3-6 3.5 2 3-15 8Z" class="about-map__Vector about-map__294"/>
      <g class="about-map__House about-map__border">
        <path stroke="#212721" stroke-width="1.5" d="m572.5 450.654 1-3.5 6.5 1.5-.5 3.5 16.5 3.5 8-40-39.5-8-8 39.5 16 3.5Z" class="about-map__Vector about-map__291"/>
        <path stroke="#212721" stroke-width="1.5" d="m293 561.654 9-40.5 28.5 6-3 15 6 1.5.5-2.5 60.5 13 3-12.5 28 6.5-9 40.5-123.5-27Z" class="about-map__Vector about-map__287"/>
        <path stroke="#212721" stroke-width="1.5" d="m495 597.154-7-41.5 28.5-5 2 13 61.5-10 .5 3 6-1-8.5-53 27.5-5 13 79-27 4.5-.5-3-11.5 2 .5 3-24 4-.5-3-15.5 2.5.5 3-45.5 7.5Z" class="about-map__Vector about-map__288"/>
        <path stroke="#212721" stroke-width="1.5" d="m415.5 523.154-28-28.5 28.5-28.5 28.5 29-12 11.5-2-2-5 5 2 2-12 11.5Z" class="about-map__Vector about-map__289"/>
        <path stroke="#212721" stroke-width="1.5" d="m482.5 523.654-6.5-40 40-7 6.5 40.5-16.5 2.5-.5-3.5-7 1 .5 3.5-16.5 3Z" class="about-map__Vector about-map__290"/>
      </g>
    </g>
    <g class="about-map__8">
      <g class="about-map__8">
        <path fill="#93C7E8" d="M656 427.5 629 397l31-26.5 26.5 30.5-13 11-2-2.5-5.5 4.5 2.5 2.5-12.5 11Z" class="about-map__Vector about-map__295" opacity=".4"/>
        <path fill="#93C7E8" d="m665.5 495 28-9 11.5 35.5 4-1.5-.5-1.5 35-12 1 2.5 5-2 1 2.5 4.5-1.5 9-81-26.5-35.5 37.5-44-.5-50L808 267l13 14-8.5 8 4 4.5-22.5 21 .5 39H805l-1.5 13h-21l-5 6 4.5 4-17 20.5 24.5 32-3.5 26.5-6-1-4.5 39.5 6.5.5-3.5 28L685 553l-19.5-58Z" class="about-map__Vector about-map__296" opacity=".4"/>
      </g>
      <g class="about-map__House about-map__border">
        <path stroke="#212721" stroke-width="1.5" d="M656 427.5 629 397l31-26.5 26.5 30.5-13 11-2-2.5-5.5 4.5 2.5 2.5-12.5 11Z" class="about-map__Vector about-map__295"/>
        <path stroke="#212721" stroke-width="1.5" d="m665.5 495 28-9 11.5 35.5 4-1.5-.5-1.5 35-12 1 2.5 5-2 1 2.5 4.5-1.5 9-81-26.5-35.5 37.5-44-.5-50L808 267l13 14-8.5 8 4 4.5-22.5 21 .5 39H805l-1.5 13h-21l-5 6 4.5 4-17 20.5 24.5 32-3.5 26.5-6-1-4.5 39.5 6.5.5-3.5 28L685 553l-19.5-58Z" class="about-map__Vector about-map__296"/>
        <path fill="#93C7E8" fill-opacity=".4" stroke="#212721" stroke-width="1.5" d="m801 262-34 31-27.5-2-4-23 47-26 18.5 20Z" class="about-map__Vector about-map__316"/>
      </g>
    </g>
    <g class="about-map__1-4">
      <g class="about-map__Group about-map__2114">
        <path fill="#D38D7E" d="m233 710.346-132-7 13-251.5 138 7-1.5 36-20-1 .5-7-37-2v-3.5h-8.5v3l-44-2.5-10 195.5 6 .5v-3l62 3v3h4.5l8-147h-2.5l.5-12h2.5v-1l29.5 2-9 187.5Z" class="about-map__Vector about-map__286" fill-opacity=".4"/>
      </g>
      <g class="about-map__House about-map__border">
        <path stroke="#212721" stroke-width="1.5" d="m232.5 710.5-132-7 13-251.5 138 7-1.5 36-20-1 .5-7-37-2v-3.5H185v3l-44-2.5-10 195.5 6 .5v-3l62 3v3h4.5l8-147H209l.5-12h2.5v-1l29.5 2-9 187.5Z" class="about-map__Vector about-map__286" fill-opacity=".4"/>
      </g>
      <path fill="#D38D7E" stroke="#212721" stroke-width="1.5" d="m274.5 699.248 1-16.5H268l.5-2.5H265l15.5-69 3.5 1.5 4.5-21 70.5 15.5-12 55.5h1l-.5 13.5-22.5-1.5-2.5 28-48-3.5Z" class="about-map__Vector about-map__315" fill-opacity=".4"/>
    </g>
    <g class="about-map__109">
        <path fill="#F5FF00" fill-opacity=".3" stroke="#212721" stroke-width="1.5" d="m902 486.748-49 15.5 6.5-164.5 47 2 19 3-23.5 144Z" />
    </g>
    <g class="about-map__9">
        <path fill="#E3E3E3" fill-opacity=".5" d="M552.221 286.852c-22.59 12.505-35.14 23.009-46.184 37.514-2.677 3.001-6.726 10.804-1.506 18.006 6.526 9.004 16.064 6.002 34.638 16.006 18.574 10.004 29.116 15.506 43.674 14.506 14.558-1.001 25.1-7.003 34.135-22.009 9.036-15.005 20.08-31.511 40.16-32.512 20.08-1 26.104 5.502 35.642 5.502 18.072-.5 21.084-12.004 22.088-20.007 1.004-8.003-2.51-27.01-53.212-33.012-50.701-6.002-86.845 3.501-109.435 16.006Z"/>
        <path fill="#8AD2CE" fill-opacity=".5" fill-rule="evenodd" d="m525.5 411.5 36.5 8 2.5-12 39.5 8 25-18.5 31-26.5 15.5 18 47-34.5 8.5-10 9.5-3 27-16.5 4-17.846V297l-5-4-27-2-4-23 47-26 10 10.5 32-1.5L676 155 460.5 296l23 37 20 35.5-1.5 1 23.5 42Zm-19.463-87.134c11.044-14.505 23.594-25.009 46.184-37.514 22.59-12.505 58.734-22.008 109.435-16.006 50.702 6.002 54.216 25.009 53.212 33.012-1.004 8.003-4.016 19.507-22.088 20.007-3.722 0-6.908-.99-10.603-2.138-5.776-1.794-12.794-3.974-25.039-3.364-20.08 1.001-31.124 17.507-40.16 32.512-9.035 15.006-19.577 21.008-34.135 22.009-14.558 1-25.1-4.502-43.674-14.506-8.299-4.47-14.795-6.343-20.023-7.851-6.473-1.867-11.005-3.174-14.615-8.155-5.22-7.202-1.171-15.005 1.506-18.006Z" clip-rule="evenodd"/>
      <path fill="#212721" d="m562 419.5-.161.733.741.162.154-.742-.734-.153Zm-36.5-8-.655.366.165.294.329.073.161-.733Zm39-4 .149-.735-.731-.148-.152.73.734.153Zm39.5 8-.149.735.327.066.268-.198-.446-.603Zm25-18.5.446.603.021-.016.02-.017L629 397Zm31-26.5.568-.489-.487-.567-.568.486.487.57Zm15.5 18-.568.489.452.526.56-.41-.444-.605Zm47-34.5.444.605.071-.052.056-.067-.571-.486Zm8.5-10-.226-.715-.206.065-.139.164.571.486Zm9.5-3 .226.715.087-.027.078-.048-.391-.64Zm27-16.5.391.64.271-.166.07-.31-.732-.164Zm4-17.846.732.164.018-.081v-.083h-.75Zm0-9.654h.75v-.36l-.281-.226-.469.586Zm-5-4 .469-.586-.182-.145-.232-.017-.055.748Zm-27-2-.739.129.1.576.584.043.055-.748Zm-4-23-.363-.656-.467.258.091.527.739-.129Zm47-26 .543-.517-.399-.42-.507.281.363.656Zm10 10.5-.543.517.236.248.342-.016-.035-.749Zm32-1.5.035.749 2.336-.109-1.964-1.27-.407.63ZM676 155l.407-.63-.409-.265-.409.267.411.628ZM460.5 296l-.411-.628-.613.402.387.622.637-.396Zm23 37 .653-.368-.007-.014-.009-.014-.637.396Zm20 35.5.416.624.579-.386-.342-.606-.653.368Zm-1.5 1-.416-.624-.577.385.338.605.655-.366Zm50.221-82.648-.363-.656.363.656Zm-46.184 37.514.56.499.02-.022.017-.023-.597-.454Zm155.619-53.52.088-.745-.088.745Zm53.212 33.012.744.093-.744-.093Zm-22.088 20.007v.75h.021l-.021-.75Zm-10.603-2.138-.223.717.223-.717Zm-25.039-3.364-.037-.749.037.749Zm-74.295 54.521-.052-.749.052.749Zm-43.674-14.506.356-.66-.356.66Zm-20.023-7.851-.208.72.208-.72Zm-14.615-8.155-.607.44.607-.44Zm57.63 76.395-36.5-8-.322 1.466 36.5 8 .322-1.466Zm1.605-11.42-2.5 12 1.468.306 2.5-12-1.468-.306Zm40.383 7.418-39.5-8-.298 1.47 39.5 8 .298-1.47Zm24.405-18.368-25 18.5.892 1.206 25-18.5-.892-1.206Zm30.959-26.467-31 26.5.974 1.14 31-26.5-.974-1.14Zm16.555 18.081-15.5-18-1.136.978 15.5 18 1.136-.978Zm45.988-34.616-47 34.5.888 1.21 47-34.5-.888-1.21Zm8.373-9.881-8.5 10 1.142.972 8.5-10-1.142-.972Zm9.845-3.229-9.5 3 .452 1.43 9.5-3-.452-1.43Zm26.835-16.425-27 16.5.782 1.28 27-16.5-.782-1.28Zm3.659-17.37-4 17.846 1.464.328 4-17.846-1.464-.328Zm-.018-9.49v9.654h1.5V297h-1.5Zm-4.719-3.414 5 4 .938-1.172-5-4-.938 1.172Zm-26.586-1.838 27 2 .11-1.496-27-2-.11 1.496Zm-4.684-23.619 4 23 1.478-.258-4-23-1.478.258Zm47.376-26.785-47 26 .726 1.312 47-26-.726-1.312Zm10.906 10.639-10-10.5-1.086 1.034 10 10.5 1.086-1.034Zm31.422-1.732-32 1.5.07 1.498 32-1.5-.07-1.498ZM675.593 155.63l148.5 96 .814-1.26-148.5-96-.814 1.26ZM460.911 296.628l215.5-141-.822-1.256-215.5 141 .822 1.256Zm23.226 35.976-23-37-1.274.792 23 37 1.274-.792Zm20.016 35.528-20-35.5-1.306.736 20 35.5 1.306-.736Zm-1.737 1.992 1.5-1-.832-1.248-1.5 1 .832 1.248Zm23.739 41.01-23.5-42-1.31.732 23.5 42 1.31-.732Zm25.703-124.938c-22.655 12.54-35.294 23.107-46.417 37.716l1.193.908c10.965-14.402 23.425-24.843 45.95-37.312l-.726-1.312Zm109.886-16.095c-50.835-6.018-87.141 3.504-109.886 16.095l.726 1.312c22.434-12.418 58.416-21.904 108.984-15.917l.176-1.49Zm53.868 33.85c.527-4.201-.155-11.209-7.454-17.902-7.258-6.656-20.995-12.939-46.414-15.948l-.176 1.49c25.283 2.993 38.654 9.215 45.577 15.563 6.882 6.312 7.455 12.808 6.978 16.61l1.489.187Zm-22.811 20.664c9.209-.255 14.708-3.327 18.01-7.473 3.272-4.108 4.295-9.16 4.801-13.191l-1.489-.187c-.498 3.972-1.483 8.674-4.485 12.444-2.973 3.732-8.017 6.662-16.879 6.908l.042 1.499Zm-10.847-2.171c3.681 1.143 6.973 2.171 10.826 2.171v-1.5c-3.59 0-6.671-.951-10.381-2.104l-.445 1.433Zm-24.779-3.332c12.118-.603 19.038 1.548 24.779 3.332l.445-1.433c-5.809-1.805-12.925-4.013-25.298-3.397l.074 1.498Zm-39.554 32.15c9.065-15.053 19.923-31.172 39.554-32.15l-.074-1.498c-20.528 1.023-31.758 17.916-40.765 32.874l1.285.774Zm-34.727 22.37c7.373-.507 13.774-2.284 19.486-5.865 5.709-3.579 10.679-8.929 15.241-16.505l-1.285-.774c-4.474 7.431-9.293 12.585-14.753 16.008-5.458 3.422-11.606 5.146-18.792 5.639l.103 1.497Zm-44.08-14.593c18.538 9.984 29.271 15.611 44.08 14.593l-.103-1.497c-14.306.983-24.657-4.394-43.266-14.417l-.711 1.321Zm-19.876-7.792c5.218 1.505 11.65 3.361 19.876 7.792l.711-1.321c-8.373-4.51-14.932-6.401-20.171-7.912l-.416 1.441Zm-15.014-8.435c3.782 5.218 8.57 6.577 15.014 8.435l.416-1.441c-6.502-1.875-10.777-3.13-14.215-7.874l-1.215.88Zm1.554-18.945c-1.412 1.582-3.163 4.397-3.889 7.769-.73 3.395-.422 7.373 2.335 11.176l1.215-.88c-2.464-3.399-2.741-6.924-2.083-9.981.663-3.08 2.275-5.667 3.541-7.086l-1.119-.998Z"/>
    </g>
    <g class="about-map__110">
        <path fill="#E3E3E3" fill-opacity=".5" d="M552.221 286.852c-22.59 12.505-35.14 23.009-46.184 37.514-2.677 3.001-6.726 10.804-1.506 18.006 6.526 9.004 16.064 6.002 34.638 16.006 18.574 10.004 29.116 15.506 43.674 14.506 14.558-1.001 25.1-7.003 34.135-22.009 9.036-15.005 20.08-31.511 40.16-32.512 20.08-1 26.104 5.502 35.642 5.502 18.072-.5 21.084-12.004 22.088-20.007 1.004-8.003-2.51-27.01-53.212-33.012-50.701-6.002-86.845 3.501-109.435 16.006Z" />
    </g>
  </g>
</svg>
