<svg width="80" height="17" viewBox="0 0 80 17" fill="none" xmlns="http://www.w3.org/2000/svg">
<path d="M2.62161 7.00823V11.0874C2.62161 11.6714 2.72004 12.0218 2.92583 12.1476C3.09583 12.2464 3.3911 12.3183 3.81163 12.3632V12.8305C3.00635 12.7406 2.37108 12.6867 1.91476 12.6867C1.44949 12.6867 0.814221 12.7316 0.00894749 12.8305V12.3632C0.420532 12.3183 0.715799 12.2464 0.894748 12.1476C0.993171 12.0937 1.06475 12.0218 1.10054 11.932C1.17212 11.7613 1.19896 11.4737 1.19896 11.0874V1.74307C1.19896 1.15905 1.10054 0.808642 0.894748 0.682854C0.697904 0.575035 0.402637 0.503155 0 0.467216V0H3.919C5.13586 0 6.01271 0.314472 6.54061 0.943416C7.11325 1.62627 7.39957 2.47984 7.39957 3.50412C7.39957 4.0522 7.3101 4.57332 7.1222 5.05851C6.94325 5.54369 6.68377 5.93903 6.36166 6.22655C5.80692 6.74767 5.03743 7.00823 4.07111 7.00823H2.62161ZM2.62161 6.41523H3.5611C4.259 6.41523 4.7869 6.24452 5.12691 5.91207C5.67271 5.37298 5.95008 4.55535 5.95008 3.44122C5.95008 2.70446 5.79797 2.04856 5.5027 1.47353C5.18954 0.880522 4.58111 0.584019 3.65952 0.584019H2.62161V6.41523Z" fill="#262626"/>
<path d="M9.90547 0.440253C9.71757 0.2336 9.49389 0.134766 9.23441 0.134766C8.98388 0.134766 8.77809 0.21563 8.59914 0.377358C8.39334 0.566042 8.29492 0.790665 8.29492 1.06021C8.29492 1.3028 8.37545 1.50946 8.52756 1.68916C8.71545 1.89581 8.93914 1.99464 9.21651 1.99464C9.4581 1.99464 9.66389 1.91378 9.84284 1.75205C10.0486 1.57235 10.1471 1.34773 10.1471 1.0692C10.1471 0.826604 10.0665 0.610966 9.90547 0.440253Z" fill="#262626"/>
<path d="M18.307 12.444V12.8304C17.6359 12.7585 17.0722 12.7315 16.6249 12.7315C16.1685 12.7315 15.6048 12.7675 14.9606 12.8304V12.444C15.4796 12.4081 15.7301 12.2913 15.7301 12.0666C15.7301 11.9408 15.6764 11.7611 15.569 11.5365L14.3611 8.88598L12.9922 11.3658C12.8222 11.6623 12.7416 11.8959 12.7416 12.0666C12.7416 12.2823 13.0101 12.4081 13.5559 12.444V12.8304C12.9832 12.7764 12.5627 12.7495 12.2764 12.7495C12.0706 12.7495 11.4174 12.8034 11.1221 12.8214C11.0237 12.8304 10.9253 12.8304 10.8358 12.8214C10.1916 12.7585 9.67265 12.7225 9.28791 12.7225C8.87633 12.7225 8.30369 12.7585 7.58789 12.8304V12.444C7.93684 12.417 8.18737 12.3631 8.34843 12.2733C8.52738 12.1745 8.61685 11.8869 8.61685 11.4107V5.34592C8.61685 4.77987 8.52738 4.44743 8.33948 4.34859C8.20527 4.27671 7.95474 4.23179 7.59684 4.2228V3.89935C8.42895 3.80051 9.21633 3.6298 9.95897 3.38721V11.4107C9.95897 11.8869 10.0484 12.1745 10.2185 12.2733C10.3527 12.3452 10.5495 12.3991 10.809 12.426C10.9432 12.444 11.0774 12.444 11.2027 12.417C11.31 12.3991 11.4353 12.3811 11.5695 12.3362C11.8201 12.2374 12.1064 11.9049 12.4285 11.3299L14.1017 8.31993L12.5001 4.85175C12.3122 4.43844 12.0706 4.19585 11.7843 4.11499C11.6679 4.07905 11.4979 4.05209 11.2921 4.05209V3.66574C11.9274 3.73762 12.4732 3.77356 12.9116 3.77356C13.359 3.77356 13.8869 3.73762 14.5043 3.66574V4.05209C14.0301 4.08803 13.7974 4.20483 13.7974 4.41149C13.7974 4.51032 13.8601 4.69002 13.9764 4.9416L14.889 6.94523L16.0075 4.95058C16.1327 4.72596 16.1954 4.53728 16.1954 4.39352C16.1954 4.19585 15.9448 4.07905 15.4438 4.05209V3.66574C15.9359 3.71965 16.3475 3.73762 16.6875 3.73762C17.0275 3.73762 17.448 3.71066 17.9491 3.66574V4.05209C17.6896 4.07006 17.4838 4.106 17.3407 4.15991C17.0991 4.24976 16.8664 4.49235 16.6427 4.88769L15.1485 7.5023L16.9649 11.4467C17.2154 11.9858 17.5017 12.3002 17.8149 12.3811C17.9222 12.417 18.0922 12.435 18.307 12.444Z" fill="#262626"/>
<path d="M22.8611 9.82049H23.4695C23.3979 10.6381 23.1653 11.33 22.7806 11.905C22.3242 12.6058 21.6532 12.9562 20.7763 12.9562C19.7474 12.9562 18.9689 12.489 18.441 11.5546C17.94 10.6651 17.6895 9.55993 17.6895 8.23016C17.6895 6.91837 17.94 5.83119 18.4321 4.95966C18.7095 4.48345 19.0674 4.11507 19.5147 3.84553C19.8547 3.63887 20.2395 3.54004 20.669 3.54004C21.2327 3.54004 21.7516 3.73771 22.2169 4.13304C22.87 4.68112 23.2727 5.7054 23.4158 7.18791C23.4427 7.41254 23.4606 7.69107 23.4606 8.0325H19.0584C19.0763 8.82317 19.1121 9.4611 19.1658 9.92831C19.3537 11.5276 19.9442 12.3183 20.9463 12.3183C21.5279 12.3183 21.9664 12.0847 22.2795 11.6085C22.5927 11.1323 22.7895 10.5393 22.8611 9.82049ZM22.1185 7.38558C22.0648 5.14834 21.5727 4.02522 20.6511 4.02522C20.2842 4.02522 19.9711 4.23188 19.7205 4.6362C19.3626 5.19326 19.1658 6.10972 19.1032 7.38558H22.1185Z" fill="#262626"/>
<path d="M23.3711 4.18676V3.8633C24.1316 3.79142 24.8116 3.66563 25.3932 3.50391C25.4916 3.88127 25.5632 4.42037 25.6169 5.12119C26.0732 4.06996 26.6996 3.53985 27.5138 3.53985C28.3638 3.53985 29.0527 3.99808 29.5806 4.91454C30.0996 5.81303 30.3501 6.91817 30.3501 8.23896C30.3501 9.56872 30.0996 10.6829 29.5896 11.5813C29.0796 12.4888 28.3996 12.9381 27.5496 12.9381C27.0932 12.9381 26.7175 12.8123 26.4132 12.5517C26.1896 12.363 25.9659 12.0665 25.7422 11.6532V15.1753C25.7422 15.5976 25.8048 15.8671 25.9301 15.984C26.0643 16.1187 26.3417 16.1906 26.7711 16.2176V16.6039C26.0732 16.523 25.4916 16.4781 25.0353 16.4781C24.579 16.4781 24.0243 16.523 23.3711 16.6039V16.2176C23.6664 16.1996 23.8811 16.1547 24.0332 16.0918C24.1495 16.0379 24.239 15.984 24.2837 15.9031C24.3643 15.7773 24.409 15.5347 24.409 15.1753V5.34581C24.409 4.74382 24.3106 4.4024 24.1048 4.29458C23.9706 4.24965 23.729 4.20473 23.3711 4.18676ZM27.3796 4.07894C26.9232 4.07894 26.5564 4.3395 26.2701 4.85164C25.9122 5.51653 25.7332 6.61269 25.7332 8.13114C25.7332 10.9704 26.288 12.399 27.3975 12.399C28.4354 12.399 28.9543 11.0243 28.9543 8.28388C28.9543 5.48059 28.4264 4.07894 27.3796 4.07894Z" fill="#262626"/>
<path d="M34.1881 4.2139V11.4108C34.1881 11.887 34.2776 12.1745 34.4566 12.2734C34.6176 12.3632 34.8681 12.4171 35.2171 12.4441V12.8304C34.4923 12.7585 33.9287 12.7226 33.5171 12.7226C33.0965 12.7226 32.5328 12.7585 31.8171 12.8304V12.4441C32.166 12.4171 32.4255 12.3632 32.5865 12.2734C32.7565 12.1745 32.846 11.887 32.846 11.4108V4.2139H32.5597C32.1481 4.2139 31.8439 4.30375 31.647 4.47446C31.4502 4.64517 31.2713 4.95066 31.1191 5.37295C31.0565 5.53468 30.967 5.81321 30.8507 6.20855H30.457L30.806 3.71973H36.2371L36.5861 6.20855H36.1924C35.9866 5.52569 35.8166 5.07645 35.6913 4.86081C35.5571 4.6272 35.405 4.46547 35.2529 4.37563C35.056 4.26781 34.8055 4.2139 34.4834 4.2139H34.1881Z" fill="#262626"/>
<path d="M59.3747 0V0.467216C59.0615 0.49417 58.8289 0.539095 58.6768 0.601989C58.5068 0.664884 58.3815 0.745748 58.3099 0.853567C58.2205 0.997326 58.1757 1.29383 58.1757 1.74307V11.0874C58.1757 11.6085 58.2473 11.941 58.3905 12.0667C58.5426 12.2105 58.8736 12.3093 59.3657 12.3543V12.8215C58.5784 12.7316 57.9431 12.6777 57.4778 12.6777C57.0126 12.6777 56.3683 12.7226 55.5631 12.8215V12.3543C55.9299 12.3183 56.1983 12.2644 56.3683 12.1835C56.4847 12.1296 56.5741 12.0578 56.6189 11.9769C56.7083 11.8331 56.762 11.5366 56.762 11.0784V1.85988C56.762 1.35672 56.7083 1.04225 56.592 0.916461C56.4578 0.763718 56.2252 0.664884 55.8941 0.619959C55.742 0.601989 55.3483 0.593004 54.7131 0.593004C53.9794 0.593004 53.532 0.610974 53.362 0.646914C53.0578 0.709808 52.8609 0.817627 52.7625 0.961386C52.673 1.11413 52.6283 1.41063 52.6283 1.85988V11.0784C52.6283 11.5995 52.6999 11.932 52.843 12.0578C52.9951 12.2015 53.3262 12.3003 53.8183 12.3453V12.8125C53.0041 12.7226 52.3688 12.6687 51.9035 12.6687C51.4293 12.6687 50.7941 12.7137 50.0156 12.8125V12.3453C50.3467 12.3183 50.5972 12.2644 50.7583 12.1925C50.9104 12.1386 51.0088 12.0578 51.0714 11.9679C51.1609 11.8152 51.2056 11.5187 51.2056 11.0694V1.7251C51.2056 1.20398 51.1341 0.871537 50.9909 0.745748C50.8298 0.601989 50.5077 0.503155 50.0156 0.458231V0H59.3747Z" fill="#262626"/>
<path d="M65.7369 12.2647V12.7678C65.379 12.8577 65.0748 12.9026 64.8243 12.9026C64.1174 12.9026 63.7148 12.3815 63.6342 11.3303C63.2227 12.3995 62.5516 12.9386 61.639 12.9386C61.0216 12.9386 60.5116 12.7139 60.1268 12.2737C59.7331 11.8154 59.5273 11.2224 59.5273 10.4947C59.5273 9.50632 59.9031 8.7426 60.6637 8.2035C61.4242 7.66441 62.3458 7.30501 63.4284 7.12531V5.76859C63.4284 5.04081 63.2942 4.55563 63.0258 4.32202C62.829 4.15131 62.5784 4.06146 62.2832 4.06146C61.9074 4.06146 61.6032 4.18725 61.3705 4.42984C61.2095 4.60055 61.1289 4.82517 61.1289 5.11269C61.1289 5.18457 61.1289 5.26544 61.1379 5.35528C61.1468 5.48107 61.1468 5.58889 61.1468 5.67874C61.1468 6.21784 60.9232 6.48738 60.4758 6.48738C60.1 6.48738 59.921 6.27175 59.921 5.83148C59.921 5.20254 60.1805 4.65446 60.6905 4.19623C61.1737 3.76495 61.7553 3.54932 62.4263 3.54932C62.99 3.54932 63.4821 3.71104 63.8848 4.02552C64.2964 4.34897 64.5648 4.8072 64.69 5.40021C64.7437 5.69671 64.7706 6.10103 64.7706 6.61317V10.6204C64.7706 11.5279 64.86 12.058 65.039 12.2198C65.1195 12.2916 65.2179 12.3276 65.3432 12.3276C65.4506 12.3276 65.5758 12.3096 65.7369 12.2647ZM63.4374 7.61948C62.8827 7.75426 62.4263 7.91599 62.0684 8.12264C61.29 8.58087 60.9053 9.32662 60.9053 10.3599C60.9053 11.0517 61.0574 11.5459 61.3705 11.8334C61.5674 12.0131 61.8 12.103 62.0684 12.103C62.9811 12.103 63.4374 11.1595 63.4374 9.28169V7.61948Z" fill="#262626"/>
<path d="M65.3535 4.18676V3.8633C66.1141 3.79142 66.7941 3.66563 67.3756 3.50391C67.4741 3.88127 67.5456 4.42037 67.5993 5.12119C68.0557 4.06996 68.682 3.53985 69.4962 3.53985C70.3462 3.53985 71.0352 3.99808 71.5631 4.91454C72.082 5.81303 72.3326 6.91817 72.3326 8.23896C72.3326 9.56872 72.082 10.6829 71.572 11.5813C71.062 12.4888 70.382 12.9381 69.532 12.9381C69.0757 12.9381 68.6999 12.8123 68.3957 12.5517C68.172 12.363 67.9483 12.0665 67.7246 11.6532V15.1753C67.7246 15.5976 67.7872 15.8671 67.9125 15.984C68.0467 16.1187 68.3241 16.1906 68.7536 16.2176V16.6039C68.0557 16.523 67.4741 16.4781 67.0177 16.4781C66.5614 16.4781 66.0067 16.523 65.3535 16.6039V16.2176C65.6488 16.1996 65.8635 16.1547 66.0156 16.0918C66.1319 16.0379 66.2214 15.984 66.2662 15.9031C66.3467 15.7773 66.3914 15.5347 66.3914 15.1753V5.34581C66.3914 4.74382 66.293 4.4024 66.0872 4.29458C65.953 4.24965 65.7114 4.20473 65.3535 4.18676ZM69.362 4.07894C68.9057 4.07894 68.5388 4.3395 68.2525 4.85164C67.8946 5.51653 67.7156 6.61269 67.7156 8.13114C67.7156 10.9704 68.2704 12.399 69.3799 12.399C70.4178 12.399 70.9367 11.0243 70.9367 8.28388C70.9367 5.48059 70.4088 4.07894 69.362 4.07894Z" fill="#262626"/>
<path d="M74.6406 9.26332V11.4467C74.6406 11.8959 74.7301 12.1744 74.909 12.2912C75.0611 12.3811 75.2848 12.444 75.5711 12.462V12.8393C74.9269 12.7674 74.3722 12.7315 73.9248 12.7315C73.4864 12.7315 72.9316 12.7674 72.2695 12.8393V12.453C72.6185 12.426 72.869 12.3721 73.0301 12.2823C73.209 12.1834 73.2985 11.8959 73.2985 11.4197V5.07635C73.2985 4.60015 73.209 4.31264 73.0301 4.2138C72.869 4.12395 72.6095 4.07004 72.2695 4.04309V3.65674C72.9316 3.72862 73.4864 3.76456 73.9248 3.76456C74.3811 3.76456 74.9269 3.72862 75.5711 3.65674V4.04309C75.2848 4.06106 75.0611 4.11497 74.909 4.2138C74.7301 4.32162 74.6406 4.60914 74.6406 5.05838V8.4457L76.9759 5.27402C77.2175 4.94158 77.3428 4.68102 77.3428 4.50132C77.3428 4.24974 77.0654 4.097 76.5017 4.06106V3.67471C77.0206 3.7376 77.4859 3.76456 77.8975 3.76456C78.318 3.76456 78.828 3.7376 79.4186 3.67471V4.06106C79.0249 4.10598 78.7296 4.18685 78.5417 4.29467C78.3538 4.40249 78.1391 4.62711 77.8796 4.96854L76.2601 7.11593L78.5775 11.4107C78.8101 11.833 78.998 12.1115 79.1412 12.2373C79.2754 12.3541 79.5438 12.426 79.9465 12.453V12.8393C79.2665 12.7764 78.7475 12.7495 78.3807 12.7495C78.0138 12.7495 77.4859 12.7764 76.8059 12.8393V12.462C76.8954 12.453 76.958 12.444 76.9938 12.435C77.3696 12.408 77.5485 12.3002 77.5485 12.1295C77.5485 12.0486 77.4949 11.9049 77.3785 11.6982L75.4638 8.18513L74.6406 9.26332Z" fill="#262626"/>
<path d="M47.4403 7.01739C47.7087 6.56815 47.9592 6.28063 48.2098 6.14586C48.4424 6.02007 48.7287 5.95717 49.0598 5.94819L49.2119 5.36417H46.474L46.3218 5.94819C46.6797 5.96616 46.8945 6.08296 46.9482 6.2986C47.0019 6.51424 46.8676 6.91856 46.5187 7.51156C45.7403 8.76945 45.2034 9.62302 44.8903 10.0273L44.8097 10.1441L43.6018 5.78646L43.6465 5.75951C45.0334 4.8071 45.9013 3.7379 46.2324 2.58783C46.4113 1.89599 46.4113 1.33893 46.2145 0.916638C46.0176 0.503332 45.606 0.305664 44.935 0.305664C43.9776 0.305664 43.1097 0.817804 42.385 1.8331C41.6513 2.83941 41.4902 4.05237 41.8749 5.41808L42.1076 6.24469L42.0539 6.28063C40.157 7.36781 38.9581 8.75148 38.5107 10.3688C38.2512 11.3481 38.3586 12.1388 38.8328 12.6869C39.307 13.2439 39.9602 13.5315 40.7744 13.5315C41.7318 13.5315 42.725 13.0642 43.7002 12.1388L43.7718 12.0669L43.8166 12.1657C44.1655 13.0732 44.9171 13.5315 46.0445 13.5315C47.1182 13.5315 47.7803 13.1002 48.0398 12.2286H47.4671C47.3866 12.4712 47.2524 12.6509 47.0555 12.7677C46.8587 12.8935 46.635 12.9564 46.4024 12.9564C46.0982 12.9564 45.8566 12.8666 45.6776 12.7048C45.5076 12.5341 45.3645 12.2286 45.2303 11.7704L44.9529 10.7641L44.9797 10.7371C45.5434 10.0363 46.3666 8.78742 47.4403 7.01739ZM43.2171 2.81245C43.3334 2.1925 43.5302 1.7163 43.8166 1.38385C44.0939 1.0604 44.416 0.889683 44.765 0.889683C45.0513 0.889683 45.275 0.988517 45.4092 1.16822C45.6329 1.46472 45.6329 1.99483 45.4092 2.7855C45.096 3.84572 44.4876 4.71726 43.575 5.37315L43.5034 5.42706L43.4139 5.12158C43.1634 4.2141 43.1008 3.43241 43.2171 2.81245ZM43.6018 11.5278C42.8323 12.2376 42.0897 12.597 41.4186 12.597C40.8191 12.597 40.3718 12.3454 40.1033 11.8423C39.8349 11.3481 39.817 10.6653 40.0586 9.80272C40.4434 8.41005 41.1502 7.35882 42.1434 6.68495L42.2239 6.63104L43.6287 11.5009L43.6018 11.5278Z" fill="#262626"/>
</svg>
