<svg width="25" height="25" viewBox="0 0 25 25" fill="none" xmlns="http://www.w3.org/2000/svg">
<path fill-rule="evenodd" clip-rule="evenodd" d="M17 6.30859C17 8.24159 15.433 9.80859 13.5 9.80859C11.567 9.80859 10 8.24159 10 6.30859C10 4.3756 11.567 2.80859 13.5 2.80859C15.433 2.80859 17 4.3756 17 6.30859ZM16.3092 9.82422C17.3399 8.99959 18 7.73118 18 6.30859C18 3.82331 15.9853 1.80859 13.5 1.80859C11.4501 1.80859 9.72037 3.17922 9.17721 5.05402C8.53517 4.29242 7.57409 3.80859 6.5 3.80859C4.567 3.80859 3 5.3756 3 7.30859C3 8.29599 3.40888 9.18789 4.06656 9.82422H1H0.5V10.3242V21.6644V22.1644H1H18.7976H19.2976V21.6644V19.8997L23.7561 22.3917L24.5 22.8075V21.9552V10.3242V9.47196L23.7561 9.88777L19.2976 12.3797V10.3242V9.82422H18.7976H16.3092ZM9.7022 8.72352C9.96932 9.14272 10.3039 9.51473 10.6908 9.82422H8.93344C9.25572 9.51241 9.51825 9.13923 9.7022 8.72352ZM6.5 9.80859C7.88071 9.80859 9 8.68931 9 7.30859C9 5.92788 7.88071 4.80859 6.5 4.80859C5.11929 4.80859 4 5.92788 4 7.30859C4 8.68931 5.11929 9.80859 6.5 9.80859ZM19.2976 13.5253V18.7541L23.5 21.1029V11.1765L19.2976 13.5253ZM1.5 10.8242V21.1644H18.2976V19.0475V13.232V10.8242H1.5ZM9 14.0227H3V13.0227H9V14.0227ZM12 14.0227H10V13.0227H12V14.0227Z" fill="#212721"/>
</svg>
