<svg width="24" height="26" viewBox="0 0 24 26" fill="none" xmlns="http://www.w3.org/2000/svg">
<path fill-rule="evenodd" clip-rule="evenodd" d="M6.43383 2.44375C3.06705 2.87205 0.61219 6.24511 1.05773 10.0656C1.41779 13.153 3.54951 15.482 6.13118 16.0359V13.6406L3.81174 11.1887C3.62197 10.9881 3.63076 10.6716 3.83136 10.4818C4.03197 10.2921 4.34842 10.3009 4.53819 10.5015L6.13118 12.1854V12.1327V6.83223C6.13118 6.55609 6.35504 6.33223 6.63118 6.33223C6.90732 6.33223 7.13118 6.55609 7.13118 6.83223V10.8808L9.71043 8.167C9.90067 7.96684 10.2172 7.95879 10.4173 8.14903C10.6175 8.33926 10.6255 8.65574 10.4353 8.8559L7.13118 12.3324V13.4415V16.1589C7.42737 16.1687 7.72704 16.1551 8.02837 16.1167C8.41236 16.0679 8.78334 15.9813 9.13883 15.8609C8.88369 15.5204 8.73254 15.0975 8.73254 14.6393C8.73254 13.5133 9.64536 12.6005 10.7714 12.6005H12.7729C12.7741 12.5344 12.7885 12.4674 12.8174 12.4031C13.3395 11.2406 13.5677 9.89456 13.4045 8.49492C12.9589 4.67445 9.80061 2.01545 6.43383 2.44375ZM13.8165 12.6005C14.3492 11.3211 14.5713 9.86793 14.3965 8.36872C13.8974 4.08923 10.318 0.941626 6.318 1.45048C2.318 1.95933 -0.433346 5.91229 0.0657272 10.1918C0.478964 13.7352 3.00408 16.5027 6.13118 17.0609V21.5219C5.92335 21.5398 5.68811 21.578 5.44776 21.6588C5.10452 21.2762 4.51307 20.8618 3.68789 20.8618C3.01311 20.8618 2.42122 21.1042 1.99779 21.5346C1.57573 21.9636 1.34833 22.5514 1.34833 23.1941C1.34833 23.6505 1.43236 24.06 1.54439 24.3955H0.862854C0.586712 24.3955 0.362854 24.6194 0.362854 24.8955C0.362854 25.1717 0.586712 25.3955 0.862854 25.3955H2.33887H8.47074H9.69273L11.6939 25.3955L17.5415 25.3955L19.5705 25.3955L19.9329 25.3955H22.3244H23.5078C23.784 25.3955 24.0078 25.1717 24.0078 24.8955C24.0078 24.6194 23.784 24.3955 23.5078 24.3955H22.3244H20.9742C21.0266 24.2437 21.0551 24.0806 21.0551 23.911V21.8076H21.4775C22.6036 21.8076 23.5164 20.8948 23.5164 19.7688C23.5164 18.6428 22.6036 17.7299 21.4775 17.7299H20.0704V16.6782H20.493C21.6191 16.6782 22.5319 15.7653 22.5319 14.6393C22.5319 13.5133 21.619 12.6005 20.493 12.6005H13.8165ZM19.0704 16.6782V17.7299H12.1939V16.6782H19.0704ZM11.1939 16.6782V17.7299H9.78676C8.66074 17.7299 7.74792 18.6428 7.74792 19.7688C7.74792 20.8948 8.66074 21.8076 9.78676 21.8076H10.2094V23.911C10.2094 24.0806 10.2378 24.2437 10.2902 24.3955H9.69273H9.24017L9.24027 24.3853C9.24027 23.5063 8.95686 22.781 8.46797 22.2721C8.1002 21.8894 7.63383 21.648 7.13118 21.5526V17.162C7.46469 17.1702 7.80292 17.1534 8.1442 17.11C8.75555 17.0322 9.3398 16.8729 9.88865 16.6431C9.94684 16.6187 9.99813 16.5847 10.0414 16.5436C10.2681 16.6305 10.5142 16.6782 10.7714 16.6782H11.1939ZM17.5415 24.3955H18.1668C18.1144 24.2437 18.0859 24.0806 18.0859 23.911V21.8076H13.1785V23.911C13.1785 24.0806 13.15 24.2437 13.0976 24.3955H17.5415ZM19.0859 23.911C19.0859 24.1786 19.3029 24.3955 19.5705 24.3955C19.8381 24.3955 20.0551 24.1786 20.0551 23.911V22.1473H19.0859V23.911ZM11.6939 24.3955C11.4263 24.3955 11.2094 24.1786 11.2094 23.911V22.1473H12.1785V23.911C12.1785 24.1786 11.9615 24.3955 11.6939 24.3955ZM2.62204 24.3955H8.24037L8.24027 24.3853C8.24027 23.7254 8.0314 23.2611 7.74687 22.965C7.46089 22.6673 7.06696 22.5059 6.63118 22.5059C6.26853 22.5059 5.87447 22.5142 5.53128 22.7114L5.08458 22.9681L4.84138 22.5139C4.73375 22.3129 4.32877 21.8618 3.68789 21.8618C3.25893 21.8618 2.93104 22.0119 2.71062 22.2359C2.48884 22.4614 2.34833 22.7897 2.34833 23.1941C2.34833 23.7173 2.49936 24.1465 2.62204 24.3955ZM9.73254 14.6393C9.73254 14.0656 10.1976 13.6005 10.7714 13.6005H20.493C21.0668 13.6005 21.5319 14.0656 21.5319 14.6393C21.5319 15.2131 21.0668 15.6782 20.493 15.6782H10.7714C10.1976 15.6782 9.73254 15.2131 9.73254 14.6393ZM9.78676 18.7299C9.21303 18.7299 8.74792 19.1951 8.74792 19.7688C8.74792 20.3425 9.21303 20.8076 9.78676 20.8076H21.4775C22.0513 20.8076 22.5164 20.3425 22.5164 19.7688C22.5164 19.1951 22.0513 18.7299 21.4775 18.7299H9.78676Z" fill="#212721"/>
</svg>
