<svg width="24" height="25" viewBox="0 0 24 25" fill="none" xmlns="http://www.w3.org/2000/svg">
<path fill-rule="evenodd" clip-rule="evenodd" d="M20.2568 6.32589C20.6725 6.52552 21.1084 6.62484 21.5284 6.59679C22.17 6.54734 22.7129 6.29998 23.1573 5.80513C24.1443 4.7167 24.3911 2.63906 23.2066 1.55062C22.6636 1.10537 21.9233 0.808594 21.1337 0.808594H20.9856C20.1465 0.858227 19.3569 1.15499 18.9127 1.69912C18.2275 2.45466 18.1131 3.54385 18.5199 4.52001C16.0415 2.81567 12.2904 3.01489 11.9994 3.03034L11.9818 3.0312H11.8832H11.291C10.141 3.0312 7.48434 3.22988 5.59531 4.69589C5.89608 3.7755 5.76375 2.78447 5.1585 2.08193C4.71429 1.53762 3.92451 1.24084 3.08561 1.19141H2.93766C2.09859 1.19141 1.35832 1.48822 0.815483 1.98289C-0.368992 3.07132 -0.171556 5.14896 0.815483 6.23739C1.25969 6.68265 1.80252 6.97943 2.44415 6.9796C2.93949 7.00878 3.41765 6.89997 3.8583 6.68376C1.74983 9.92256 1.12449 14.4004 1.12449 15.5964C1.22298 20.7411 5.07274 23.8083 11.439 23.8083H12.9195C19.2861 23.8083 23.0865 20.741 23.2344 15.5964C23.2344 14.4 22.5611 9.591 20.2568 6.32589ZM19.6873 2.33151C19.8855 2.08877 20.3463 1.85382 21.0171 1.80859H21.1337C21.6666 1.80859 22.1757 2.00751 22.5495 2.30527C22.857 2.60041 23.0238 3.06505 22.9973 3.63117C22.97 4.21544 22.7381 4.77872 22.4165 5.13337L22.4165 5.13336L22.4132 5.13698C22.153 5.42679 21.8566 5.56746 21.457 5.59932C21.0669 5.62358 20.537 5.43584 20.0361 4.97229L20.0348 4.97115C19.1109 4.11906 19.1154 2.96422 19.6535 2.37088L19.6709 2.35164L19.6873 2.33151ZM22.2344 15.5828C22.2313 15.0179 22.0405 13.332 21.4781 11.3917C20.9103 9.43264 20.0045 7.36016 18.6602 5.94636L18.6564 5.94229L18.6564 5.94228C17.6793 4.90305 16.1156 4.39238 14.6443 4.16822C13.3504 3.97109 12.3081 4.01717 12.0423 4.02893C12.0113 4.0303 11.9909 4.0312 11.9818 4.0312H11.8832H11.291C10.704 4.0312 9.68396 4.08871 8.60719 4.36978C7.52367 4.65261 6.46207 5.1409 5.69978 5.94519L5.69865 5.94639C4.35329 7.3612 3.44777 9.42253 2.88051 11.3738C2.31702 13.3121 2.12646 15.0021 2.1245 15.5873C2.17097 17.8872 3.04166 19.6448 4.55426 20.8493C6.09495 22.0762 8.40388 22.8083 11.439 22.8083H12.9195C15.9543 22.8083 18.2503 22.0764 19.7847 20.8503C21.2913 19.6464 22.1645 17.8872 22.2344 15.5828ZM16.8526 14.3111C16.8526 14.3619 16.8121 14.3993 16.7668 14.3993C16.7217 14.3993 16.6811 14.3621 16.6811 14.3111C16.6811 14.2598 16.7218 14.2227 16.7668 14.2227C16.812 14.2227 16.8526 14.26 16.8526 14.3111ZM17.8526 14.3111C17.8526 14.912 17.3665 15.3993 16.7668 15.3993C16.1671 15.3993 15.6811 14.912 15.6811 14.3111C15.6811 13.71 16.1671 13.2227 16.7668 13.2227C17.3665 13.2227 17.8526 13.71 17.8526 14.3111ZM7.4796 14.3111C7.4796 14.3619 7.43903 14.3993 7.39375 14.3993C7.34869 14.3993 7.30808 14.3621 7.30808 14.3111C7.30808 14.2598 7.3488 14.2227 7.39375 14.2227C7.43892 14.2227 7.4796 14.26 7.4796 14.3111ZM8.4796 14.3111C8.4796 14.912 7.99344 15.3993 7.39375 15.3993C6.79406 15.3993 6.30808 14.912 6.30808 14.3111C6.30808 13.71 6.79406 13.2227 7.39375 13.2227C7.99344 13.2227 8.4796 13.71 8.4796 14.3111ZM4.02822 5.36146C4.90943 4.50907 4.91731 3.33407 4.40088 2.73463L4.39218 2.72453L4.38375 2.7142C4.1856 2.4714 3.72471 2.23645 3.05425 2.19141H2.93766C2.33975 2.19141 1.8427 2.40047 1.49062 2.72058C1.16399 3.02168 0.982702 3.50241 1.00068 4.07898C1.01858 4.65319 1.23404 5.20016 1.54095 5.54851C1.84863 5.85075 2.14538 5.97952 2.44443 5.9796L2.47371 5.97961L2.50295 5.98133C3.01218 6.01133 3.54332 5.80731 4.02822 5.36146ZM9.90285 15.3906H9.40285V15.8906C9.40285 16.3583 9.52365 16.9148 10.0424 17.3308C10.453 17.66 11.0528 17.8502 11.879 17.9029V18.258C11.7354 18.5357 11.4854 18.8703 11.1696 19.0744C10.8522 19.2794 10.4629 19.3639 9.95564 19.0814L9.46912 19.9551C10.3333 20.4363 11.1185 20.2979 11.7123 19.9143C11.9772 19.7431 12.2014 19.5261 12.3836 19.3018C12.5748 19.5297 12.8122 19.7494 13.0954 19.9216C13.7182 20.3002 14.5357 20.4286 15.4601 19.9652L15.0121 19.0712C14.4127 19.3716 13.9604 19.2772 13.6149 19.0671C13.2774 18.8619 13.0214 18.5292 12.879 18.2574V17.8886C13.5625 17.8047 14.0647 17.5472 14.4109 17.1966C14.8256 16.7767 14.9742 16.2649 14.9742 15.8906V15.3906H14.4742H9.90285ZM10.668 16.5506C10.6079 16.5024 10.5597 16.4495 10.5217 16.3906H13.7886C13.7624 16.4255 13.7328 16.4601 13.6994 16.4939C13.4966 16.6993 13.1106 16.918 12.379 16.918C11.3732 16.918 10.8931 16.7311 10.668 16.5506Z" fill="#212721"/>
</svg>
