<svg width="24" height="25" viewBox="0 0 24 25" fill="none" xmlns="http://www.w3.org/2000/svg">
<path fill-rule="evenodd" clip-rule="evenodd" d="M2.49833 1.80859C1.66991 1.80859 0.998335 2.48017 0.998335 3.30859V3.55311H3.24285H3.39631V1.80859H2.49833ZM4.39631 1.80859V3.55311H6.01013V1.80859H4.39631ZM7.01013 1.80859V3.55311H8.88534V1.80859H7.01013ZM9.88534 1.80859V3.55311H11.6299V1.80859H9.88534ZM12.6299 1.80859V3.55311H14.3744V1.80859H12.6299ZM15.3744 1.80859V3.55311H17.1189V1.80859H15.3744ZM18.1189 1.80859V3.55311H19.8634V1.80859H18.1189ZM20.8634 1.80859V3.55311H21.0169H23V3.30859C23 2.48017 22.3284 1.80859 21.5 1.80859H20.8634ZM21.5169 4.55311H23.5H24V4.05311V3.30859C24 1.92788 22.8807 0.808594 21.5 0.808594H20.3634H17.6189H14.8744H12.1299H9.38534H6.51013H3.89631H2.49833C1.11762 0.808594 -0.00166512 1.92788 -0.00166512 3.30859V4.05311V4.55311H0.498335H2.74285V14.5312H2.67456C1.84613 14.5312 1.17456 15.2028 1.17456 16.0312V16.1222C1.17456 16.8395 1.67799 17.4392 2.35078 17.5872V22.3103C2.35078 23.691 3.47007 24.8103 4.85078 24.8103H19.2782C20.659 24.8103 21.7782 23.691 21.7782 22.3103V17.6099C22.5155 17.5152 23.0852 16.8852 23.0852 16.1222V16.0312C23.0852 15.2028 22.4136 14.5312 21.5852 14.5312H21.5169V4.55311ZM20.5169 4.55311H20.3634H17.6189H14.8744H12.1299H9.38534H6.51013H3.89631H3.74285V14.5312H4.33979C4.39837 14.0425 4.54505 13.638 4.76375 13.3107C4.97516 12.9944 5.24056 12.7703 5.52045 12.616C5.5682 11.7834 5.80426 11.1346 6.21609 10.6777C6.68604 10.1563 7.31945 9.95698 7.94774 9.95698C8.73978 9.95698 9.23762 10.4897 9.51065 11.0673C9.73587 11.5437 9.84567 12.1134 9.87623 12.6481C10.4386 12.9789 10.8574 13.6063 10.9676 14.5312H12.0219V13.9401C12.0219 13.1117 12.6935 12.4401 13.5219 12.4401H13.6882V11.457C13.6882 10.6286 14.3598 9.95698 15.1882 9.95698H16.6189C17.4473 9.95698 18.1189 10.6286 18.1189 11.457V12.4401H18.1872C19.0156 12.4401 19.6872 13.1117 19.6872 13.9401V14.5312H20.5169V4.55311ZM18.6872 14.5312V13.9401C18.6872 13.664 18.4633 13.4401 18.1872 13.4401H17.6189H16.3546V14.5312H18.6872ZM15.3546 14.5312V13.4401H14.1882H13.5219C13.2458 13.4401 13.0219 13.664 13.0219 13.9401V14.5312H15.3546ZM17.1189 12.4401V11.457C17.1189 11.1808 16.895 10.957 16.6189 10.957H15.1882C14.9121 10.957 14.6882 11.1808 14.6882 11.457V12.4401H15.8546H17.1189ZM9.95895 14.5312C9.84538 13.8289 9.49417 13.5395 9.21312 13.4364C9.01774 13.3647 8.81719 13.3649 8.65839 13.4112C8.63644 13.4176 8.61612 13.4245 8.59734 13.4319C8.76982 13.7408 8.88877 14.108 8.94084 14.5312H9.95895ZM7.93054 14.5312C7.86462 14.1467 7.72475 13.877 7.5684 13.6949C7.33465 13.4227 7.03411 13.3094 6.77151 13.3094C6.58573 13.3094 6.3792 13.3373 6.18458 13.4092C5.95818 13.4928 5.75034 13.6342 5.59516 13.8664C5.49071 14.0227 5.39899 14.2368 5.34966 14.5312H7.93054ZM7.91411 12.6708C8.05731 12.5708 8.21732 12.4981 8.37863 12.4511C8.52711 12.4078 8.68516 12.3834 8.84732 12.3796C8.80415 12.0524 8.72411 11.7433 8.60658 11.4946C8.42219 11.1046 8.20123 10.957 7.94774 10.957C7.5305 10.957 7.19574 11.0844 6.95889 11.3472C6.78368 11.5416 6.62845 11.8472 6.5555 12.3176C6.62997 12.312 6.70223 12.3094 6.77151 12.3094C7.15804 12.3094 7.56042 12.4268 7.91411 12.6708ZM20.7782 17.6222H3.35078V22.3103C3.35078 23.1387 4.02235 23.8103 4.85078 23.8103H19.2782C20.1067 23.8103 20.7782 23.1387 20.7782 22.3103V17.6222ZM2.67456 15.5312C2.39841 15.5312 2.17456 15.755 2.17456 16.0312V16.1222C2.17456 16.3984 2.39841 16.6222 2.67456 16.6222H2.85078H21.2782H21.5852C21.8613 16.6222 22.0852 16.3984 22.0852 16.1222V16.0312C22.0852 15.755 21.8613 15.5312 21.5852 15.5312H21.0169H19.1872H15.8546H12.5219H10.4962H8.4705H4.81115H3.24285H2.67456Z" fill="#212721"/>
</svg>
