<svg width="25" height="25" viewBox="0 0 25 25" fill="none" xmlns="http://www.w3.org/2000/svg">
<g clip-path="url(#clip0_3231_8559)">
<path d="M12.5368 7.6145C9.13868 7.6145 6.37402 10.3791 6.37402 13.7773C6.37402 14.3257 6.44619 14.8698 6.58848 15.3944L7.30518 15.1999C7.17998 14.7387 7.11655 14.26 7.11655 13.7772C7.11655 10.7885 9.54805 8.35708 12.5367 8.35708C13.4071 8.35708 14.2381 8.55694 15.0067 8.95117L15.3456 8.29033C14.4712 7.8419 13.5262 7.6145 12.5368 7.6145Z" fill="black"/>
<path d="M7.65484 16.1345L6.98633 16.458C7.37593 17.2632 7.94951 17.9886 8.64502 18.5557L9.11431 17.9801C8.50225 17.4811 7.99756 16.8429 7.65484 16.1345Z" fill="black"/>
<path d="M16.2945 8.89282L15.8413 9.48101C17.1854 10.5168 17.9563 12.0826 17.9563 13.7771C17.9563 16.7658 15.5248 19.1973 12.5361 19.1973C11.4721 19.1973 10.4423 18.8892 9.55801 18.3066L9.14941 18.9267C10.1554 19.5895 11.3264 19.9399 12.5361 19.9399C15.9343 19.9399 18.6989 17.1753 18.6989 13.7771C18.6988 11.8505 17.8225 10.0703 16.2945 8.89282Z" fill="black"/>
<path d="M3.12232 2.34668V6.64674H2.30376V2.34668H1.56114V6.64674H0.742628V2.34668H0V6.64674V7.28692V7.38937H0.00278321C0.0496583 8.28209 0.705226 9.01593 1.56118 9.18322V22.9445H2.30381V9.18322C3.15972 9.01588 3.81529 8.28209 3.86221 7.38932H3.865V7.28688V6.64669V2.34668H3.12232ZM1.93247 8.47672C1.31089 8.47672 0.799123 7.99757 0.747023 7.38932H3.11797C3.06578 7.99757 2.55401 8.47672 1.93247 8.47672Z" fill="black"/>
<path d="M24.3816 2.0626C23.2837 2.73306 22.6016 3.94874 22.6016 5.23521V13.3608H24.2578V22.9443H25.0004V13.3608V8.84791V1.68433L24.3816 2.0626ZM24.2578 8.84787V12.6181H23.3442V5.23516C23.3442 4.42344 23.6834 3.64703 24.2578 3.0918V8.84787Z" fill="black"/>
</g>
<defs>
<clipPath id="clip0_3231_8559">
<rect width="25" height="25" fill="white"/>
</clipPath>
</defs>
</svg>
