<svg width="29" height="27" viewBox="0 0 29 27" fill="none" xmlns="http://www.w3.org/2000/svg">
<path d="M16.5371 3C16.5371 4.42386 15.461 5.5 14.0371 5.5C12.6133 5.5 11.5371 4.42386 11.5371 3C11.5371 1.57614 12.6133 0.5 14.0371 0.5C15.461 0.5 16.5371 1.57614 16.5371 3Z" stroke="black"/>
<path d="M8.5375 15.4999H9.0375C8.5375 15.4999 8.5375 15.5003 8.5375 15.5006L8.5375 15.5014L8.53751 15.5029L8.53754 15.506L8.53765 15.5124L8.53816 15.5264C8.53863 15.5362 8.5394 15.547 8.54057 15.5586C8.54291 15.582 8.54685 15.609 8.55329 15.639C8.56622 15.6994 8.58897 15.7709 8.62779 15.8485C8.70519 16.0033 8.83681 16.1635 9.04457 16.3054C9.11234 16.3602 9.18235 16.4744 9.20503 16.6331C9.22849 16.7974 9.18993 16.93 9.1375 16.9999C9.08507 17.0698 8.96855 17.144 8.80429 17.1674C8.64211 17.1906 8.51076 17.1533 8.44018 17.1019C7.67733 16.5065 7.5375 15.8602 7.5375 15.4999C7.5375 14.5405 8.34794 13.7568 9.79561 13.2742L11.2599 12.7862L9.78755 12.3229L0.887553 9.52295L0.873282 9.51846L0.858768 9.51483C0.715277 9.47896 0.65741 9.43771 0.628554 9.40885C0.599697 9.37999 0.558444 9.32212 0.522571 9.17863C0.454771 8.90743 0.548121 8.76041 0.61485 8.71593L0.648282 8.69364L0.677725 8.6663L7.67773 2.1663L7.68451 2.16L7.69105 2.15346C7.86063 1.98388 8.03255 1.95644 8.21389 2.04711C8.42105 2.15069 8.5375 2.36156 8.5375 2.5999V2.60049V2.60108V2.60167V2.60226V2.60286V2.60346V2.60406V2.60466V2.60527V2.60587V2.60648V2.60709V2.60771V2.60832V2.60894V2.60956V2.61019V2.61081V2.61144V2.61207V2.6127V2.61333V2.61397V2.6146V2.61524V2.61588V2.61653V2.61717V2.61782V2.61847V2.61912V2.61977V2.62043V2.62109V2.62175V2.62241V2.62307V2.62374V2.62441V2.62507V2.62575V2.62642V2.62709V2.62777V2.62845V2.62913V2.62981V2.6305V2.63118V2.63187V2.63256V2.63326V2.63395V2.63464V2.63534V2.63604V2.63674V2.63744V2.63815V2.63886V2.63956V2.64027V2.64098V2.6417V2.64241V2.64313V2.64385V2.64457V2.64529V2.64601V2.64674V2.64747V2.64819V2.64892V2.64966V2.65039V2.65112V2.65186V2.6526V2.65334V2.65408V2.65482V2.65557V2.65631V2.65706V2.65781V2.65856V2.65931V2.66006V2.66082V2.66158V2.66233V2.66309V2.66385V2.66462V2.66538V2.66614V2.66691V2.66768V2.66845V2.66922V2.66999V2.67077V2.67154V2.67232V2.67309V2.67387V2.67465V2.67544V2.67622V2.677V2.67779V2.67858V2.67936V2.68015V2.68094V2.68174V2.68253V2.68332V2.68412V2.68492V2.68571V2.68651V2.68731V2.68811V2.68892V2.68972V2.69053V2.69133V2.69214V2.69295V2.69376V2.69457V2.69538V2.69619V2.69701V2.69782V2.69864V2.69946V2.70027V2.70109V2.70191V2.70274V2.70356V2.70438V2.7052V2.70603V2.70686V2.70768V2.70851V2.70934V2.71017V2.711V2.71183V2.71267V2.7135V2.71434V2.71517V2.71601V2.71684V2.71768V2.71852V2.71936V2.7202V2.72104V2.72189V2.72273V2.72357V2.72442V2.72526V2.72611V2.72696V2.7278V2.72865V2.7295V2.73035V2.7312V2.73205V2.73291V2.73376V2.73461V2.73547V2.73632V2.73718V2.73803V2.73889V2.73975V2.7406V2.74146V2.74232V2.74318V2.74404V2.7449V2.74576V2.74663V2.74749V2.74835V2.74922V2.75008V2.75094V2.75181V2.75268V2.75354V2.75441V2.75527V2.75614V2.75701V2.75788V2.75875V2.75962V2.76049V2.76136V2.76223V2.7631V2.76397V2.76484V2.76571V2.76658V2.76746V2.76833V2.7692V2.77008V2.77095V2.77183V2.7727V2.77357V2.77445V2.77532V2.7762V2.77708V2.77795V2.77883V2.7797V2.78058V2.78146V2.78234V2.78321V2.78409V2.78497V2.78584V2.78672V2.7876V2.78848V2.78936V2.79024V2.79111V2.79199V2.79287V2.79375V2.79463V2.79551V2.79639V2.79726V2.79814V2.79902V2.7999V2.80078V2.80166V2.80254V2.80342V2.8043V2.80517V2.80605V2.80693V2.80781V2.80869V2.80957V2.81045V2.81132V2.8122V2.81308V2.81396V2.81484V2.81571V2.81659V2.81747V2.81834V2.81922V2.8201V2.82097V2.82185V2.82273V2.8236V2.82448V2.82535V2.82623V2.8271V2.82798V2.82885V2.82973V2.8306V2.83147V2.83235V2.83322V2.83409V2.83496V2.83583V2.83671V2.83758V2.83845V2.83932V2.84019V2.84106V2.84192V2.84279V2.84366V2.84453V2.84539V2.84626V2.84713V2.84799V2.84886V2.84972V2.85059V2.85145V2.85231V2.85318V2.85404V2.8549V2.85576V2.85662V2.85748V2.85834V2.8592V2.86006V2.86091V2.86177V2.86263V2.86348V2.86434V2.86519V2.86604V2.8669V2.86775V2.8686V2.86945V2.8703V2.87115V2.872V2.87285V2.87369V2.87454V2.87539V2.87623V2.87707V2.87792V2.87876V2.8796V2.88044V2.88128V2.88212V2.88296V2.8838V2.88463V2.88547V2.8863V2.88714V2.88797V2.8888V2.88963V2.89046V2.89129V2.89212V2.89295V2.89377V2.8946V2.89542V2.89625V2.89707V2.89789V2.89871V2.89953V2.90035V2.90116V2.90198V2.9028V2.90361V2.90442V2.90523V2.90604V2.90685V2.90766V2.90847V2.90928V2.91008V2.91089V2.91169V2.91249V2.91329V2.91409V2.91489V2.91568V2.91648V2.91727V2.91807V2.91886V2.91965V2.92044V2.92123V2.92201V2.9228V2.92358V2.92437V2.92515V2.92593V2.92671V2.92749V2.92826V2.92904V2.92981V2.93058V2.93135V2.93212V2.93289V2.93366V2.93442V2.93519V2.93595V2.93671V2.93747V2.93823V2.93898V2.93974V2.94049V2.94124V2.94199V2.94274V2.94349V2.94424V2.94498V2.94572V2.94647V2.9472V2.94794V2.94868V2.94941V2.95015V2.95088V2.95161V2.95234V2.95306V2.95379V2.95451V2.95523V2.95595V2.95667V2.95739V2.9581V2.95882V2.95953V2.96024V2.96095V2.96165V2.96236V2.96306V2.96376V2.96446V2.96516V2.96585V2.96655V2.96724V2.96793V2.96862V2.9693V2.96999V2.97067V2.97135V2.97203V2.97271V2.97338V2.97406V2.97473V2.9754V2.97607V2.97673V2.97739V2.97806V2.97872V2.97937V2.98003V2.98068V2.98133V2.98198V2.98263V2.98328V2.98392V2.98456V2.9852V2.98584V2.98647V2.98711V2.98774V2.98837V2.98899V2.98962V2.99024V2.99086V2.99148V2.99209V2.99271V2.99332V2.99393V2.99454V2.99514V2.99574V2.99634V2.99694V2.99754V2.99813V2.99872V2.99931V2.9999C8.5375 6.07604 10.9614 8.4999 14.0375 8.4999C17.1136 8.4999 19.5375 6.07604 19.5375 2.9999V2.99931V2.99872V2.99813V2.99754V2.99694V2.99634V2.99574V2.99514V2.99454V2.99393V2.99332V2.99271V2.99209V2.99148V2.99086V2.99024V2.98962V2.98899V2.98837V2.98774V2.98711V2.98647V2.98584V2.9852V2.98456V2.98392V2.98328V2.98263V2.98198V2.98133V2.98068V2.98003V2.97937V2.97872V2.97806V2.97739V2.97673V2.97607V2.9754V2.97473V2.97406V2.97338V2.97271V2.97203V2.97135V2.97067V2.96999V2.9693V2.96862V2.96793V2.96724V2.96655V2.96585V2.96516V2.96446V2.96376V2.96306V2.96236V2.96165V2.96095V2.96024V2.95953V2.95882V2.9581V2.95739V2.95667V2.95595V2.95523V2.95451V2.95379V2.95306V2.95234V2.95161V2.95088V2.95015V2.94941V2.94868V2.94794V2.9472V2.94647V2.94572V2.94498V2.94424V2.94349V2.94274V2.94199V2.94124V2.94049V2.93974V2.93898V2.93823V2.93747V2.93671V2.93595V2.93519V2.93442V2.93366V2.93289V2.93212V2.93135V2.93058V2.92981V2.92904V2.92826V2.92749V2.92671V2.92593V2.92515V2.92437V2.92358V2.9228V2.92201V2.92123V2.92044V2.91965V2.91886V2.91807V2.91727V2.91648V2.91568V2.91489V2.91409V2.91329V2.91249V2.91169V2.91089V2.91008V2.90928V2.90847V2.90766V2.90685V2.90604V2.90523V2.90442V2.90361V2.9028V2.90198V2.90116V2.90035V2.89953V2.89871V2.89789V2.89707V2.89625V2.89542V2.8946V2.89377V2.89295V2.89212V2.89129V2.89046V2.88963V2.8888V2.88797V2.88714V2.8863V2.88547V2.88463V2.8838V2.88296V2.88212V2.88128V2.88044V2.8796V2.87876V2.87792V2.87707V2.87623V2.87539V2.87454V2.87369V2.87285V2.872V2.87115V2.8703V2.86945V2.8686V2.86775V2.8669V2.86604V2.86519V2.86434V2.86348V2.86263V2.86177V2.86091V2.86006V2.8592V2.85834V2.85748V2.85662V2.85576V2.8549V2.85404V2.85318V2.85231V2.85145V2.85059V2.84972V2.84886V2.84799V2.84713V2.84626V2.84539V2.84453V2.84366V2.84279V2.84192V2.84106V2.84019V2.83932V2.83845V2.83758V2.83671V2.83583V2.83496V2.83409V2.83322V2.83235V2.83147V2.8306V2.82973V2.82885V2.82798V2.8271V2.82623V2.82535V2.82448V2.8236V2.82273V2.82185V2.82097V2.8201V2.81922V2.81834V2.81747V2.81659V2.81571V2.81484V2.81396V2.81308V2.8122V2.81132V2.81045V2.80957V2.80869V2.80781V2.80693V2.80605V2.80517V2.8043V2.80342V2.80254V2.80166V2.80078V2.7999V2.79902V2.79814V2.79726V2.79639V2.79551V2.79463V2.79375V2.79287V2.79199V2.79111V2.79024V2.78936V2.78848V2.7876V2.78672V2.78584V2.78497V2.78409V2.78321V2.78234V2.78146V2.78058V2.7797V2.77883V2.77795V2.77708V2.7762V2.77532V2.77445V2.77357V2.7727V2.77183V2.77095V2.77008V2.7692V2.76833V2.76746V2.76658V2.76571V2.76484V2.76397V2.7631V2.76223V2.76136V2.76049V2.75962V2.75875V2.75788V2.75701V2.75614V2.75527V2.75441V2.75354V2.75268V2.75181V2.75094V2.75008V2.74922V2.74835V2.74749V2.74663V2.74576V2.7449V2.74404V2.74318V2.74232V2.74146V2.7406V2.73975V2.73889V2.73803V2.73718V2.73632V2.73547V2.73461V2.73376V2.73291V2.73205V2.7312V2.73035V2.7295V2.72865V2.7278V2.72696V2.72611V2.72526V2.72442V2.72357V2.72273V2.72189V2.72104V2.7202V2.71936V2.71852V2.71768V2.71684V2.71601V2.71517V2.71434V2.7135V2.71267V2.71183V2.711V2.71017V2.70934V2.70851V2.70768V2.70686V2.70603V2.7052V2.70438V2.70356V2.70274V2.70191V2.70109V2.70027V2.69946V2.69864V2.69782V2.69701V2.69619V2.69538V2.69457V2.69376V2.69295V2.69214V2.69133V2.69053V2.68972V2.68892V2.68811V2.68731V2.68651V2.68571V2.68492V2.68412V2.68332V2.68253V2.68174V2.68094V2.68015V2.67936V2.67858V2.67779V2.677V2.67622V2.67544V2.67465V2.67387V2.67309V2.67232V2.67154V2.67077V2.66999V2.66922V2.66845V2.66768V2.66691V2.66614V2.66538V2.66462V2.66385V2.66309V2.66233V2.66158V2.66082V2.66006V2.65931V2.65856V2.65781V2.65706V2.65631V2.65557V2.65482V2.65408V2.65334V2.6526V2.65186V2.65112V2.65039V2.64966V2.64892V2.64819V2.64747V2.64674V2.64601V2.64529V2.64457V2.64385V2.64313V2.64241V2.6417V2.64098V2.64027V2.63956V2.63886V2.63815V2.63744V2.63674V2.63604V2.63534V2.63464V2.63395V2.63326V2.63256V2.63187V2.63118V2.6305V2.62981V2.62913V2.62845V2.62777V2.62709V2.62642V2.62575V2.62507V2.62441V2.62374V2.62307V2.62241V2.62175V2.62109V2.62043V2.61977V2.61912V2.61847V2.61782V2.61717V2.61653V2.61588V2.61524V2.6146V2.61397V2.61333V2.6127V2.61207V2.61144V2.61081V2.61019V2.60956V2.60894V2.60832V2.60771V2.60709V2.60648V2.60587V2.60527V2.60466V2.60406V2.60346V2.60286V2.60226V2.60167V2.60108V2.60049V2.5999C19.5375 2.37871 19.6378 2.18118 19.8178 2.07111C20.1227 2.00438 20.2799 2.04945 20.3839 2.15346L20.3905 2.16L20.3973 2.1663L27.3891 8.65868C27.437 8.70843 27.4963 8.7957 27.5333 8.89189C27.5701 8.98759 27.564 9.03519 27.5632 9.04127C27.5631 9.04192 27.5631 9.0421 27.5632 9.04179C27.5427 9.10315 27.4914 9.18885 27.4089 9.27135C27.3278 9.3525 27.2436 9.40341 27.1824 9.42453L18.2874 12.2229L16.9504 12.6436L18.2518 13.1641C19.7233 13.7527 20.5375 14.5351 20.5375 15.4999C20.5375 16.2808 20.0054 16.9716 18.9665 17.5203C17.9356 18.0647 16.5106 18.4038 15.0053 18.5009L14.5375 18.5311V18.9999V21.0999V21.5194L14.9506 21.5923C16.513 21.868 17.5375 22.9326 17.5375 23.9999C17.5375 24.6587 17.1915 25.2711 16.5647 25.7357C15.9357 26.2021 15.0432 26.4999 14.0375 26.4999C13.0318 26.4999 12.1393 26.2021 11.5103 25.7357C10.8835 25.2711 10.5375 24.6587 10.5375 23.9999C10.5375 23.8135 10.5974 23.6971 10.6661 23.6285C10.7347 23.5598 10.8511 23.4999 11.0375 23.4999C11.2239 23.4999 11.3403 23.5598 11.4089 23.6285C11.4776 23.6971 11.5375 23.8135 11.5375 23.9999C11.5375 24.2614 11.6631 24.4841 11.7971 24.645C11.9373 24.8132 12.1251 24.9615 12.3394 25.084C12.77 25.3301 13.3565 25.4999 14.0375 25.4999C14.7185 25.4999 15.305 25.3301 15.7356 25.084C15.9499 24.9615 16.1377 24.8132 16.2779 24.645C16.4119 24.4841 16.5375 24.2614 16.5375 23.9999C16.5375 23.8014 16.4472 23.6374 16.3787 23.537C16.3012 23.4233 16.1999 23.3163 16.0879 23.2203C15.863 23.0275 15.556 22.8457 15.1956 22.7256L14.5375 22.5062V23.1999V23.9999C14.5375 24.1863 14.4776 24.3027 14.4089 24.3713C14.3403 24.44 14.2239 24.4999 14.0375 24.4999C13.8511 24.4999 13.7347 24.44 13.6661 24.3713C13.5974 24.3027 13.5375 24.1863 13.5375 23.9999V19.0999V18.5171L12.9615 18.6057C12.2652 18.7128 11.7119 18.9027 11.3198 19.106C11.1256 19.2068 10.9581 19.3174 10.8309 19.4331C10.7677 19.4905 10.7034 19.5591 10.6515 19.6387C10.6044 19.7108 10.5375 19.8373 10.5375 19.9999C10.5375 20.1762 10.6177 20.3103 10.6645 20.3776C10.72 20.4573 10.7887 20.5279 10.8582 20.5887C10.9987 20.7116 11.1872 20.8338 11.4139 20.9471L11.4325 20.9564L11.4518 20.9641C11.647 21.0422 11.7835 21.3123 11.6803 21.5959C11.6131 21.7241 11.5443 21.7944 11.4852 21.8339C11.4261 21.8732 11.35 21.8999 11.2375 21.8999C11.212 21.8999 11.1912 21.8998 11.1696 21.8989C11.1591 21.8984 11.1498 21.8977 11.1417 21.897L11.1401 21.8954L11.0769 21.861C10.0417 21.2963 9.5375 20.629 9.5375 19.8999C9.5375 19.3621 9.83698 18.8479 10.4622 18.4092C11.0906 17.9682 12.0071 17.6385 13.1022 17.4957L13.5375 17.4389V16.9999V13.9999V13.46L12.9992 13.5014C11.6437 13.6056 10.585 13.9195 9.85244 14.2587C9.48785 14.4275 9.19399 14.6072 8.98238 14.7784C8.87758 14.8632 8.78121 14.9553 8.70622 15.0529C8.64529 15.1323 8.5375 15.2919 8.5375 15.4999ZM14.5375 16.9999V17.5398L15.0758 17.4984C16.4313 17.3942 17.49 17.0803 18.2226 16.7411C18.5872 16.5723 18.881 16.3926 19.0926 16.2214C19.1974 16.1366 19.2938 16.0445 19.3688 15.9469C19.4297 15.8676 19.5375 15.7079 19.5375 15.4999C19.5375 15.2919 19.4297 15.1323 19.3688 15.0529C19.2938 14.9553 19.1974 14.8632 19.0926 14.7784C18.881 14.6072 18.5872 14.4275 18.2226 14.2587C17.49 13.9195 16.4313 13.6056 15.0758 13.5014L14.5375 13.46V13.9999V16.9999Z" stroke="black"/>
</svg>
