<svg width="24" height="25" viewBox="0 0 24 25" fill="none" xmlns="http://www.w3.org/2000/svg">
<path fill-rule="evenodd" clip-rule="evenodd" d="M16.8955 15.5477L19.1369 20.8086H22.9155H24L23.5802 19.8086L17.3385 4.94111L16.8631 3.80859L16.2171 4.85328L12.5877 10.7229L12 11.6734L11.4118 10.7232L7.77783 4.85279L7.13144 3.80859L6.65638 4.94106L0.419476 19.8086L-2.28882e-05 20.8086H1.0844H4.86308L7.10451 15.5477L7.56662 14.4631L8.24184 15.4296L11.39 19.9356L12 20.8086L12.6099 19.9356L15.7581 15.4296L16.4334 14.4631L16.8955 15.5477ZM12 19.0626L15.6136 13.8904L16.6465 12.4121L17.3533 14.0712L19.7978 19.8086H22.4956L16.6926 5.9858L12.8505 12.1993L12.0005 13.5741L11.1497 12.1998L7.30276 5.98525L1.5039 19.8086H4.20216L6.64664 14.0712L7.35351 12.4121L8.38637 13.8904L12 19.0626Z" fill="#212721"/>
</svg>
