<svg width="24" height="24" viewBox="0 0 24 24" fill="none" xmlns="http://www.w3.org/2000/svg">
<path fill-rule="evenodd" clip-rule="evenodd" d="M6.42651 1.0472C3.05971 1.4755 0.604906 4.8486 1.05041 8.6691C1.41051 11.7565 3.54221 14.0855 6.12391 14.6394V12.244L3.80441 9.7922C3.61471 9.5916 3.62351 9.2751 3.82411 9.0853C4.02471 8.8956 4.34111 8.9044 4.53091 9.105L6.12391 10.7889V10.7362V5.4357C6.12391 5.1596 6.34771 4.9357 6.62391 4.9357C6.90001 4.9357 7.12391 5.1596 7.12391 5.4357V9.4843L9.70311 6.7705C9.89341 6.5703 10.2099 6.5623 10.41 6.7525C10.6102 6.9428 10.6182 7.2592 10.428 7.4594L7.12391 10.9359V12.045V14.7624C7.42011 14.7722 7.71971 14.7586 8.02111 14.7202C8.40511 14.6714 8.77601 14.5848 9.13151 14.4644C8.87641 14.1239 8.72521 13.701 8.72521 13.2428C8.72521 12.1168 9.63811 11.204 10.7641 11.204H12.7656C12.7668 11.1379 12.7812 11.0709 12.8101 11.0066C13.3322 9.8441 13.5604 8.4981 13.3972 7.0984C12.9516 3.2779 9.79331 0.618903 6.42651 1.0472ZM13.8092 11.204C14.3419 9.9246 14.564 8.4714 14.3892 6.9722C13.8901 2.6927 10.3107 -0.454897 6.31071 0.0540033C2.31071 0.562803 -0.440644 4.5158 0.0584055 8.7953C0.471706 12.3387 2.99681 15.1062 6.12391 15.6644V20.1254C5.91601 20.1433 5.68081 20.1815 5.44051 20.2623C5.09721 19.8797 4.50581 19.4653 3.68061 19.4653C3.00581 19.4653 2.41391 19.7077 1.99051 20.1381C1.56841 20.5671 1.34101 21.1549 1.34101 21.7976C1.34101 22.254 1.42511 22.6635 1.53711 22.999H0.855606C0.579406 22.999 0.355606 23.2229 0.355606 23.499C0.355606 23.7752 0.579406 23.999 0.855606 23.999H2.33161H8.46341H9.68541H11.6866H17.5342H19.5632H19.9256H22.3171H23.5005C23.7767 23.999 24.0005 23.7752 24.0005 23.499C24.0005 23.2229 23.7767 22.999 23.5005 22.999H22.3171H20.9669C21.0193 22.8472 21.0478 22.6841 21.0478 22.5145V20.4111H21.4702C22.5963 20.4111 23.5091 19.4983 23.5091 18.3723C23.5091 17.2463 22.5963 16.3334 21.4702 16.3334H20.0631V15.2817H20.4857C21.6118 15.2817 22.5246 14.3688 22.5246 13.2428C22.5246 12.1168 21.6117 11.204 20.4857 11.204H13.8092ZM19.0631 15.2817V16.3334H12.1866V15.2817H19.0631ZM11.1866 15.2817V16.3334H9.77951C8.65341 16.3334 7.74061 17.2463 7.74061 18.3723C7.74061 19.4983 8.65341 20.4111 9.77951 20.4111H10.2021V22.5145C10.2021 22.6841 10.2305 22.8472 10.2829 22.999H9.68541H9.23291L9.23301 22.9888C9.23301 22.1098 8.94961 21.3845 8.46071 20.8756C8.09291 20.4929 7.62651 20.2515 7.12391 20.1561V15.7655C7.45741 15.7737 7.79561 15.7569 8.13691 15.7135C8.74831 15.6357 9.33251 15.4764 9.88131 15.2466C9.93951 15.2222 9.99081 15.1882 10.0341 15.1471C10.2608 15.234 10.5069 15.2817 10.7641 15.2817H11.1866ZM17.5342 22.999H18.1595C18.1071 22.8472 18.0786 22.6841 18.0786 22.5145V20.4111H13.1712V22.5145C13.1712 22.6841 13.1427 22.8472 13.0903 22.999H17.5342ZM19.0786 22.5145C19.0786 22.7821 19.2956 22.999 19.5632 22.999C19.8308 22.999 20.0478 22.7821 20.0478 22.5145V20.7508H19.0786V22.5145ZM11.6866 22.999C11.419 22.999 11.2021 22.7821 11.2021 22.5145V20.7508H12.1712V22.5145C12.1712 22.7821 11.9542 22.999 11.6866 22.999ZM2.61471 22.999H8.23311L8.23301 22.9888C8.23301 22.3289 8.02411 21.8646 7.73961 21.5685C7.45361 21.2708 7.05971 21.1094 6.62391 21.1094C6.26121 21.1094 5.86721 21.1177 5.52401 21.3149L5.07731 21.5716L4.83411 21.1174C4.72641 20.9164 4.32151 20.4653 3.68061 20.4653C3.25161 20.4653 2.92371 20.6154 2.70331 20.8394C2.48151 21.0649 2.34101 21.3932 2.34101 21.7976C2.34101 22.3208 2.49211 22.75 2.61471 22.999ZM9.72521 13.2428C9.72521 12.6691 10.1903 12.204 10.7641 12.204H20.4857C21.0595 12.204 21.5246 12.6691 21.5246 13.2428C21.5246 13.8166 21.0595 14.2817 20.4857 14.2817H10.7641C10.1903 14.2817 9.72521 13.8166 9.72521 13.2428ZM9.77951 17.3334C9.20571 17.3334 8.74061 17.7985 8.74061 18.3723C8.74061 18.946 9.20571 19.4111 9.77951 19.4111H21.4702C22.044 19.4111 22.5091 18.946 22.5091 18.3723C22.5091 17.7985 22.044 17.3334 21.4702 17.3334H9.77951Z" fill="black"/>
</svg>
