<svg width="25" height="24" viewBox="0 0 25 24" fill="none" xmlns="http://www.w3.org/2000/svg">
<path d="M17.1384 7.1032C19.0968 7.1032 20.69 5.51001 20.69 3.5516C20.69 1.59319 19.0968 0 17.1384 0C15.1801 0 13.5869 1.59319 13.5869 3.5516C13.5869 5.51001 15.1801 7.1032 17.1384 7.1032ZM17.1384 1.82541C18.0902 1.82541 18.8646 2.59978 18.8646 3.5516C18.8646 4.50342 18.0902 5.27779 17.1384 5.27779C16.1866 5.27779 15.4123 4.50342 15.4123 3.5516C15.4123 2.59978 16.1866 1.82541 17.1384 1.82541Z" fill="black"/>
<path d="M24.7373 8.71173C24.3835 8.35277 23.8056 8.34834 23.4466 8.70234C23.4255 8.72346 20.9932 10.6611 13.7538 7.56706C10.6227 6.2289 8.10509 6.10269 6.27069 7.19168C4.03143 8.52097 3.75696 11.1339 3.7464 11.2445C3.69855 11.7443 4.06376 12.1864 4.56327 12.237C4.59431 12.2401 4.62521 12.2417 4.65572 12.2417C5.11689 12.2417 5.51301 11.8916 5.56295 11.4234C5.5649 11.4053 5.77352 9.59901 7.21651 8.75306C8.50369 7.99838 10.5163 8.16867 13.0362 9.24566C16.4564 10.7073 18.9726 11.1591 20.7774 11.159C23.43 11.1588 24.545 10.1826 24.7278 10.0024C25.0869 9.64855 25.0911 9.07068 24.7373 8.71173Z" fill="black"/>
<path d="M13.1383 11.5072C12.7906 11.1437 12.2145 11.13 11.85 11.4766C7.48475 15.6257 0.832038 21.9273 0.354432 22.3212C-0.0395967 22.6257 -0.117177 23.1913 0.182712 23.5909C0.361994 23.8299 0.636067 23.956 0.913529 23.956C1.10402 23.956 1.29634 23.8964 1.4605 23.7733C1.87617 23.4614 9.28526 16.4313 12.4481 13.4264L16.8468 18.0251C17.0418 18.229 16.977 18.4521 16.94 18.5386C16.9031 18.625 16.7868 18.8261 16.5046 18.8261H10.4835C9.97944 18.8261 9.57081 19.2347 9.57081 19.7388C9.57081 20.2428 9.97944 20.6515 10.4835 20.6515H16.5045C17.4407 20.6515 18.2508 20.1166 18.6185 19.2558C18.9863 18.3949 18.8129 17.4399 18.1658 16.7635L13.1383 11.5072Z" fill="black"/>
</svg>
