<svg width="24" height="25" viewBox="0 0 24 25" fill="none" xmlns="http://www.w3.org/2000/svg">
<path fill-rule="evenodd" clip-rule="evenodd" d="M12.0051 0.80957L12.1572 0.857503L22.7662 4.20067L23.1159 4.31088V4.67755V10.0115C23.2699 10.1742 23.3892 10.3932 23.4374 10.6294C23.5025 10.9489 23.439 11.2909 23.2105 11.5933L23.9566 13.2651L24 13.3623V13.4688C24 13.6953 23.9349 14.0223 23.7262 14.3065C23.4992 14.6156 23.1284 14.8356 22.6159 14.8356C22.1005 14.8356 21.7288 14.6102 21.5251 14.2642C21.3447 13.9578 21.3312 13.6173 21.3634 13.3967L21.3689 13.359L21.38 13.3225C21.4886 12.9677 21.7507 12.1818 22.0266 11.5636C21.8131 11.2554 21.7381 10.9276 21.8041 10.6068C21.8547 10.361 21.9795 10.1649 22.1159 10.0211V5.35179L19.5796 6.12145V10.8686V11.0715L19.4382 11.217C18.5132 12.1692 15.7946 13.9688 12.0069 13.9688C8.2178 13.9688 5.57905 12.1677 4.69307 11.2077L4.56051 11.0641V10.8686V6.10575L1.50204 5.15501L-0.00499344 4.68654L1.49686 4.20173L11.8533 0.858563L12.0051 0.80957ZM5.56051 6.41661V10.6646C6.40639 11.4809 8.71262 12.9688 12.0069 12.9688C15.3013 12.9688 17.6861 11.4807 18.5796 10.6574V6.42491L12.1521 8.37535L12.0051 8.41995L11.8585 8.37436L5.56051 6.41661ZM19.3657 4.17755L12.0087 1.8592L3.30592 4.66856L5.20893 5.26012L12.0087 7.37384L18.9344 5.27221L19.2463 5.17755H12.0069V4.17755H19.3657ZM22.63 12.7462C22.5131 13.0661 22.4127 13.3689 22.3501 13.5701C22.3489 13.5939 22.3496 13.6232 22.3541 13.6541C22.3606 13.699 22.3732 13.7336 22.3869 13.7569C22.3987 13.7769 22.4121 13.7906 22.4328 13.8019C22.4548 13.814 22.508 13.8356 22.6159 13.8356C22.7229 13.8356 22.788 13.8142 22.8268 13.7946C22.8658 13.7749 22.8955 13.7482 22.9202 13.7146C22.9558 13.6662 22.9782 13.6061 22.9899 13.5527L22.63 12.7462ZM2.76878 13.4547C3.20568 13.094 3.63657 13.0927 3.79753 13.0927H3.92068L4.02974 13.1498C6.2185 14.2976 8.03125 15.1396 9.6699 15.8085C10.2288 16.0367 10.7679 16.2448 11.295 16.4383C13.0275 17.0739 14.6344 17.551 16.4077 18.056C17.6 18.2433 18.3671 18.9169 18.7143 19.8024C19.0534 20.6673 18.9721 21.6786 18.6094 22.5459C18.2457 23.4156 17.573 24.2027 16.6502 24.5802C15.7079 24.9657 14.5789 24.8938 13.3898 24.1737C11.9339 23.2921 10.4926 22.5693 9.07026 21.9653C9.14618 22.1701 9.25381 22.3513 9.36641 22.5085C9.4576 22.6358 9.54173 22.7341 9.61871 22.8241C9.64287 22.8524 9.66633 22.8798 9.68908 22.9071C9.7113 22.9337 9.73686 22.965 9.76008 22.9969C9.77888 23.0227 9.8178 23.0775 9.8465 23.1474C9.86268 23.1868 9.9607 23.4309 9.78492 23.6652C9.6276 23.8749 9.39448 23.8746 9.35626 23.8745H9.35464C9.22139 23.8745 9.09183 23.8377 9.00359 23.8085C8.96177 23.7947 8.91938 23.7791 8.8773 23.7624C8.85969 23.7881 8.83944 23.8134 8.81612 23.8377C8.72637 23.9314 8.60038 23.9997 8.45105 24.0122C8.31432 24.0236 8.20061 23.9848 8.12418 23.9473L8.08405 23.9276L8.04806 23.9012C7.50281 23.5002 7.2328 22.8487 7.09721 22.2858C7.06831 22.1658 7.04452 22.0458 7.02518 21.9275C6.6769 22.3172 6.289 22.5671 5.93822 22.7191C5.64613 22.8458 5.3758 22.9065 5.17035 22.9233C5.07664 22.9309 4.96037 22.9327 4.85239 22.9079C4.82254 22.901 4.78097 22.8893 4.73542 22.8685C4.695 22.8501 4.61753 22.8093 4.54869 22.7278C4.46857 22.633 4.40614 22.4865 4.4339 22.3151C4.43695 22.2964 4.4409 22.2784 4.44557 22.2614C4.36803 22.2381 4.29055 22.2147 4.22634 22.1937C4.18731 22.1809 4.14584 22.1667 4.10826 22.1519L4.10577 22.1509C4.08287 22.1419 4.00691 22.1122 3.93837 22.0599C3.91668 22.0434 3.87679 22.0106 3.83826 21.9599C3.8017 21.9117 3.73651 21.8077 3.73476 21.6591C3.7328 21.4917 3.81148 21.364 3.89122 21.2879C3.96043 21.2219 4.03151 21.1915 4.06538 21.1787C4.13421 21.1528 4.19538 21.1467 4.21775 21.1446C4.24883 21.1417 4.27839 21.141 4.30272 21.141C4.5612 21.141 4.90338 21.0048 5.26694 20.7711C5.3295 20.7309 5.39059 20.6892 5.44968 20.6468C3.99583 20.1967 2.56583 19.8394 1.16351 19.529L0.94982 19.4817L0.839607 19.2926C0.179602 18.1602 0.0783367 17.1876 0.286711 16.4128C0.490978 15.6533 0.978245 15.1415 1.39695 14.8952L1.60658 14.7719L1.83301 14.8607L1.92925 14.8984C2.13621 14.1891 2.42983 13.7346 2.76878 13.4547ZM2.87312 15.2348C4.17844 15.6555 5.87862 16.2986 6.63233 16.5942L6.26724 17.5251C5.42663 17.1955 3.43031 16.4425 2.13755 16.0525L2.11822 16.0467L2.09941 16.0393L1.723 15.8917C1.54256 16.0536 1.34882 16.314 1.2524 16.6726C1.13456 17.1107 1.14845 17.7484 1.59938 18.6016C3.22296 18.966 4.89536 19.3981 6.60469 19.9674C6.51466 18.7128 6.82796 17.7654 7.33699 17.0818C7.59193 16.7394 7.88893 16.4728 8.19329 16.2711C6.84605 15.6852 5.37367 14.9806 3.68496 14.0981C3.60624 14.1085 3.51121 14.1385 3.40543 14.2259C3.2597 14.3462 3.04388 14.6186 2.87312 15.2348ZM9.43484 16.7924C9.046 16.8921 8.52528 17.1603 8.13905 17.679C7.74669 18.2059 7.45708 19.0403 7.65078 20.332C7.69839 20.3493 7.74603 20.3668 7.79369 20.3843C7.65347 19.1861 8.01039 18.2726 8.61532 17.6198C8.91335 17.2982 9.26116 17.0511 9.61679 16.8656C9.55636 16.8415 9.49571 16.8171 9.43484 16.7924ZM11.0693 17.4204C10.5286 17.5097 9.82962 17.7807 9.34879 18.2995C8.89242 18.792 8.57653 19.5667 8.88678 20.8068C10.0601 21.2815 11.2477 21.8325 12.4464 22.4811C12.2797 21.8776 12.273 21.3152 12.3315 20.8373C12.3827 20.4196 12.4828 20.0701 12.5604 19.824C12.3556 19.7444 12.084 19.6442 11.7837 19.5359C11.1632 19.3123 10.4336 19.0595 9.95105 18.8949L10.2738 17.9484C10.7595 18.1141 11.495 18.3689 12.1227 18.5952C12.4361 18.7081 12.726 18.8151 12.9455 18.9009C13.0545 18.9435 13.1512 18.9828 13.2264 19.0161C13.2635 19.0325 13.3013 19.05 13.3352 19.0678C13.3359 19.0681 13.3367 19.0685 13.3376 19.069C13.3565 19.0788 13.4303 19.117 13.4936 19.179C13.5963 19.2797 13.6309 19.3951 13.6433 19.4629C13.6558 19.5312 13.6531 19.5896 13.6501 19.6243C13.6441 19.693 13.6276 19.7574 13.6164 19.7985C13.6 19.8583 13.5745 19.9369 13.5495 20.0142C13.5399 20.0439 13.5304 20.0733 13.5214 20.1015C13.45 20.3265 13.3659 20.6173 13.3241 20.9588C13.2442 21.612 13.3156 22.4647 13.9872 23.3653C14.9098 23.8984 15.6797 23.8968 16.2715 23.6547C16.8998 23.3976 17.4033 22.8382 17.6868 22.1601C17.9714 21.4796 18.0085 20.7419 17.7833 20.1674C17.5706 19.6249 17.1058 19.1751 16.2432 19.0424C16.1449 19.0373 15.9587 19.0961 15.7239 19.3373C15.4945 19.573 15.2874 19.9182 15.1666 20.293C15.0451 20.6705 15.0259 21.0302 15.1101 21.3085C15.1858 21.5586 15.3521 21.7748 15.6951 21.9069C15.7801 21.927 15.84 21.9127 15.8909 21.8854C15.9548 21.851 16.0262 21.7823 16.0851 21.6765C16.1438 21.571 16.176 21.453 16.1804 21.3524C16.185 21.2468 16.1585 21.2046 16.1565 21.2019C15.9887 20.9826 16.0305 20.6688 16.2498 20.501C16.4691 20.3332 16.783 20.375 16.9507 20.5943C17.1381 20.8393 17.1906 21.1376 17.1794 21.3957C17.168 21.6588 17.0897 21.9277 16.959 22.1627C16.6998 22.6285 16.1481 23.0726 15.4084 22.8654L15.3893 22.8601L15.3707 22.8532C14.7174 22.613 14.3205 22.1518 14.1529 21.5982C13.9925 21.0678 14.0522 20.4911 14.2148 19.9864C14.3719 19.4985 14.6389 19.0334 14.9675 18.6816C13.6611 18.2991 12.4013 17.9053 11.0693 17.4204ZM12.8718 19.9539C12.8828 19.9597 12.8805 19.9593 12.8701 19.9531C12.8707 19.9534 12.8713 19.9537 12.8718 19.9539ZM6.24347 21.3005C6.01667 21.543 5.77603 21.6957 5.5666 21.7901C5.56235 21.7817 5.55786 21.7733 5.55315 21.7649C5.64224 21.7154 5.72736 21.6639 5.80763 21.6123C5.96241 21.5128 6.10914 21.4064 6.24347 21.3005ZM4.79377 22.3696C4.79368 22.3696 4.79216 22.369 4.78947 22.3677C4.79252 22.3689 4.79387 22.3695 4.79377 22.3696ZM4.46609 21.2178C4.46629 21.2177 4.46921 21.2189 4.4742 21.2213C4.46838 21.2189 4.46589 21.2178 4.46609 21.2178Z" fill="#212721"/>
</svg>
