<svg width="651" height="422" viewBox="0 0 651 422" fill="none" xmlns="http://www.w3.org/2000/svg">
<path d="M253.599 297.145C256.874 291.528 259.883 287.937 262.893 286.28C265.637 284.714 269.089 283.886 273.161 283.793L275.02 276.519H242.003L240.144 283.793C244.482 283.978 247.049 285.451 247.757 288.121C248.465 290.884 246.783 295.856 242.534 303.315C233.152 319.06 226.601 329.742 222.884 334.806L221.91 336.28L207.393 281.768L207.924 281.399C224.654 269.429 237.135 255.248 241.029 240.792C244.659 224.217 234.833 216.206 222.707 216.206C209.96 216.206 198.276 223.849 192.699 232.228C183.848 244.843 181.812 259.945 186.503 277.072L189.336 287.477L188.716 287.937C155.877 310.037 130.03 342.817 149.769 368.14C155.523 375.138 163.401 378.729 173.226 378.729C184.822 378.729 196.771 372.836 208.544 361.326L209.429 360.405L209.96 361.602C214.209 372.928 223.326 378.729 236.958 378.729C249.97 378.729 257.848 373.296 261.123 362.339H254.041C253.068 365.377 251.386 367.679 249.084 369.06C246.695 370.626 244.039 371.362 241.207 371.362C237.577 371.362 234.656 370.258 232.532 368.232C230.496 366.114 228.726 362.246 227.132 356.537L223.769 343.922L224.034 343.554C230.673 334.898 240.587 319.337 253.599 297.145ZM202.525 244.843C203.941 237.108 206.331 231.215 209.695 227.164C213.058 223.112 216.953 220.994 221.113 220.994C224.654 220.994 227.309 222.099 228.903 224.493C236.338 235.267 229.345 256.722 206.862 276.611L205.977 277.348L204.826 273.48C201.905 262.247 201.109 252.578 202.525 244.843ZM207.216 353.591C197.922 362.431 188.982 366.943 180.927 366.943C173.668 366.943 168.269 363.812 165.082 357.458C150.3 330.847 190.752 292.357 190.752 292.357L207.659 353.223L207.216 353.591Z" fill="#212721"/>
<path d="M120.295 5.43255C118.082 2.85428 115.427 1.65723 112.329 1.65723C109.408 1.65723 106.841 2.67012 104.805 4.6959C102.326 6.99792 101.176 9.85243 101.176 13.1673C101.176 16.206 102.061 18.7843 103.92 20.9022C106.133 23.4804 108.877 24.6775 112.152 24.6775C115.073 24.6775 117.551 23.6646 119.587 21.6388C122.066 19.4289 123.216 16.5743 123.216 13.2594C123.128 10.1287 122.243 7.55041 120.295 5.43255Z" fill="#212721"/>
<path d="M31.2463 86.5561V136.924C31.2463 144.199 32.4855 148.527 34.8755 150C36.9114 151.197 40.3635 152.118 45.409 152.67V158.471C35.7607 157.274 28.2368 156.722 22.7487 156.722C17.1722 156.722 9.6483 157.274 0 158.471V152.67C4.95692 152.118 8.49758 151.289 10.5335 150C11.6842 149.263 12.5693 148.435 13.0119 147.33C13.8086 145.212 14.2512 141.713 14.2512 136.924V21.4549C14.2512 14.1805 13.0119 9.85266 10.622 8.37937C8.32055 7.09024 4.77989 6.26151 0 5.8011V0H46.7367C61.2534 0 71.6983 3.8674 77.983 11.6943C84.7988 20.0737 88.1624 30.663 88.1624 43.3701C88.1624 50.1841 87.1002 56.5377 84.8873 62.523C82.6744 68.5082 79.6648 73.3885 75.8586 76.9797C69.2199 83.3333 60.1027 86.5561 48.507 86.5561H31.2463ZM31.2463 79.2817H42.4879C50.897 79.2817 57.0931 77.1639 61.1649 73.0202C67.7151 66.3904 70.9017 56.2615 70.9017 42.5414C70.9017 33.4254 69.1314 25.3223 65.5907 18.232C61.7845 10.9576 54.5261 7.2744 43.5501 7.2744H31.2463V79.2817Z" fill="#212721"/>
<path d="M220.495 153.683V158.379C212.528 157.551 205.801 157.09 200.402 157.09C194.914 157.09 188.275 157.551 180.485 158.379V153.683C186.593 153.315 189.691 151.75 189.691 149.079C189.691 147.514 189.071 145.304 187.832 142.541L173.404 109.853L157.029 140.516C154.993 144.199 154.019 147.053 154.019 149.171C154.019 151.75 157.206 153.315 163.667 153.775V158.471C149.593 157.274 137.732 156.722 128.084 156.722C118.258 156.722 106.397 157.274 92.5885 158.564H92.5V153.867C96.6603 153.591 99.6698 152.855 101.617 151.75C103.742 150.553 104.804 146.961 104.804 141.16V66.1143C104.804 59.1161 103.653 54.9725 101.44 53.7754C99.8469 52.8546 96.8373 52.3942 92.5885 52.3021V48.2506C102.502 47.0535 111.885 44.9356 120.825 41.897V139.503C120.825 145.396 121.887 148.895 123.923 150.092C125.694 151.289 134.988 152.578 140.122 150.737C143.043 149.54 146.407 147.053 150.213 139.963L170.217 102.763L151.098 60.0369C148.885 54.9725 146.052 51.9338 142.512 50.9209C141.096 50.4605 139.148 50.1843 136.581 50.0922V45.396C144.194 46.2248 150.655 46.6852 155.878 46.6852C161.189 46.6852 167.562 46.2248 174.909 45.396V50.0922C169.244 50.4605 166.5 51.9338 166.5 54.5121C166.5 55.7091 167.208 57.9191 168.624 61.0498L179.512 85.8196L192.878 61.234C194.382 58.4715 195.091 56.1695 195.091 54.3279C195.091 51.8417 192.081 50.4605 186.062 50.1843V45.4881C191.904 46.1327 196.861 46.4089 200.933 46.4089C205.004 46.4089 209.961 46.1327 215.892 45.4881V50.1843C212.794 50.4605 210.404 50.8288 208.634 51.4734C205.713 52.5784 202.969 55.525 200.313 60.4973L182.521 92.8178L204.208 141.621C207.217 148.343 210.581 152.21 214.299 153.131C215.892 153.315 217.839 153.591 220.495 153.683Z" fill="#212721"/>
<path d="M277.941 121.363H285.199C284.314 131.492 281.57 140.055 276.967 147.146C271.479 155.801 263.513 160.129 253.068 160.129C240.852 160.129 231.558 154.328 225.185 142.818C219.166 131.86 216.156 118.232 216.156 101.842C216.156 85.6355 219.077 72.1917 225.008 61.4182C228.283 55.5251 232.532 51.0131 237.931 47.6982C242.003 45.1199 246.606 43.9229 251.74 43.9229C258.467 43.9229 264.663 46.317 270.151 51.1972C277.941 58.0112 282.721 70.5343 284.491 88.9505C284.757 91.7129 284.934 95.212 285.022 99.3556H232.62C232.886 109.116 233.328 116.943 233.948 122.836C236.161 142.542 243.242 152.394 255.192 152.394C262.096 152.394 267.407 149.448 271.036 143.647C274.754 137.569 277.056 130.203 277.941 121.363ZM269.089 91.2525C268.381 63.6282 262.539 49.816 251.563 49.816C247.226 49.816 243.508 52.3022 240.498 57.3667C236.25 64.2727 233.86 75.5987 233.151 91.3446H269.089V91.2525Z" fill="#212721"/>
<path d="M287.236 51.7493V47.6977C296.354 46.7769 304.409 45.3036 311.313 43.2778C312.464 47.974 313.349 54.6038 313.968 63.2594C319.368 50.276 326.892 43.7382 336.629 43.7382C346.808 43.7382 354.951 49.3552 361.325 60.6811C367.432 71.7309 370.53 85.4509 370.53 101.657C370.53 118.048 367.521 131.768 361.413 142.909C355.305 154.051 347.25 159.668 337.071 159.668C331.672 159.668 327.157 158.103 323.528 154.972C320.873 152.67 318.217 148.987 315.562 143.922V187.477C315.562 192.725 316.27 196.04 317.775 197.421C319.368 199.079 322.731 200 327.777 200.276V204.972C319.368 203.959 312.552 203.499 307.153 203.499C301.753 203.499 295.114 203.959 287.236 204.972V200.276C290.688 200 293.344 199.539 295.114 198.803C296.531 198.158 297.504 197.421 298.124 196.501C299.098 194.935 299.54 191.989 299.54 187.477V66.1139C299.54 58.7474 298.301 54.4196 295.911 53.1305C294.406 52.4859 291.485 52.0255 287.236 51.7493ZM335.035 50.3681C329.636 50.3681 325.21 53.5909 321.846 59.9445C317.509 68.2318 315.385 81.6756 315.385 100.46C315.385 135.543 322.023 153.13 335.301 153.13C347.693 153.13 353.889 136.188 353.889 102.302C353.801 67.6793 347.516 50.3681 335.035 50.3681Z" fill="#212721"/>
<path d="M418.418 52.1177V140.976C418.418 146.869 419.48 150.368 421.604 151.565C423.552 152.67 426.561 153.315 430.721 153.683V158.379C422.135 157.458 415.32 156.998 410.363 156.998C405.406 156.998 398.59 157.458 390.004 158.379V153.683C394.164 153.407 397.262 152.67 399.21 151.565C401.245 150.368 402.308 146.777 402.308 140.976V52.1177H398.855C393.987 52.1177 390.358 53.2226 387.968 55.3405C385.578 57.4584 383.454 61.2337 381.595 66.3902C380.887 68.416 379.736 71.823 378.408 76.7033H373.717L377.789 45.9482H442.671L446.743 76.7033H442.051C439.573 68.2318 437.626 62.707 436.032 60.0366C434.439 57.09 432.669 55.0643 430.81 54.0514C428.508 52.7622 425.41 52.1177 421.604 52.1177H418.418Z" fill="#212721"/>
<path d="M399 219V224.721C395.185 225.051 392.352 225.601 390.499 226.371C388.428 227.142 386.903 228.132 386.031 229.452C384.941 231.212 384.396 234.843 384.396 240.344V354.766C384.396 361.147 385.268 365.218 387.011 366.758C388.864 368.519 392.897 369.729 398.891 370.279V376C389.3 374.9 381.562 374.24 375.895 374.24C370.228 374.24 362.381 374.79 352.572 376V370.279C357.04 369.839 360.31 369.179 362.381 368.189C363.797 367.528 364.887 366.648 365.432 365.658C366.522 363.898 367.176 360.267 367.176 354.656V241.774C367.176 235.613 366.522 231.762 365.105 230.222C363.47 228.352 360.637 227.142 356.604 226.591C354.751 226.371 349.956 226.261 342.218 226.261C333.281 226.261 327.832 226.481 325.761 226.922C322.055 227.692 319.658 229.012 318.459 230.772C317.369 232.643 316.824 236.273 316.824 241.774V354.656C316.824 361.037 317.696 365.108 319.44 366.648C321.293 368.409 325.325 369.619 331.319 370.169V375.89C321.402 374.79 313.663 374.13 307.996 374.13C302.22 374.13 294.482 374.68 285 375.89V370.169C289.033 369.839 292.084 369.179 294.046 368.299C295.899 367.638 297.098 366.648 297.86 365.548C298.95 363.678 299.495 360.047 299.495 354.546V240.124C299.495 233.743 298.623 229.672 296.88 228.132C294.918 226.371 290.994 225.161 285 224.611V219H399Z" fill="#212721"/>
<path d="M477 368.746V374.909C472.62 376.01 468.896 376.56 465.83 376.56C457.179 376.56 452.251 370.177 451.265 357.301C446.228 370.397 438.014 377 426.844 377C419.288 377 413.046 374.249 408.337 368.856C403.519 363.244 401 355.981 401 347.067C401 334.962 405.599 325.608 414.908 319.005C424.216 312.402 435.496 308 448.746 305.799V289.182C448.746 280.268 447.104 274.325 443.818 271.464C441.409 269.373 438.343 268.273 434.729 268.273C430.13 268.273 426.406 269.813 423.559 272.785C421.588 274.876 420.602 277.627 420.602 281.148C420.602 282.029 420.602 283.019 420.712 284.12C420.821 285.66 420.821 286.981 420.821 288.081C420.821 294.684 418.084 297.986 412.608 297.986C408.009 297.986 405.818 295.344 405.818 289.952C405.818 282.249 408.994 275.536 415.236 269.923C421.15 264.641 428.268 262 436.481 262C443.38 262 449.403 263.981 454.331 267.833C459.369 271.794 462.654 277.407 464.187 284.67C464.844 288.301 465.173 293.254 465.173 299.526V348.608C465.173 359.722 466.268 366.215 468.458 368.196C469.444 369.077 470.648 369.517 472.182 369.517C473.496 369.517 475.029 369.297 477 368.746ZM448.856 311.852C442.066 313.502 436.481 315.483 432.101 318.014C422.574 323.627 417.865 332.761 417.865 345.416C417.865 353.89 419.726 359.943 423.559 363.464C425.968 365.665 428.816 366.766 432.101 366.766C443.271 366.766 448.856 355.211 448.856 332.211V311.852Z" fill="#212721"/>
<path d="M473 270.34V266.39C482.263 265.512 490.545 263.975 497.628 262C498.827 266.609 499.699 273.193 500.353 281.753C505.91 268.914 513.538 262.439 523.455 262.439C533.808 262.439 542.199 268.036 548.628 279.229C554.949 290.203 558 303.701 558 319.833C558 336.074 554.949 349.682 548.737 360.656C542.526 371.739 534.244 377.226 523.891 377.226C518.333 377.226 513.756 375.69 510.051 372.508C507.327 370.203 504.603 366.582 501.878 361.534V404.551C501.878 409.709 502.641 413.001 504.167 414.428C505.801 416.074 509.179 416.952 514.41 417.281V422C505.91 421.012 498.827 420.464 493.269 420.464C487.712 420.464 480.955 421.012 473 422V417.281C476.596 417.062 479.211 416.513 481.064 415.745C482.481 415.086 483.57 414.428 484.115 413.44C485.096 411.904 485.641 408.941 485.641 404.551V284.497C485.641 277.144 484.442 272.974 481.936 271.657C480.301 271.108 477.359 270.56 473 270.34ZM521.82 269.023C516.263 269.023 511.795 272.206 508.308 278.461C503.949 286.582 501.769 299.97 501.769 318.516C501.769 353.193 508.526 370.642 522.038 370.642C534.679 370.642 541 353.852 541 320.381C541 286.143 534.57 269.023 521.82 269.023Z" fill="#212721"/>
<path d="M586.033 332.384V359.014C586.033 364.493 587.128 367.89 589.319 369.315C591.182 370.411 593.921 371.178 597.427 371.397V376C589.538 375.123 582.746 374.685 577.268 374.685C571.9 374.685 565.107 375.123 557 376V371.288C561.273 370.959 564.34 370.301 566.312 369.205C568.503 368 569.599 364.493 569.599 358.685V281.315C569.599 275.507 568.503 272 566.312 270.795C564.34 269.699 561.163 269.041 557 268.712V264C565.107 264.877 571.9 265.315 577.268 265.315C582.855 265.315 589.538 264.877 597.427 264V268.712C593.921 268.932 591.182 269.589 589.319 270.795C587.128 272.11 586.033 275.616 586.033 281.096V322.411L614.627 283.726C617.585 279.671 619.119 276.493 619.119 274.301C619.119 271.233 615.723 269.37 608.821 268.932V264.219C615.175 264.986 620.872 265.315 625.911 265.315C631.061 265.315 637.305 264.986 644.536 264.219V268.932C639.716 269.479 636.1 270.466 633.8 271.781C631.499 273.096 628.869 275.836 625.692 280L605.862 306.192L634.238 358.575C637.086 363.726 639.387 367.123 641.14 368.658C642.783 370.082 646.07 370.959 651 371.288V376C642.674 375.233 636.319 374.904 631.828 374.904C627.336 374.904 620.872 375.233 612.545 376V371.397C613.641 371.288 614.408 371.178 614.846 371.068C619.448 370.74 621.639 369.425 621.639 367.342C621.639 366.356 620.981 364.603 619.557 362.082L596.112 319.233L586.033 332.384Z" fill="#212721"/>
</svg>
