<svg width="750" height="422" viewBox="0 0 750 422" fill="none" xmlns="http://www.w3.org/2000/svg">
<path d="M253.599 297.145C256.874 291.528 259.883 287.937 262.893 286.28C265.637 284.714 269.089 283.886 273.161 283.793L275.02 276.519H242.003L240.144 283.793C244.482 283.978 247.049 285.451 247.757 288.121C248.465 290.884 246.783 295.856 242.534 303.315C233.152 319.06 226.601 329.742 222.884 334.806L221.91 336.28L207.393 281.768L207.924 281.399C224.654 269.429 237.135 255.248 241.029 240.792C244.659 224.217 234.833 216.206 222.707 216.206C209.96 216.206 198.276 223.849 192.699 232.228C183.848 244.843 181.812 259.945 186.503 277.072L189.336 287.477L188.716 287.937C155.877 310.037 130.03 342.817 149.769 368.14C155.523 375.138 163.401 378.729 173.226 378.729C184.822 378.729 196.771 372.836 208.544 361.326L209.429 360.405L209.96 361.602C214.209 372.928 223.326 378.729 236.958 378.729C249.97 378.729 257.848 373.296 261.123 362.339H254.041C253.068 365.377 251.386 367.679 249.084 369.06C246.695 370.626 244.039 371.362 241.207 371.362C237.577 371.362 234.656 370.258 232.532 368.232C230.496 366.114 228.726 362.246 227.132 356.537L223.769 343.922L224.034 343.554C230.673 334.898 240.587 319.337 253.599 297.145ZM202.525 244.843C203.941 237.108 206.331 231.215 209.695 227.164C213.058 223.112 216.953 220.994 221.113 220.994C224.654 220.994 227.309 222.099 228.903 224.493C236.338 235.267 229.345 256.722 206.862 276.611L205.977 277.348L204.826 273.48C201.905 262.247 201.109 252.578 202.525 244.843ZM207.216 353.591C197.922 362.431 188.982 366.943 180.927 366.943C173.668 366.943 168.269 363.812 165.082 357.458C150.3 330.847 190.752 292.357 190.752 292.357L207.659 353.223L207.216 353.591Z" fill="#212721"/>
<path d="M120.295 5.43255C118.082 2.85428 115.427 1.65723 112.329 1.65723C109.408 1.65723 106.841 2.67012 104.805 4.6959C102.326 6.99792 101.176 9.85243 101.176 13.1673C101.176 16.206 102.061 18.7843 103.92 20.9022C106.133 23.4804 108.877 24.6775 112.152 24.6775C115.073 24.6775 117.551 23.6646 119.587 21.6388C122.066 19.4289 123.216 16.5743 123.216 13.2594C123.128 10.1287 122.243 7.55041 120.295 5.43255Z" fill="#212721"/>
<path d="M31.2463 86.5561V136.924C31.2463 144.199 32.4855 148.527 34.8755 150C36.9114 151.197 40.3635 152.118 45.409 152.67V158.471C35.7607 157.274 28.2368 156.722 22.7487 156.722C17.1722 156.722 9.6483 157.274 0 158.471V152.67C4.95692 152.118 8.49758 151.289 10.5335 150C11.6842 149.263 12.5693 148.435 13.0119 147.33C13.8086 145.212 14.2512 141.713 14.2512 136.924V21.4549C14.2512 14.1805 13.0119 9.85266 10.622 8.37937C8.32055 7.09024 4.77989 6.26151 0 5.8011V0H46.7367C61.2534 0 71.6983 3.8674 77.983 11.6943C84.7988 20.0737 88.1624 30.663 88.1624 43.3701C88.1624 50.1841 87.1002 56.5377 84.8873 62.523C82.6744 68.5082 79.6648 73.3885 75.8586 76.9797C69.2199 83.3333 60.1027 86.5561 48.507 86.5561H31.2463ZM31.2463 79.2817H42.4879C50.897 79.2817 57.0931 77.1639 61.1649 73.0202C67.7151 66.3904 70.9017 56.2615 70.9017 42.5414C70.9017 33.4254 69.1314 25.3223 65.5907 18.232C61.7845 10.9576 54.5261 7.2744 43.5501 7.2744H31.2463V79.2817Z" fill="#212721"/>
<path d="M220.495 153.683V158.379C212.528 157.551 205.801 157.09 200.402 157.09C194.914 157.09 188.275 157.551 180.485 158.379V153.683C186.593 153.315 189.691 151.75 189.691 149.079C189.691 147.514 189.071 145.304 187.832 142.541L173.404 109.853L157.029 140.516C154.993 144.199 154.019 147.053 154.019 149.171C154.019 151.75 157.206 153.315 163.667 153.775V158.471C149.593 157.274 137.732 156.722 128.084 156.722C118.258 156.722 106.397 157.274 92.5885 158.564H92.5V153.867C96.6603 153.591 99.6698 152.855 101.617 151.75C103.742 150.553 104.804 146.961 104.804 141.16V66.1143C104.804 59.1161 103.653 54.9725 101.44 53.7754C99.8469 52.8546 96.8373 52.3942 92.5885 52.3021V48.2506C102.502 47.0535 111.885 44.9356 120.825 41.897V139.503C120.825 145.396 121.887 148.895 123.923 150.092C125.694 151.289 134.988 152.578 140.122 150.737C143.043 149.54 146.407 147.053 150.213 139.963L170.217 102.763L151.098 60.0369C148.885 54.9725 146.052 51.9338 142.512 50.9209C141.096 50.4605 139.148 50.1843 136.581 50.0922V45.396C144.194 46.2248 150.655 46.6852 155.878 46.6852C161.189 46.6852 167.562 46.2248 174.909 45.396V50.0922C169.244 50.4605 166.5 51.9338 166.5 54.5121C166.5 55.7091 167.208 57.9191 168.624 61.0498L179.512 85.8196L192.878 61.234C194.382 58.4715 195.091 56.1695 195.091 54.3279C195.091 51.8417 192.081 50.4605 186.062 50.1843V45.4881C191.904 46.1327 196.861 46.4089 200.933 46.4089C205.004 46.4089 209.961 46.1327 215.892 45.4881V50.1843C212.794 50.4605 210.404 50.8288 208.634 51.4734C205.713 52.5784 202.969 55.525 200.313 60.4973L182.521 92.8178L204.208 141.621C207.217 148.343 210.581 152.21 214.299 153.131C215.892 153.315 217.839 153.591 220.495 153.683Z" fill="#212721"/>
<path d="M277.941 121.363H285.199C284.314 131.492 281.57 140.055 276.967 147.146C271.479 155.801 263.513 160.129 253.068 160.129C240.852 160.129 231.558 154.328 225.185 142.818C219.166 131.86 216.156 118.232 216.156 101.842C216.156 85.6355 219.077 72.1917 225.008 61.4182C228.283 55.5251 232.532 51.0131 237.931 47.6982C242.003 45.1199 246.606 43.9229 251.74 43.9229C258.467 43.9229 264.663 46.317 270.151 51.1972C277.941 58.0112 282.721 70.5343 284.491 88.9505C284.757 91.7129 284.934 95.212 285.022 99.3556H232.62C232.886 109.116 233.328 116.943 233.948 122.836C236.161 142.542 243.242 152.394 255.192 152.394C262.096 152.394 267.407 149.448 271.036 143.647C274.754 137.569 277.056 130.203 277.941 121.363ZM269.089 91.2525C268.381 63.6282 262.539 49.816 251.563 49.816C247.226 49.816 243.508 52.3022 240.498 57.3667C236.25 64.2727 233.86 75.5987 233.151 91.3446H269.089V91.2525Z" fill="#212721"/>
<path d="M287.236 51.7493V47.6977C296.354 46.7769 304.409 45.3036 311.313 43.2778C312.464 47.974 313.349 54.6038 313.968 63.2594C319.368 50.276 326.892 43.7382 336.629 43.7382C346.808 43.7382 354.951 49.3552 361.325 60.6811C367.432 71.7309 370.53 85.4509 370.53 101.657C370.53 118.048 367.521 131.768 361.413 142.909C355.305 154.051 347.25 159.668 337.071 159.668C331.672 159.668 327.157 158.103 323.528 154.972C320.873 152.67 318.217 148.987 315.562 143.922V187.477C315.562 192.725 316.27 196.04 317.775 197.421C319.368 199.079 322.731 200 327.777 200.276V204.972C319.368 203.959 312.552 203.499 307.153 203.499C301.753 203.499 295.114 203.959 287.236 204.972V200.276C290.688 200 293.344 199.539 295.114 198.803C296.531 198.158 297.504 197.421 298.124 196.501C299.098 194.935 299.54 191.989 299.54 187.477V66.1139C299.54 58.7474 298.301 54.4196 295.911 53.1305C294.406 52.4859 291.485 52.0255 287.236 51.7493ZM335.035 50.3681C329.636 50.3681 325.21 53.5909 321.846 59.9445C317.509 68.2318 315.385 81.6756 315.385 100.46C315.385 135.543 322.023 153.13 335.301 153.13C347.693 153.13 353.889 136.188 353.889 102.302C353.801 67.6793 347.516 50.3681 335.035 50.3681Z" fill="#212721"/>
<path d="M418.418 52.1177V140.976C418.418 146.869 419.48 150.368 421.604 151.565C423.552 152.67 426.561 153.315 430.721 153.683V158.379C422.135 157.458 415.32 156.998 410.363 156.998C405.406 156.998 398.59 157.458 390.004 158.379V153.683C394.164 153.407 397.262 152.67 399.21 151.565C401.245 150.368 402.308 146.777 402.308 140.976V52.1177H398.855C393.987 52.1177 390.358 53.2226 387.968 55.3405C385.578 57.4584 383.454 61.2337 381.595 66.3902C380.887 68.416 379.736 71.823 378.408 76.7033H373.717L377.789 45.9482H442.671L446.743 76.7033H442.051C439.573 68.2318 437.626 62.707 436.032 60.0366C434.439 57.09 432.669 55.0643 430.81 54.0514C428.508 52.7622 425.41 52.1177 421.604 52.1177H418.418Z" fill="#212721"/>
<path d="M329.548 370.073V375.782C320.076 374.677 312.553 374.033 307.153 374.033C301.665 374.033 294.141 374.585 284.67 375.782V370.073C288.388 369.705 291.22 369.152 293.079 368.324C295.026 367.587 296.443 366.574 297.151 365.469C298.213 363.628 298.656 360.036 298.656 354.512V239.963C298.656 233.517 297.859 229.466 296.177 227.9C294.23 226.151 290.423 225.046 284.67 224.493V218.784C293.699 219.889 301.222 220.534 307.153 220.534C312.995 220.534 320.431 219.981 329.548 218.784V224.493C325.565 224.862 322.643 225.414 320.785 226.243C319.014 226.979 317.864 227.992 317.155 229.097C316.093 230.847 315.474 234.53 315.474 240.055V354.696C315.474 361.141 316.27 365.193 317.952 366.666C319.811 368.324 323.706 369.521 329.548 370.073Z" fill="#212721"/>
<path d="M392.04 260.037V298.619H387.349C384.605 278.361 378.143 268.324 368.052 268.324C361.679 268.324 356.722 272.652 353.182 281.307C349.464 290.331 347.605 303.959 347.605 322.099C347.605 339.871 349.818 352.762 354.155 360.773C357.431 366.851 361.945 369.889 367.787 369.889C378.409 369.889 384.694 359.668 386.729 339.226H393.988C392.926 350.184 390.27 359.208 386.021 366.298C381.241 373.941 374.514 377.716 365.663 377.716C358.404 377.716 351.942 374.954 346.189 369.521C335.744 359.484 330.521 343.278 330.521 320.81C330.521 304.42 333.531 290.792 339.55 280.018C346.1 268.048 354.952 262.155 366.105 262.155C373.452 262.155 379.648 265.469 384.517 272.099L388.765 260.221H392.04V260.037Z" fill="#212721"/>
<path d="M441.344 270.902V358.655C441.344 364.456 442.406 367.955 444.53 369.152C446.389 370.257 449.399 370.902 453.559 371.178V375.874C445.061 374.954 438.423 374.493 433.466 374.493C428.597 374.493 421.87 374.954 413.372 375.874V371.086C417.444 370.81 420.542 370.073 422.49 369.06C424.525 367.863 425.588 364.364 425.588 358.563V270.81H422.224C417.444 270.81 413.815 271.915 411.514 274.033C409.212 276.151 407.088 279.834 405.229 284.99C404.521 286.924 403.459 290.331 402.042 295.119H397.439L401.511 264.825H465.509L469.58 295.119H464.978C462.588 286.74 460.552 281.307 459.047 278.729C457.454 275.874 455.683 273.849 453.913 272.836C451.612 271.547 448.602 270.902 444.796 270.902H441.344Z" fill="#212721"/>
<path d="M508.705 261.97C516.76 261.97 523.664 265.469 529.506 272.375C533.666 277.348 537.03 284.714 539.597 294.291C541.721 302.394 542.783 310.773 542.783 319.613C542.783 335.819 539.685 349.447 533.489 360.589C527.116 372.007 518.53 377.716 507.731 377.716C500.827 377.716 494.542 375.046 488.877 369.613C483.212 364.088 478.875 356.169 476.042 346.04C473.918 338.305 472.855 329.65 472.855 320.165C472.855 303.959 475.865 290.607 481.884 280.018C488.7 267.955 497.64 261.97 508.705 261.97ZM508.174 268.048C503.394 268.048 499.322 270.994 496.224 276.795C491.709 285.267 489.408 299.908 489.408 320.442C489.408 354.512 495.516 371.547 507.731 371.547C512.511 371.547 516.494 368.692 519.592 362.983C524.018 354.696 526.319 340.515 526.319 320.35C526.319 285.451 520.212 268.048 508.174 268.048Z" fill="#212721"/>
<path d="M541.635 270.534V266.574C550.663 265.654 558.541 264.18 565.446 262.247C566.596 266.851 567.482 273.48 568.101 281.952C573.412 269.061 580.936 262.707 590.496 262.707C600.498 262.707 608.642 268.324 614.838 279.466C620.945 290.423 623.955 303.867 623.955 319.981C623.955 336.188 620.946 349.724 614.926 360.681C608.907 371.731 600.941 377.256 590.938 377.256C585.627 377.256 581.113 375.69 577.572 372.56C574.917 370.258 572.35 366.666 569.694 361.602V404.604C569.694 409.76 570.403 413.075 571.907 414.456C573.501 416.022 576.776 417.035 581.733 417.311V422.007C573.501 420.994 566.685 420.534 561.374 420.534C556.063 420.534 549.513 420.994 541.723 422.007V417.311C545.175 417.127 547.742 416.574 549.513 415.838C550.929 415.193 551.903 414.456 552.434 413.536C553.407 411.97 553.85 409.024 553.85 404.604V284.622C553.85 277.348 552.611 273.02 550.221 271.823C548.628 271.178 545.795 270.718 541.635 270.534ZM588.725 269.153C583.414 269.153 579.077 272.283 575.714 278.637C571.465 286.74 569.34 300.092 569.34 318.692C569.34 353.407 575.891 370.718 588.991 370.718C601.206 370.718 607.314 353.959 607.314 320.534C607.314 286.28 601.118 269.153 588.725 269.153Z" fill="#212721"/>
<path d="M651.926 260.682V358.564C651.926 364.365 652.988 367.864 655.024 369.061C656.971 370.166 659.981 370.81 664.052 371.087V375.783C655.643 374.862 649.005 374.402 644.136 374.402C639.268 374.402 632.541 374.862 624.043 375.783V371.087C628.115 370.81 631.124 370.074 633.072 369.061C635.196 367.864 636.258 364.365 636.258 358.564V284.623C636.258 277.717 635.196 273.665 632.983 272.376C631.478 271.455 628.557 270.995 624.22 270.903V266.943C633.868 265.746 643.163 263.72 651.926 260.682ZM643.428 220.995C646.526 220.995 649.093 222.284 651.306 224.77C653.165 226.888 654.139 229.466 654.139 232.413C654.139 235.728 652.899 238.49 650.509 240.7C648.474 242.634 645.995 243.647 643.163 243.647C639.976 243.647 637.232 242.357 635.019 239.871C633.16 237.753 632.275 235.175 632.275 232.229C632.275 229.006 633.514 226.151 635.904 223.941C638.029 222.008 640.507 220.995 643.428 220.995Z" fill="#212721"/>
<path d="M665.025 375.782V371.178C669.451 370.994 672.372 370.165 673.7 368.876C675.116 367.587 676.621 364.825 677.949 360.681L685.738 336.924C687.597 331.031 689.899 327.164 692.465 325.138C693.97 323.941 696.626 322.836 700.432 321.823C695.564 321.086 691.846 319.889 689.279 318.14C681.401 313.167 677.418 305.064 677.418 293.646C677.418 282.504 681.047 274.401 688.394 269.429C693.085 266.206 699.547 264.641 707.69 264.641H750.001V269.337C745.841 269.613 742.831 270.35 740.884 271.363C738.848 272.56 737.786 276.059 737.786 281.86V358.379C737.786 364.18 738.848 367.679 740.884 368.876C742.743 369.981 745.841 370.626 750.001 370.902V375.598C742.212 374.677 735.662 374.217 730.528 374.217C725.217 374.217 718.755 374.677 711.143 375.598V370.994C714.506 370.81 717.073 370.073 718.932 368.968C721.056 367.587 722.119 364.18 722.119 358.747V323.296H718.047C713.09 323.296 709.195 324.309 706.451 326.243C704.15 327.992 701.937 331.86 699.989 337.845L690.784 365.469C690.164 367.587 688.925 370.994 687.066 375.598C682.463 374.954 678.745 374.677 676.001 374.677C673.169 374.862 669.54 375.138 665.025 375.782ZM721.941 271.086H712.647C700.255 271.086 693.97 278.637 693.97 293.738C693.97 309.3 700.432 317.127 713.267 317.127H721.941V271.086Z" fill="#212721"/>
</svg>
